<svg width="800" height="512" viewBox="0 0 800 512" fill="none" xmlns="http://www.w3.org/2000/svg">
<rect width="800" height="512" fill="black"/>
<path d="M148.717 100.004L144.948 100.447L143.335 100.541L139.167 100.84L134.201 100.851L129.235 100.862L124.015 100.329L119.065 99.6691L111.96 99.3581L107.266 99.2414L105.11 99.5903L102.827 99.6677L100.671 100.017L100.127 100.272L100 100L102.317 98.5814L103.403 98.0716L105.864 96.254L108.741 93.9098L116.794 88.4735L120.757 85.6196L125.263 82.5108L129.082 80.0559L130.728 78.6206L134.004 76.4206L136.066 74.4588L137.856 72.6245L137.729 72.3529L137.679 74.3647L137.933 74.9079L138.537 77.607L139.302 79.2365L140.067 80.866L140.959 82.7671L141.469 83.8534L142.743 86.5693L144.018 89.2851L145.292 92.0009L146.567 94.7167L147.969 97.7041L148.921 100L148.717 100.004Z" stroke="white"/>
<path d="M132.611 75.9315L130.977 76.5553L127.899 78.4462L124.525 80.2847L118.074 84.014L112.213 87.8483L107.291 91.5446L105.447 93.35L104.646 94.4266L102.75 96.5273L102.349 97.0656L101.601 97.8468L101.148 98.6805L100.453 99.1663L100 100L100.105 99.4092L100.906 98.3327L101.253 98.0897L104.527 91.6632L106.844 87.1995L108.149 84.9938L115.36 70.1256L123.077 54.1284L127.538 42.7329L129.454 38.8075L130.917 35.7157L133.614 32.5383L134.362 31.7571L135.944 31.4286L136.239 31.4811L136.83 31.586L136.778 31.8814L136.811 33.4107L136.844 34.9401L136.667 37.651L136.733 40.7097L136.523 41.8912L136.675 46.1838L136.584 50.1287L136.493 54.0735L136.258 62.2585L136.272 65.6126L136.285 68.9667L136.109 71.6775L136.194 72.9115L136.255 73.7825L132.611 75.9315Z" stroke="white"/>
<path d="M99.9551 99.1011L100.225 98.4869L100.465 97.2735L100.704 96.06L101.154 93.0338L101.873 89.3934L102.368 87.2661L103.701 83.8954L104.48 81.4535L105.574 79.2962L110.099 73.6635L111.822 72.0756L113.56 70.7873L114.429 70.1432L117.575 66.9823L118.363 65.8897L116.736 62.2182L114.444 58.4278L110.744 50.5025L109.756 48.7496L107.045 42.5772L105.726 40.24L105.022 38.1726L104.363 37.004L104.049 36.7193L103.689 35.5358L103.674 35.2361L103.39 35.5507L103.165 37.0638L103 39.7754L102.595 49.708L102.355 56.929L102.205 59.9402L101.44 68.6892L101.275 77.4083L100.735 84.6443L100.405 90.0675L100.315 94.2772L100.09 95.7903L99.8953 97.9026L99.9551 99.1011ZM99.9551 99.1011L100 100" stroke="white"/>
<path d="M100.193 98.8155L100.385 97.6311L100.33 96.1024L100.323 94.2776L100.06 90.2837L100.149 87.8667L100.135 84.217L100.616 81.2559L100.802 78.2467L101.372 72.8685L101.504 71.4073L95.3536 72.4978L94.121 72.6013L87.5656 73.663L84.5082 73.7738L79.8258 74.5322L78.2489 74.8836L77.6567 74.7873L76.7202 74.939L75.8319 74.7946L75.7838 75.0907L75.9836 75.7311L76.1834 76.3714L76.3832 77.0118L76.6312 77.3561L77.6712 78.437L80.1436 80.0547L82.616 81.6725L84.7923 83.2421L89.441 86.4295L91.8172 88.6395L94.2414 90.5534L94.9853 91.5861L96.8174 93.4037L98.1053 94.8289L99.7929 97.5348L100.193 98.8155ZM100.193 98.8155L100 100L100.048 99.7039L100.096 99.4078L100.193 98.8155Z" stroke="white"/>
<path d="M66.9465 65.2094L66.9521 65.5093L66.9688 66.4092L66.9856 67.309L66.708 68.5144L66.7359 70.0141L66.1695 71.825L65.32 74.5413L63.9704 78.5545L60.9045 79.1243L55.2334 80.7302L47.1851 83.5805L43.6081 84.8473L40.331 86.1086L37.6538 87.3586L34.9655 88.0088L33.4769 88.6366L33.7824 88.931L34.9822 88.9087L36.7875 89.1751L40.0925 89.4136L50.6074 90.1179L66.5438 91.9215L83.1024 94.9137L93.9452 97.1122L95.1561 97.6898L97.8724 98.5394L99.0778 98.817L100 100L99.7001 100.006L99.089 99.4169L98.1668 98.2338L97.239 96.7508L95.6834 93.7793L94.4334 91.1021L92.8834 88.4305L91.6333 85.7533L90.0889 83.3817L88.85 81.3044L87.911 79.2215L86.6777 77.4441L86.361 76.5499L83.9 73.2951L82.0724 71.8289L79.3337 69.7795L76.6007 68.0301L75.3897 67.4526L75.0842 67.1582L72.9678 66.2975L72.3623 66.0087L71.4569 65.7255L70.5515 65.4423L69.646 65.1591L68.7462 65.1759L68.4462 65.1815L67.8463 65.1926L67.2464 65.2038L66.9465 65.2094ZM66.9465 65.2094L66.6465 65.215" stroke="white"/>
<path d="M64.4336 93.9246L66.0001 94.1162L76.0795 95.6805L78.7475 96.0946L83.7872 96.8767L88.5304 97.6128L92.3843 98.2109L95.5992 99.0134L98.8142 99.816L99.7036 99.954L100 100L99.954 100.296L98.3797 100.659L96.8515 100.726L95.6196 100.838L93.7029 101.451L93.3605 101.702L89.1845 103.179L86.8333 104.636L84.4821 106.092L79.0488 109.803L76.6516 111.556L74.5508 113.355L73.8659 113.856L72.4501 115.154L71.6731 116.248L70.8962 117.342L70.5077 117.889L70.5998 117.296L70.4873 116.064L70.2829 115.425L69.6236 113.805L69.0563 111.592L68.3306 108.443L67.3084 105.249L66.3782 101.461L64.6763 94.8216L64.4336 93.9246Z" stroke="white"/>
<path d="M71.4769 117.301L79.7363 112.291L84.3533 109.491L88.7139 106.846L93.8439 103.734L96.409 102.178L98.461 100.934L99.487 100.311L100 100L99.8991 100.412L99.6426 100.568L99.2851 101.135L98.5703 102.271L97.4434 103.305L96.7832 105.109L94.5377 108.927L93.6673 109.806L92.6497 112.178L91.8886 114.394L90.2655 119.238L89.7609 121.298L89.3572 122.946L89.21 124.439L88.9619 126.344L89.3278 127.526L89.7945 128.295L89.6936 128.707L88.5583 127.992L87.4229 127.278L83.7604 125.289L81.6453 124.115L79.7867 122.787L77.516 121.357L76.3807 120.642L73.5423 118.855L71.4769 117.301Z" stroke="white"/>
<path d="M81.1586 152.481L84.5223 143.849L87.6179 135.079L90.4138 127.158L92.6107 120.934L94.1252 115.742L96.838 107.156L97.2374 106.024L98.8351 101.498L99.2345 100.366L99.5341 99.5174L100 100L100.366 100.765L101.464 103.062L102.097 104.876L103.195 107.172L106.506 113.113L108.536 116.375L110.749 120.02L113.062 123.381L114.993 126.926L117.855 131.435L120.434 135.845L121.915 137.959L124.411 141.703L125.243 142.951L125.792 144.1L125.126 144.183L124.278 143.883L123.429 143.584L121.715 143.933L117.621 144.715L114.759 145.614L111.514 146.695L103.876 149.407L99.2993 150.655L94.8229 151.62L87.9834 152.069L83.3239 152.652L81.1586 152.481Z" stroke="white"/>
<path d="M126.397 145.134L122.926 139.623L117.645 130.99L112.563 122.923L108.248 115.221L102.849 105.356L102.349 103.942L100 100L99.4998 98.5859L100.366 99.2343L101.231 99.8827L101.997 100.248L103.429 100.697L104.86 101.145L108.006 101.941L108.954 101.924L112 102.438L118.374 103.365L121.903 104.345L125.614 104.941L128.86 106.02L130.291 106.469L133.154 107.365L135.734 108.362L137.548 108.993L139.463 109.907L139.846 110.09L141.377 110.821L141.76 111.004L141.86 111.287L141.96 111.569L141.977 112.518L141.712 113.566L141.546 114.898L140.384 118.809L139.388 121.389L138.025 124.735L136.198 128.564L135.284 130.478L132.425 134.99L129.666 139.785L126.441 145.062L126.397 145.134Z" stroke="white"/>
<path d="M301.818 98.8268L303.396 98.2039L305.13 97.9757L307.654 97.436L311.003 97.2547L312.738 97.0265L317.032 96.9284L321.721 96.6747L327.51 96.8987L344.365 98.0019L353.696 99.1092L359.962 100L359.761 99.4528L355.977 91.596L355.234 90.2926L353.319 87.1716L351.595 85.1151L350.147 83.1781L348.854 81.6357L347.597 80.7632L346.736 79.735L345.635 79.2571L344.809 78.8987L343.984 78.5403L343.708 78.4208L343.314 78.5766L342.405 79.1632L341.221 79.6303L339.523 80.5284L337.825 81.4265L333.52 83.8092L332.217 84.5516L329.61 86.0363L326.608 87.6767L323.726 89.0419L320.725 90.6824L315.511 93.6517L313.299 94.9807L311.05 95.6398L308.288 96.7299L305.25 97.7005L304.58 97.7367L303.001 98.3596L301.818 98.8268ZM301.818 98.8268L301.423 98.9825L300.119 99.7248L300 100" stroke="white"/>
<path d="M332.831 83.7911L325.257 87.4536L323.366 88.3678L314.724 92.547L311.073 94.6454L308.102 96.082L303.241 98.4328L302.701 98.694L301.62 99.2164L300.81 99.6082L300.54 99.7388L300.27 99.8694L300 100L299.739 99.4599L299.225 97.7088L299.94 94.3638L300.786 91.289L302.042 87.6829L303.567 83.9461L306.06 78.0754L307.855 74.2081L309.781 70.6108L313.215 64.6184L314.714 62.894L315.124 62.3627L315.812 61.03L316.352 60.7688L316.622 60.6382L317.928 63.3391L320.689 67.6692L322.665 70.3789L327.551 76.3474L330.059 79.4666L330.982 80.6864L332.831 83.7911Z" stroke="white"/>
<path d="M290.876 70.6967L292.553 72.5146L294.577 75.994L295 76.9893L295.855 80.0615L296.546 83.3846L298.014 90.4461L298.635 95.5171L299.153 98.0094L299.326 98.8402L299.42 100.337L299.256 100.588L299.342 101.003L299.671 100.502L300 100L300.736 98.3303L301.23 97.5777L302.46 95.1554L303.854 92.4822L305.326 89.1428L306.713 85.388L309.156 78.3801L310.628 75.0407L312.645 68.8362L306.927 69.7434L304.85 70.1751L296.785 70.9849L292.208 70.8531L290.876 70.6967ZM290.876 70.6967L290.625 70.5322" stroke="white"/>
<path d="M274.757 88.8636L275.253 88.2258L279.403 82.592L284.428 75.9422L287.38 72.1092L288.578 70.3083L289.339 69.0155L289.984 67.4458L289.868 67.1689L289.591 67.2845L289.707 67.5614L289.546 67.9538L289.384 68.3462L289.293 69.6848L289.317 71.3001L289.573 73.4692L290.753 77.8529L291.632 80.7369L293.944 86.2737L295.1 89.042L296.301 91.1412L297.226 93.3559L297.457 93.9095L298.151 95.5706L299.191 98.0621L299.653 99.1695L300 100L299.723 100.116L296.976 98.9868L295.06 97.5113L293.928 96.3583L292.52 95.3209L288.364 93.1547L285.617 92.0259L281.809 90.6902L274.757 88.8636Z" stroke="white"/>
<path d="M253.804 79.62L258.307 81.5111L269.968 87.06L280.871 91.3143L290.275 95.2644L291.935 95.9615L297.627 98.6778L299.17 99.6515L300 100L299.884 100.277L299.491 100.437L297.09 100.73L295.082 100.863L292.521 100.763L286.657 101.554L285.318 101.643L282.016 102.533L278.713 103.424L274.902 104.751L270.974 106.355L263.511 109.403L259.976 110.847L255.933 112.728L253.969 113.53L252.165 114.724L251.147 115.598L250.246 116.196L249.737 116.633L249.621 116.909L249.344 116.793L249.184 116.4L248.193 115.659L247.756 115.15L247.159 114.249L246.285 113.231L245.92 111.776L245.278 110.205L244.985 107.804L245.085 105.243L246.722 97.4703L248.581 93.0448L250.28 88.2266L251.209 86.0139L253.3 81.0352L253.804 79.62Z" stroke="white"/>
<path d="M168.814 144.032L174.383 142.806L185.428 139.968L209.885 132.309L237.096 122.491L252.66 116.244L262.906 112.137L276.36 106.366L285.056 102.951L286.886 102.367L293.109 101.216L295.607 100.566L297.33 100.262L297.997 100.197L300 100L299.332 100.066L298.945 100.238L297.222 100.542L295.78 100.954L294.057 101.258L292.507 101.949L290.677 102.533L286.415 104.435L283.316 105.818L274.75 110.569L267.305 115.749L260.742 120.303L253.792 125.03L247.122 129.864L233.717 138.865L222.331 145.106L220.18 146.531L215.703 148.993L211.787 151.669L208.646 154L205.397 156.611L203.203 158.983L200.408 162.089L199.097 163.835L197.892 165.302L196.688 166.768L194.28 169.701L193.464 170.994L192.367 172.18L191.097 172.979L190.71 173.152L190.537 172.765L189.178 171.28L186.418 169.26L184.218 167.454L181.327 164.098L180.594 163.496L176.213 157.32L171.808 149.53L169.799 145.548L168.814 144.032Z" stroke="white"/>
<path d="M203.982 164.269L205.599 163.437L223.353 153.546L241.912 142.39L250.787 136.163L253.839 134.052L262.714 127.825L271.133 122.09L278.36 117.445L284.744 113.118L293.232 106.716L294.881 105.133L297.265 102.953L300 100L300.244 98.9463L300.033 98.3848L299.646 98.2098L298.523 98.6327L297.575 98.6691L296.172 99.1977L294.312 100.218L292.277 101.626L289.681 103.244L286.91 105.25L283.683 107.747L281.229 110.595L275.796 117.449L272.048 123.669L266.301 132.244L263.709 136.426L261.01 140.327L257.925 144.053L254.385 148.272L249.021 154.459L245.2 158.783L238.188 166.552L235.278 169.892L232.543 172.845L230.089 175.693L228.091 178.048L225.532 180.615L224.445 181.985L222.972 183.181L222.691 183.287L222.305 183.112L221.812 182.656L220.547 181.85L218.579 180.027L216.118 177.748L212.286 174.383L210.492 172.173L208.417 170.069L206.237 167.685L203.982 164.269Z" stroke="white"/>
<path d="M247.287 156.924L253.071 151.991L263.118 142.426L268.502 137.335L281.867 121.574L285.416 117.549L287.026 115.927L289.854 112.518L292.516 109.499L294.344 106.818L296.397 104.693L297.894 102.794L298.225 102.012L300 100L299.669 100.781L297.788 104.131L294.972 110.771L291.05 119.477L289.063 124.164L287.354 128.739L285.645 133.314L284.326 138.054L281.635 148.204L280.707 153.11L279.117 159.578L277.751 166.603L277.261 169.39L276.711 171.231L276.386 173.627L276.273 173.349L275.658 172.627L274.539 171.462L273.03 170.131L268.839 166.971L265.324 165.481L261.305 163.547L257.287 161.612L253.268 159.678L249.362 158.022L247.287 156.924Z" stroke="white"/>
<path d="M300.189 100.233L300.056 101.499L299.878 103.187L298.224 108.772L297.392 110.604L296.104 114.735L291.63 126.849L288.955 134.033L286.569 142.528L285.548 145.061L290.433 146.347L299.96 149.055L308.499 151.02L314.783 152.107L317.926 152.651L319.991 153.295M300.189 100.233L300 100M300.189 100.233L300.289 101.31L301.188 102.898L301.622 104.863L302.91 108.838L304.198 112.813L305.909 116.832L307.53 121.696L308.774 126.092L309.974 130.911L311.451 135.119L312.928 139.327L314.072 142.647L315.594 146.433L317.059 148.721L319.092 151.707L319.28 151.94L319.991 153.295M319.991 153.295L320.18 153.528" stroke="white"/>
<path d="M300.548 100.245L301.096 100.489L302.612 104.451L303.4 107.103L304.129 108.414L304.975 112.406L306.247 116.916L308.219 122.067L310.645 128.407L314.904 139.533L315.684 139.198L337.144 129.394L341.351 127.33L347.539 124.507L348.332 124.204L350.587 123.568L349.217 122.956L347.847 122.345L345.108 121.122L342.642 120.021L339.903 118.798L334.576 116.749L330.74 115.037L326.631 113.202L318.139 109.411L314.304 107.699L310.195 105.865L306.907 104.398L302.617 101.497L301.37 100.611L300.548 100.245ZM300.548 100.245L300.274 100.122L300 100L300.548 100.245Z" stroke="white"/>
<path d="M543.192 99.9606L541.885 100L529.577 99.5939L527.416 99.508L524.416 99.5552L519.85 99.2071L515.284 98.859L511.137 98.4443L509.637 98.468L503.881 98.7387L502.381 98.7623L500.948 99.205L500.771 99.4478L500.352 99.5144L500 100L500.176 99.7572L501.41 98.0576L502.886 96.5341L505.024 95.1202L507.338 93.4636L510.247 91.4975L514.942 88.6031L518.513 86.7466L524.575 82.9907L529.622 79.6107L531.584 78.4397L532.179 78.1302L533.722 77.0258L535.155 76.5832L536.765 75.8977L537.846 75.9407L538.088 76.1169L538.398 76.7121L538.907 78.5643L539.24 80.6593L539.949 83.7685L540.792 87.7157L542.786 96.2054L543.192 99.9606Z" stroke="white"/>
<path d="M573.724 51.6679L570.993 53.9396L568.765 55.4649L564.557 58.346L559.606 61.7356L553.17 66.1421L537.066 76.0767L519.647 87.2757L513.211 91.6822L510.983 93.2075L506.775 96.0886L503.805 98.1224L501.655 99.2307L500.665 99.9086L500 100L500.156 99.166L500.872 96.4944L502.748 93.3924L504.623 90.2904L509.677 81.7405L518.912 68.1462L524.318 61.1729L536.197 46.1313L542.593 38.4801L546.124 34.6088L549.081 31.4935L551.634 29.3816L553.693 27.6088L554.435 27.1003L556.833 25.8226L557.25 25.9006L558.423 26.5518L559.765 27.4506L560.86 28.5188L562.542 29.9126L564.484 32.2186L566.348 34.9415L568.382 37.912L570.768 42.4592L571.89 45.6906L572.842 48.6744L573.625 51.4107L573.724 51.6679Z" stroke="white"/>
<path d="M552.915 31.5118L548.084 37.924L539.16 50.2388L530.046 62.3212L514.124 82.6686L508.056 89.9425L504.63 94.2861L503.425 95.6564L501.48 98.0179L500 100L499.768 100.19L500.086 99.1558L500.446 97.6998L501.083 95.6321L502.226 92.763L503.456 89.0497L505.003 84.3025L509.199 72.3612L511.804 65.5891L513.988 58.7742L516.257 51.1151L517.168 48.4357L519.633 36.7452L520.336 31.9125L520.953 27.9239L521.338 24.125L521.491 20.5158L521.454 16.6741L521.264 16.4416L521.497 16.252L523.228 16.001L527.682 16.2393L533.695 17.9151L540.339 21.7869L548.267 27.708L551.008 30.118L552.915 31.5118Z" stroke="white"/>
<path d="M507.135 68.1161L505.659 72.3671L505.258 74.0698L503.643 81.8294L502.933 85.5207L502.417 88.8349L501.591 94.1376L501.373 96.4119L500.881 97.8289L500.675 99.1545L500.286 99.9087L500 100L499.726 99.1427L498.825 95.3364L496.999 89.621L496.018 84.5803L494.387 78.4878L493.053 71.3555L489.996 57.8449L488.353 52.701L487.622 50.4149L485.352 42.322L485.546 41.9449L485.923 42.1394L486.495 41.9568L487.535 42.2544L488.289 42.6434L489.603 43.7983L492.139 45.8225L494.207 47.3663L499.45 52.9347L504.317 58.3087L509.068 64.369L507.135 68.1161Z" stroke="white"/>
<path d="M499.71 99.9247L499.279 99.1934L498.634 98.0963L497.645 94.7406L497.01 92.4066L496.16 89.707L495.536 86.1362L494.783 80.6724L494.024 76.4699L493.364 76.5853L489.718 77.4996L485.781 78.3385L483.737 79.0484L480.747 79.8228L479.36 80.3929L478.994 80.608L478.629 80.8231L478.048 80.6725L476.08 81.092L475.714 81.3071L475.423 81.2318L474.767 81.3717L474.402 81.5868L474.617 81.9525L476.499 83.0603L477.801 84.0175L479.758 84.8349L481.931 86.018L484.028 87.4915L492.632 93.7511L497.182 97.7199L498.699 99.0428L499.71 99.9247ZM499.71 99.9247L500 100" stroke="white"/>
<path d="M458.526 105.167L462.429 103.977L465.189 103.805L470.231 103.099L474.194 102.33L478.395 101.741L482.416 101.392L485.958 100.682L489.74 100.152L493.16 100.101L495.92 99.9289L500 100L501.441 99.5839L500.723 99.042L499.765 98.3194L498.147 97.4749L497.189 96.7523L490.781 92.2948L486.768 89.6438L482.457 86.392L473.532 80.7876L469.28 77.956L467.756 76.8064L466.633 80.4688L465.482 84.4857L464.151 88.7421L462.756 94.0783L461.908 97.196L461.24 100.074L459.37 103.549L458.706 104.927L458.526 105.167ZM458.526 105.167L458.345 105.406" stroke="white"/>
<path d="M451.738 106.264L454.866 105.681L460.084 104.667L466.768 104.093L475.328 102.792L485.055 101.903L495.108 100.743L498.152 100.428L498.777 100.186L500 100L500.299 100.028L499.318 100.84L497.385 102.164L495.153 103.46L491.642 105.539L484.592 109.995L483.014 110.75L478.579 113.044L474.741 115.393L470.604 117.714L464.208 121.63L462.928 122.413L461.023 123.439L459.716 124.521L458.735 125.332L458.222 124.38L457.71 123.427L456.955 121.849L454.989 117.144L453.777 114.016L451.738 106.264Z" stroke="white"/>
<path d="M444.903 133.824L446.602 132.951L460.555 124.669L473.566 116.27L479.041 113.039L481.219 111.688L485.282 109.045L489.05 106.46L492.052 104.64L494.819 103.172L496.703 101.879L497.527 101.409L500 100L500.117 100.588L499.467 103.471L498.111 105.882L496.284 108.998L493.868 112.231L491.217 115.817L488.33 119.756L485.09 123.46L480.73 129.221L477.785 132.865L475.369 136.099L473.189 138.979L471.304 141.802L469.889 143.918L469.477 144.918L468.886 146.565L468.826 147.8L468.706 150.271L468.882 151.154L468.293 151.271L466.999 150.916L462.764 149.618L457.354 147.023L454.591 145.432L453.474 144.43L450.888 142.192L448.89 139.837L446.833 137.187L445.365 134.42L444.903 133.824Z" stroke="white"/>
<path d="M505.77 136.162L500.678 136.756L499.473 137.037L496.523 137.204L491.165 137.935L488.756 138.499L486.484 139.329L484.609 139.618L483.138 140.037L480.592 140.334L479.517 140.212L478.442 140.089L477.497 139.563L477.093 139.433L476.689 139.304L476.552 139.037L476.415 138.77L477.338 137.284L477.993 135.935L478.52 134.99L481.821 130.257L486.442 123.497L488.951 119.846L490.407 118.086L493.045 114.031L495.554 110.381L498.436 104.177L499.741 100.808L499.87 100.404L500 100L500.137 100.267L501.646 103.202L503.977 107.738L504.808 110.009L505.905 112.144L506.742 115.086L507.58 118.029L507.595 119.37L507.899 122.587L508.074 126.208L507.096 134.806L507.029 136.074L505.77 136.162Z" stroke="white"/>
<path d="M507.095 136.416L505.875 131.763L504.913 126.718L504.123 124.068L503.161 119.023L501.581 109.512L500.47 102.373L500 100L499.936 99.1023L499.915 98.803L501.24 100.513L502.543 101.924L503.89 103.933L505.236 105.943L507.544 108.786L510.173 111.906L513.101 115.006L518.337 120.949L519.598 121.761L521.543 123.728L524.727 126.207L526.565 126.678L526.864 126.656L525.988 127.02L523.359 128.109L521.35 129.456L519.041 130.823L516.433 132.213L513.526 133.623L509.166 135.738L507.095 136.416Z" stroke="white"/>
<path d="M540.611 103.815L539.784 108.808L538.479 113.514L537.825 115.532L536.922 120.101L536.013 123.999L534.181 129.782L533.785 130.591L533.526 131.8L533.267 133.01L532.998 132.878L532.459 132.614L532.052 132.08L531.646 131.547L530.019 129.413L528.661 127.411L527.034 125.277L525.275 123.413L523.379 121.147L522.433 120.35L519.18 116.082L517.553 113.948L516.063 112.216L512.952 109.021L511.33 107.558L509.576 106.364L507.823 105.17L507.416 104.637L506.069 103.977L503.37 101.986L501.078 100.528L500.808 100.396L500 100L500.401 99.8626L501.072 99.8573L501.743 99.852L502.144 99.7146L502.947 99.4399L504.558 99.5613L506.301 99.4133L511.668 99.3707L519.046 99.3121L523.209 99.6816L527.64 100.183L531.94 100.954L535.436 102L537.185 102.522L540.611 103.815Z" stroke="white"/>
<path d="M725.556 100L723.448 100.052L719.816 100.412L715.905 100.453L712.293 100.514L705.089 100.337L701.477 100.399L700.878 100.359L699.98 100.299L700 100L701.856 99.2211L703.392 98.7216L705.248 97.9427L706.824 96.8446L709.018 95.4868L710.934 93.8099L715.083 90.1765L715.741 89.3181L717.357 87.6213L718.953 86.2238L720.25 84.8065L720.928 83.6489L720.948 83.3495L721.965 81.613L722.343 80.4355L722.363 80.1361L722.682 79.8567L722.702 79.5573L722.982 79.8765L723.521 80.8142L724.879 83.0089L725.358 84.8446L725.758 87.8778L725.699 88.7758L725.641 94.1838L725.742 97.1971L725.556 100Z" stroke="white"/>
<path d="M721.978 80.2098L721.672 80.5783L715.728 86.9938L714.149 88.3791L711.416 91.1772L708.936 93.3541L706.681 95.3331L703.074 98.4995L701.496 99.8848L701.045 100.281L700.396 100.451L700 100L700.138 97.8832L700.248 96.1897L701.035 93.9025L701.651 90.9665L702.493 87.8326L703.56 84.5008L703.868 83.0328L704.936 79.701L705.552 76.765L706.366 74.0545L706.927 71.9652L707.461 70.2993L707.742 69.2547L707.967 69.0568L708.786 69.5353L711.018 71.1687L713.053 72.5766L715.257 74.6334L718.506 76.9708L721.978 80.2098Z" stroke="white"/>
<path d="M708.222 67.3489L708.201 67.6575L707.853 70.697L707.414 74.0222L705.596 81.6311L704.778 85.1499L703.676 88.5769L702.573 92.0038L701.378 95.7163L700.735 97.7154L700.276 99.1433L700 100L699.622 100.194L699.337 100.102L699.051 100.01L698.195 99.7342L697.623 99.5505L695.798 97.3874L694.452 95.6937L692.516 91.919L689.417 85.8794L687.959 82.5741L686.501 79.2687L684.952 76.2489L683.882 73.6985L683.586 72.658L682.71 70.485L681.262 68.1283L681.354 67.8427L682.772 67.3536L685.129 65.9059L688.24 64.0708L689.944 63.6735L691.556 63.5618L693.453 63.5421L698.298 64.1556L702.296 65.4421L708.007 67.28L708.222 67.3489Z" stroke="white"/>
<path d="M666.079 89.8492L666.581 88.2897L669.321 77.8258L671.069 72.4004L671.805 70.116L673.092 66.1182L674.196 62.6916L675.116 59.8361L675.769 58.7859L676.36 60.8671L676.471 62.4788L676.582 64.0906L677.487 69.1097L678.382 73.1802L678.788 75.8325L679.674 78.9543L680.366 81.6986L681.721 84.3414L684.411 87.7295L686.236 89.8932L688.346 92.1487L690.354 93.7412L692.363 95.3337L695.799 97.3861L696.278 97.8557L698.379 99.1626L699.235 99.4385L700 100L699.908 100.286L699.53 100.479L699.153 100.673L697.827 100.876L696.215 100.987L694.318 101.006L689.279 100.014L686.138 99.002L684.711 98.5421L676.807 95.6811L672.993 93.8222L668.986 91.5859L666.079 89.8492Z" stroke="white"/>
<path d="M660.974 117.643L662.316 116.143L663.501 115.223L663.948 114.723L665.79 113.671L667.711 112.33L669.843 111.357L675.501 108.859L679.764 106.913L682.553 105.809L685.553 105.073L688.264 104.259L690.895 103.733L695.579 102.524L697.263 102.051L698.368 101.42L699.474 100.789L699.921 100.289L700 100L699.711 99.921L696.975 98.5519L695.317 97.7883L691.844 96.8399L688.661 95.9706L685.188 95.0223L681.715 94.0739L677.664 92.9675L673.901 91.9402L670.429 90.9918L668.692 90.5176L664.351 89.3322L663.482 92.5157L662.823 96.0675L661.794 103.25L661.689 104.776L661.846 107.618L661.792 110.091L661.528 112.196L661.344 114.012L661.317 115.248L661.053 117.353L660.974 117.643ZM660.974 117.643L660.895 117.932" stroke="white"/>
<path d="M666.236 115.483L666.327 115.447L669.192 113.809L670.233 113.214L674.55 111.092L676.112 110.199L679.647 108.524L686.307 105.062L692.075 102.457L692.856 102.01L694.828 101.229L696.279 100.745L697.209 100.559L697.991 100.112L698.14 100.372L698.4 100.223L699.07 100.186L699.74 100.149L700 100L700.149 100.26L699.926 101.079L699.293 101.786L699.07 102.605L697.47 105.247L696.503 107.182L695.276 109.266L694.048 111.35L692.709 113.843L691.667 116.857L690.477 119.611L690.254 120.43L689.175 122.774L688.282 126.049L687.836 127.686L687.613 128.505L687.501 128.914L687.39 129.324L685.752 128.877L684.524 128.542L681.361 127.241L679.687 126.124L677.603 124.897L676.635 124.413L671.462 120.804L668.895 118.126L666.476 115.707L666.236 115.483Z" stroke="white"/>
<path d="M700.633 129.663L697.323 130.525L691.254 132.487L687.431 133.783L685.816 133.741L685.541 133.623L685.659 133.347L686.963 130.316L688.03 127.835L689.333 124.804L689.807 123.701L693.007 116.26L694.785 112.126L696.207 108.819L697.511 105.788L698.459 103.583L699.289 101.654L699.763 100.551L699.881 100.276L700 100L700.276 100.119L700.59 100.907L700.628 101.576L701.215 104.768L701.488 107.171L702.036 109.693L702.072 112.647L702.265 115.996L702.615 119.739L702.728 124.032L702.84 128.326L702.89 129.194L700.633 129.663Z" stroke="white"/>
<path d="M704.6 146.461L704.396 145.36L703.647 142.909L703.252 139.578L702.577 135.929L701.32 127.134L700.42 122.269L699.968 115.027L699.948 110.517L699.758 103.892L699.87 102.096L699.907 101.497L700 100L700.599 100.037L700.898 100.056L701.479 100.392L702.34 101.047L703.219 101.402L706.046 104.283L708.311 106.528L710.876 108.791L714.002 111.691L717.147 114.291L720.31 116.591L721.752 117.582L724.335 119.546L726.637 121.192L729.801 123.493L730.1 123.511L730.662 124.148L729.353 125.87L728.716 126.431L725.462 130.437L720.935 135.566L718.054 138.393L714.893 140.902L711.45 143.093L708.008 145.284L704.6 146.461Z" stroke="white"/>
<path d="M769.21 121.04L768.8 121.151L767.871 120.963L766.531 120.886L765.341 120.549L760.542 119.87L757.531 118.488L756.08 118.002L752.139 116.431L747.937 114.712L743.475 112.843L738.753 110.825L733.993 109.477L724.472 106.78L716.922 104.869L712.161 103.52L707.81 102.061L702.269 100.265L702.009 100.115L700.67 100.038L700.409 99.8892L700.26 100.149L700 100L699.851 100.26L700.111 100.41L700.222 100.819L700.593 101.378L701.224 102.086L702.487 103.502L704.009 105.068L706.313 107.082L713.112 112.713L720.99 118.272L728.459 123.942L736.969 130.209L746.259 136.924L755.029 143.34L755.101 143.395L757.49 140.256L760.588 135.462L761.932 133.12L763.276 130.778L765.029 128.325L766.074 126.504L766.821 125.203L767.567 123.902L768.314 122.601L768.911 121.56L769.061 121.3L769.21 121.04ZM769.21 121.04L769.47 121.189L769.619 120.929L769.359 120.78L769.21 121.04Z" stroke="white"/>
</svg>
