<svg width="624" height="618" viewBox="0 0 624 618" fill="none" xmlns="http://www.w3.org/2000/svg">
<rect width="624" height="618" fill="white"/>
<path d="M148.717 100.004L144.948 100.447L143.335 100.541L139.167 100.84L134.201 100.851L129.235 100.862L124.015 100.329L119.065 99.6691L111.96 99.3581L107.266 99.2414L105.11 99.5903L102.827 99.6677L100.671 100.017L100.127 100.272L100 100L102.317 98.5814L103.403 98.0716L105.864 96.254L108.741 93.9098L116.794 88.4735L120.757 85.6196L125.263 82.5108L129.082 80.0559L130.728 78.6206L134.004 76.4206L136.066 74.4588L137.856 72.6245L137.729 72.3529L137.679 74.3647L137.933 74.9079L138.537 77.607L139.302 79.2365L140.067 80.866L140.959 82.7671L141.469 83.8534L142.743 86.5693L144.018 89.2851L145.292 92.0009L146.567 94.7167L147.969 97.7041L148.921 100L148.717 100.004Z" stroke="black"/>
<path d="M132.611 75.9314L130.977 76.5553L127.899 78.4462L124.525 80.2846L118.074 84.014L112.213 87.8483L107.291 91.5445L105.447 93.3499L104.646 94.4265L102.75 96.5272L102.349 97.0655L101.601 97.8467L101.148 98.6804L100.453 99.1663L100 99.9999L100.105 99.4092L100.906 98.3326L101.253 98.0897L104.527 91.6632L106.844 87.1994L108.149 84.9938L115.36 70.1256L123.077 54.1283L127.538 42.7329L129.454 38.8074L130.917 35.7156L133.614 32.5383L134.362 31.7571L135.944 31.4286L136.239 31.481L136.83 31.586L136.778 31.8813L136.811 33.4107L136.844 34.94L136.667 37.6509L136.733 40.7096L136.523 41.8911L136.675 46.1838L136.584 50.1286L136.493 54.0734L136.258 62.2585L136.272 65.6125L136.285 68.9666L136.109 71.6775L136.194 72.9114L136.255 73.7825L132.611 75.9314Z" stroke="black"/>
<path d="M99.9551 99.1011L100.225 98.4869L100.465 97.2734L100.704 96.0599L101.154 93.0337L101.873 89.3933L102.368 87.266L103.701 83.8953L104.48 81.4534L105.574 79.2962L110.099 73.6635L111.822 72.0755L113.56 70.7873L114.429 70.1431L117.575 66.9822L118.363 65.8896L116.736 62.2181L114.444 58.4277L110.744 50.5024L109.756 48.7496L107.045 42.5771L105.726 40.24L105.022 38.1725L104.363 37.0039L104.049 36.7193L103.689 35.5357L103.674 35.2361L103.39 35.5507L103.165 37.0638L103 39.7754L102.595 49.7079L102.355 56.9289L102.205 59.9401L101.44 68.6892L101.275 77.4083L100.735 84.6442L100.405 90.0674L100.315 94.2771L100.09 95.7902L99.8953 97.9026L99.9551 99.1011ZM99.9551 99.1011L100 100" stroke="black"/>
<path d="M100.193 98.8156L100.385 97.6312L100.33 96.1025L100.323 94.2776L100.06 90.2838L100.149 87.8667L100.135 84.2171L100.616 81.256L100.801 78.2467L101.372 72.8686L101.504 71.4073L95.3535 72.4979L94.1209 72.6014L87.5655 73.6631L84.5081 73.7738L79.8257 74.5322L78.2489 74.8837L77.6567 74.7874L76.7202 74.9391L75.8318 74.7946L75.7837 75.0908L75.9835 75.7311L76.1833 76.3715L76.3831 77.0119L76.6311 77.3561L77.6711 78.437L80.1435 80.0548L82.616 81.6726L84.7923 83.2422L89.441 86.4296L91.8171 88.6395L94.2414 90.5534L94.9853 91.5862L96.8173 93.4038L98.1053 94.829L99.7929 97.5349L100.193 98.8156ZM100.193 98.8156L99.9999 100L100.048 99.7039L100.096 99.4078L100.193 98.8156Z" stroke="black"/>
<path d="M66.9465 65.2095L66.9521 65.5094L66.9689 66.4092L66.9856 67.3091L66.708 68.5145L66.736 70.0142L66.1696 71.8251L65.32 74.5414L63.9704 78.5545L60.9046 79.1244L55.2335 80.7302L47.1852 83.5806L43.6081 84.8474L40.331 86.1086L37.6539 87.3587L34.9655 88.0089L33.4769 88.6367L33.7825 88.9311L34.9823 88.9087L36.7875 89.1751L40.0925 89.4137L50.6075 90.118L66.5438 91.9216L83.1024 94.9138L93.9452 97.1123L95.1562 97.6898L97.8725 98.5394L99.0779 98.817L100 100L99.7001 100.006L99.089 99.4169L98.1668 98.2339L97.2391 96.7509L95.6835 93.7793L94.4334 91.1022L92.8834 88.4306L91.6333 85.7534L90.0889 83.3817L88.85 81.3044L87.9111 79.2215L86.6778 77.4442L86.3611 76.5499L83.9 73.2952L82.0724 71.829L79.3338 69.7796L76.6007 68.0302L75.3898 67.4526L75.0842 67.1583L72.9678 66.2975L72.3624 66.0088L71.4569 65.7256L70.5515 65.4424L69.6461 65.1592L68.7462 65.1759L68.4463 65.1815L67.8464 65.1927L67.2465 65.2039L66.9465 65.2095ZM66.9465 65.2095L66.6466 65.215" stroke="black"/>
<path d="M64.4336 93.9246L66.0001 94.1162L76.0795 95.6804L78.7475 96.0945L83.7872 96.8766L88.5304 97.6128L92.3843 98.2108L95.5992 99.0134L98.8142 99.8159L99.7035 99.9539L100 99.9999L99.954 100.296L98.3797 100.659L96.8514 100.726L95.6196 100.838L93.7029 101.451L93.3605 101.702L89.1845 103.179L86.8333 104.636L84.4821 106.092L79.0488 109.803L76.6516 111.556L74.5508 113.355L73.8659 113.856L72.4501 115.154L71.6731 116.248L70.8962 117.342L70.5077 117.889L70.5997 117.296L70.4873 116.064L70.2829 115.425L69.6236 113.805L69.0563 111.592L68.3305 108.443L67.3084 105.248L66.3782 101.461L64.6763 94.8215L64.4336 93.9246Z" stroke="black"/>
<path d="M71.4769 117.301L79.7363 112.291L84.3534 109.491L88.7139 106.846L93.844 103.734L96.409 102.178L98.461 100.934L99.487 100.311L100 100L99.8991 100.412L99.6426 100.568L99.2852 101.135L98.5704 102.271L97.4434 103.305L96.7833 105.109L94.5378 108.927L93.6674 109.806L92.6498 112.178L91.8887 114.394L90.2655 119.238L89.761 121.298L89.3573 122.946L89.2101 124.439L88.962 126.344L89.3278 127.526L89.7946 128.295L89.6937 128.707L88.5583 127.992L87.423 127.278L83.7605 125.289L81.6454 124.115L79.7868 122.787L77.5161 121.357L76.3808 120.642L73.5424 118.855L71.4769 117.301Z" stroke="black"/>
<path d="M81.1586 152.481L84.5223 143.848L87.6179 135.079L90.4138 127.158L92.6107 120.934L94.1252 115.742L96.838 107.155L97.2374 106.024L98.8351 101.498L99.2345 100.366L99.5341 99.5173L100 99.9999L100.366 100.765L101.464 103.062L102.097 104.876L103.195 107.172L106.506 113.113L108.536 116.375L110.749 120.019L113.062 123.381L114.993 126.926L117.855 131.435L120.434 135.845L121.915 137.959L124.411 141.703L125.243 142.951L125.792 144.1L125.126 144.183L124.278 143.883L123.429 143.584L121.715 143.933L117.621 144.715L114.759 145.613L111.514 146.695L103.876 149.407L99.2993 150.655L94.8229 151.62L87.9834 152.069L83.3239 152.652L81.1586 152.481Z" stroke="black"/>
<path d="M126.397 145.134L122.926 139.623L117.645 130.99L112.563 122.922L108.248 115.221L102.849 105.356L102.349 103.942L100 100L99.4998 98.5858L100.366 99.2342L101.231 99.8826L101.997 100.248L103.429 100.696L104.86 101.145L108.006 101.941L108.954 101.924L112 102.438L118.374 103.365L121.903 104.345L125.614 104.941L128.86 106.02L130.291 106.469L133.154 107.365L135.734 108.362L137.548 108.993L139.463 109.907L139.846 110.09L141.377 110.821L141.76 111.004L141.86 111.286L141.96 111.569L141.977 112.518L141.712 113.566L141.546 114.898L140.384 118.809L139.388 121.389L138.025 124.735L136.198 128.564L135.284 130.478L132.425 134.99L129.666 139.784L126.441 145.062L126.397 145.134Z" stroke="black"/>
<path d="M301.818 98.8267L303.396 98.2038L305.13 97.9756L307.654 97.4359L311.003 97.2547L312.738 97.0264L317.032 96.9284L321.721 96.6746L327.51 96.8987L344.365 98.0019L353.696 99.1092L359.962 100L359.761 99.4527L355.977 91.5959L355.234 90.2925L353.319 87.1715L351.595 85.115L350.147 83.178L348.854 81.6357L347.597 80.7632L346.736 79.7349L345.635 79.257L344.809 78.8986L343.984 78.5402L343.708 78.4208L343.314 78.5765L342.405 79.1631L341.221 79.6303L339.523 80.5284L337.825 81.4264L333.52 83.8092L332.217 84.5515L329.61 86.0362L326.608 87.6766L323.726 89.0419L320.725 90.6823L315.511 93.6517L313.299 94.9807L311.05 95.6398L308.288 96.7298L305.25 97.7004L304.58 97.7367L303.001 98.3595L301.818 98.8267ZM301.818 98.8267L301.423 98.9824L300.119 99.7248L300 100" stroke="black"/>
<path d="M332.831 83.791L325.257 87.4535L323.367 88.3677L314.724 92.5469L311.073 94.6454L308.102 96.082L303.241 98.4328L302.701 98.694L301.621 99.2164L300.81 99.6082L300.54 99.7388L300.27 99.8694L300 100L299.739 99.4598L299.225 97.7087L299.941 94.3638L300.786 91.2889L302.042 87.6828L303.567 83.9461L306.06 78.0754L307.855 74.208L309.782 70.6108L313.215 64.6183L314.714 62.8939L315.124 62.3626L315.812 61.03L316.352 60.7688L316.622 60.6382L317.928 63.339L320.689 67.6692L322.665 70.3789L327.551 76.3473L330.059 79.4665L330.982 80.6863L332.831 83.791Z" stroke="black"/>
<path d="M290.876 70.6967L292.553 72.5146L294.577 75.994L295 76.9893L295.855 80.0615L296.546 83.3846L298.014 90.4461L298.635 95.5171L299.153 98.0094L299.326 98.8402L299.42 100.337L299.256 100.588L299.342 101.003L299.671 100.502L300 100L300.736 98.3303L301.23 97.5777L302.46 95.1554L303.854 92.4822L305.326 89.1428L306.713 85.388L309.156 78.3801L310.628 75.0407L312.645 68.8362L306.927 69.7434L304.85 70.1751L296.785 70.9849L292.208 70.8531L290.876 70.6967ZM290.876 70.6967L290.625 70.5322" stroke="black"/>
<path d="M274.757 88.8636L275.253 88.2258L279.403 82.592L284.428 75.9422L287.38 72.1092L288.578 70.3083L289.339 69.0155L289.984 67.4458L289.868 67.1689L289.591 67.2845L289.707 67.5614L289.546 67.9538L289.384 68.3462L289.293 69.6848L289.317 71.3001L289.573 73.4692L290.753 77.8529L291.632 80.7369L293.944 86.2737L295.1 89.042L296.301 91.1412L297.226 93.3559L297.457 93.9095L298.151 95.5706L299.191 98.0621L299.653 99.1695L300 100L299.723 100.116L296.976 98.9868L295.06 97.5113L293.928 96.3583L292.52 95.3209L288.364 93.1547L285.617 92.0259L281.809 90.6902L274.757 88.8636Z" stroke="black"/>
<path d="M253.804 79.62L258.307 81.5111L269.968 87.06L280.871 91.3143L290.275 95.2644L291.935 95.9615L297.627 98.6778L299.17 99.6515L300 100L299.884 100.277L299.491 100.437L297.09 100.73L295.082 100.863L292.521 100.763L286.657 101.554L285.318 101.643L282.016 102.533L278.713 103.424L274.902 104.751L270.974 106.355L263.511 109.403L259.976 110.847L255.933 112.728L253.969 113.53L252.165 114.724L251.147 115.598L250.246 116.196L249.737 116.633L249.621 116.909L249.344 116.793L249.184 116.4L248.193 115.659L247.756 115.15L247.159 114.249L246.285 113.231L245.92 111.776L245.278 110.205L244.985 107.804L245.085 105.243L246.722 97.4703L248.581 93.0448L250.28 88.2266L251.209 86.0139L253.3 81.0352L253.804 79.62Z" stroke="black"/>
<path d="M168.814 144.032L174.383 142.806L185.428 139.968L209.885 132.309L237.096 122.491L252.66 116.244L262.906 112.137L276.36 106.366L285.056 102.951L286.886 102.367L293.109 101.216L295.607 100.566L297.33 100.262L297.997 100.197L300 100L299.332 100.066L298.945 100.238L297.222 100.542L295.78 100.954L294.057 101.258L292.507 101.949L290.677 102.533L286.415 104.435L283.316 105.818L274.75 110.569L267.305 115.749L260.742 120.303L253.792 125.03L247.122 129.864L233.716 138.865L222.331 145.106L220.18 146.531L215.703 148.993L211.787 151.669L208.646 154L205.397 156.611L203.203 158.983L200.408 162.089L199.097 163.835L197.892 165.302L196.688 166.768L194.28 169.701L193.464 170.994L192.367 172.18L191.097 172.979L190.71 173.152L190.537 172.765L189.178 171.28L186.418 169.26L184.218 167.454L181.327 164.098L180.594 163.496L176.213 157.32L171.808 149.53L169.799 145.548L168.814 144.032Z" stroke="black"/>
<path d="M203.982 164.269L205.599 163.437L223.353 153.546L241.912 142.39L250.787 136.163L253.839 134.052L262.714 127.825L271.133 122.09L278.36 117.445L284.744 113.118L293.233 106.716L294.881 105.133L297.265 102.953L300 100L300.244 98.9463L300.033 98.3848L299.646 98.2097L298.523 98.6326L297.575 98.669L296.172 99.1976L294.312 100.218L292.278 101.626L289.681 103.244L286.91 105.25L283.683 107.747L281.229 110.594L275.796 117.449L272.048 123.669L266.301 132.244L263.709 136.426L261.01 140.327L257.925 144.053L254.385 148.272L249.021 154.459L245.2 158.783L238.188 166.552L235.278 169.892L232.543 172.845L230.09 175.693L228.091 178.048L225.532 180.615L224.445 181.985L222.972 183.181L222.691 183.287L222.305 183.112L221.813 182.656L220.547 181.85L218.579 180.027L216.118 177.748L212.286 174.383L210.492 172.173L208.417 170.069L206.237 167.684L203.982 164.269Z" stroke="black"/>
<path d="M247.287 156.924L253.071 151.991L263.118 142.426L268.502 137.335L281.867 121.574L285.416 117.549L287.026 115.927L289.854 112.518L292.516 109.499L294.344 106.818L296.397 104.693L297.894 102.794L298.225 102.012L300 100L299.669 100.781L297.788 104.131L294.972 110.771L291.05 119.477L289.063 124.164L287.354 128.739L285.645 133.314L284.326 138.054L281.635 148.204L280.707 153.11L279.117 159.578L277.751 166.603L277.261 169.39L276.711 171.231L276.386 173.627L276.273 173.349L275.658 172.627L274.539 171.462L273.03 170.131L268.839 166.971L265.324 165.481L261.305 163.547L257.287 161.612L253.268 159.678L249.362 158.022L247.287 156.924Z" stroke="black"/>
<path d="M300.189 100.233L300.056 101.499L299.878 103.187L298.224 108.772L297.392 110.604L296.104 114.735L291.63 126.849L288.955 134.033L286.569 142.528L285.548 145.061L290.433 146.347L299.96 149.055L308.499 151.02L314.783 152.107L317.926 152.651L319.991 153.295M300.189 100.233L300 100M300.189 100.233L300.289 101.31L301.188 102.898L301.622 104.863L302.91 108.838L304.198 112.813L305.909 116.832L307.53 121.696L308.774 126.092L309.974 130.911L311.451 135.119L312.928 139.327L314.072 142.647L315.593 146.433L317.059 148.721L319.092 151.707L319.28 151.94L319.991 153.295M319.991 153.295L320.18 153.528" stroke="black"/>
<path d="M300.548 100.245L301.096 100.489L302.612 104.451L303.4 107.103L304.129 108.414L304.975 112.406L306.247 116.916L308.219 122.067L310.645 128.407L314.904 139.533L315.684 139.198L337.144 129.394L341.351 127.33L347.539 124.507L348.332 124.204L350.587 123.568L349.217 122.956L347.847 122.345L345.108 121.122L342.642 120.021L339.903 118.798L334.576 116.749L330.74 115.037L326.631 113.202L318.139 109.411L314.304 107.699L310.195 105.865L306.907 104.398L302.617 101.497L301.37 100.611L300.548 100.245ZM300.548 100.245L300.274 100.122L300 100L300.548 100.245Z" stroke="black"/>
<path d="M152.289 332.96L150.983 332.999L138.675 332.593L136.513 332.507L133.513 332.554L128.947 332.206L124.381 331.858L120.234 331.443L118.734 331.467L112.978 331.738L111.478 331.761L110.045 332.204L109.869 332.447L109.45 332.513L109.097 332.999L109.274 332.756L110.507 331.057L111.983 329.533L114.121 328.119L116.435 326.463L119.345 324.497L124.04 321.602L127.611 319.746L133.672 315.99L138.72 312.61L140.682 311.439L141.277 311.129L142.82 310.025L144.253 309.582L145.862 308.897L146.943 308.94L147.186 309.116L147.495 309.711L148.004 311.563L148.338 313.658L149.047 316.768L149.889 320.715L151.883 329.204L152.289 332.96Z" stroke="black"/>
<path d="M182.821 284.667L180.09 286.939L177.863 288.464L173.654 291.345L168.703 294.735L162.267 299.141L146.164 309.076L128.745 320.275L122.309 324.681L120.081 326.206L115.872 329.088L112.902 331.121L110.752 332.23L109.762 332.908L109.097 332.999L109.254 332.165L109.969 329.493L111.845 326.391L113.721 323.289L118.774 314.739L128.009 301.145L133.415 294.172L145.295 279.13L151.691 271.479L155.221 267.608L158.178 264.492L160.732 262.381L162.79 260.608L163.533 260.099L165.93 258.822L166.347 258.9L167.52 259.551L168.863 260.45L169.958 261.518L171.639 262.912L173.581 265.218L175.446 267.94L177.479 270.911L179.865 275.458L180.987 278.69L181.939 281.673L182.722 284.41L182.821 284.667Z" stroke="black"/>
<path d="M162.012 264.511L157.182 270.923L148.257 283.238L139.143 295.32L123.221 315.668L117.153 322.941L113.728 327.285L112.523 328.655L110.578 331.017L109.097 332.999L108.865 333.189L109.183 332.155L109.544 330.699L110.18 328.631L111.324 325.762L112.553 322.049L114.1 317.301L118.296 305.36L120.902 298.588L123.085 291.773L125.354 284.114L126.265 281.435L128.73 269.744L129.433 264.911L130.051 260.923L130.436 257.124L130.589 253.515L130.552 249.673L130.362 249.441L130.594 249.251L132.326 249L136.779 249.238L142.792 250.914L149.436 254.786L157.365 260.707L160.105 263.117L162.012 264.511Z" stroke="black"/>
<path d="M116.233 301.115L114.756 305.366L114.355 307.069L112.74 314.828L112.03 318.52L111.514 321.834L110.689 327.136L110.471 329.411L109.979 330.828L109.772 332.153L109.383 332.908L109.098 332.999L108.824 332.142L107.922 328.335L106.096 322.62L105.116 317.579L103.484 311.487L102.15 304.354L99.0937 290.844L97.4503 285.7L96.7199 283.414L94.4492 275.321L94.6437 274.944L95.0208 275.138L95.5923 274.956L96.6322 275.253L97.3864 275.642L98.7002 276.797L101.236 278.821L103.304 280.365L108.548 285.934L113.414 291.308L118.165 297.368L116.233 301.115Z" stroke="black"/>
<path d="M108.807 332.924L108.377 332.192L107.732 331.095L106.742 327.74L106.107 325.406L105.258 322.706L104.634 319.135L103.881 313.671L103.122 309.469L102.461 309.584L98.8151 310.499L94.8786 311.337L92.835 312.047L89.845 312.822L88.4576 313.392L88.0919 313.607L87.7262 313.822L87.1454 313.672L85.1771 314.091L84.8114 314.306L84.521 314.231L83.865 314.371L83.4993 314.586L83.7144 314.951L85.5966 316.059L86.898 317.016L88.8555 317.834L91.0282 319.017L93.1255 320.49L101.73 326.75L106.28 330.719L107.796 332.042L108.807 332.924ZM108.807 332.924L109.098 332.999" stroke="black"/>
<path d="M67.6233 338.166L71.5265 336.976L74.287 336.804L79.3289 336.098L83.2911 335.329L87.4927 334.74L91.5137 334.391L95.0556 333.681L98.8371 333.151L102.257 333.1L105.018 332.928L109.098 332.999L110.539 332.583L109.82 332.041L108.862 331.318L107.244 330.474L106.286 329.751L99.8785 325.294L95.8658 322.643L91.5546 319.391L82.6299 313.787L78.3776 310.955L76.8535 309.805L75.7307 313.468L74.5798 317.485L73.2481 321.741L71.8536 327.077L71.005 330.195L70.3372 333.073L68.4677 336.548L67.8039 337.926L67.6233 338.166ZM67.6233 338.166L67.4426 338.405" stroke="black"/>
<path d="M60.8352 339.263L63.9633 338.68L69.1818 337.666L75.8654 337.092L84.4256 335.792L94.1523 334.902L104.206 333.742L107.249 333.427L107.875 333.185L109.098 332.999L109.396 333.027L108.416 333.839L106.482 335.163L104.251 336.459L100.74 338.538L93.6894 342.994L92.1114 343.749L87.6761 346.043L83.8382 348.392L79.7016 350.713L73.305 354.629L72.0257 355.412L70.1208 356.438L68.8134 357.52L67.8327 358.331L67.32 357.379L66.8073 356.426L66.0523 354.848L64.0861 350.143L62.8748 347.015L60.8352 339.263Z" stroke="black"/>
<path d="M54 366.823L55.6998 365.95L69.6523 357.668L82.6636 349.269L88.1386 346.038L90.3169 344.688L94.3793 342.044L98.1474 339.459L101.15 337.639L103.917 336.171L105.801 334.878L106.625 334.408L109.097 332.999L109.215 333.587L108.564 336.47L107.209 338.881L105.381 341.997L102.966 345.23L100.315 348.816L97.4275 352.755L94.1877 356.459L89.8279 362.22L86.8824 365.864L84.4667 369.098L82.2868 371.979L80.4012 374.801L78.9869 376.917L78.574 377.917L77.9839 379.564L77.9238 380.799L77.8036 383.27L77.9792 384.153L77.3907 384.27L76.0967 383.915L71.8619 382.617L66.4518 380.022L63.6883 378.431L62.5714 377.43L59.985 375.191L57.9871 372.836L55.9307 370.186L54.4627 367.419L54 366.823Z" stroke="black"/>
<path d="M114.867 369.161L109.775 369.755L108.571 370.036L105.621 370.204L100.262 370.934L97.8533 371.498L95.5816 372.328L93.7064 372.617L92.2352 373.036L89.6892 373.333L88.6145 373.211L87.5397 373.088L86.5947 372.562L86.1907 372.433L85.7867 372.303L85.6496 372.036L85.5125 371.769L86.4351 370.283L87.0909 368.934L87.6171 367.989L90.9187 363.256L95.5394 356.496L98.048 352.845L99.5043 351.085L102.143 347.03L104.651 343.38L107.534 337.176L108.838 333.807L108.968 333.403L109.097 332.999L109.235 333.266L110.743 336.201L113.075 340.737L113.905 343.008L115.002 345.143L115.84 348.085L116.678 351.028L116.693 352.369L116.997 355.586L117.171 359.207L116.194 367.805L116.126 369.073L114.867 369.161Z" stroke="black"/>
<path d="M116.193 369.415L114.972 364.762L114.011 359.717L113.22 357.067L112.259 352.022L110.678 342.511L109.568 335.372L109.098 332.999L109.034 332.101L109.012 331.802L110.337 333.512L111.641 334.923L112.987 336.932L114.334 338.942L116.642 341.785L119.27 344.905L122.198 348.005L127.434 353.948L128.695 354.76L130.64 356.727L133.825 359.206L135.663 359.677L135.962 359.655L135.086 360.019L132.457 361.108L130.447 362.455L128.139 363.822L125.531 365.211L122.624 366.622L118.263 368.737L116.193 369.415Z" stroke="black"/>
<path d="M149.709 336.814L148.881 341.807L147.577 346.513L146.922 348.531L146.019 353.099L145.111 356.998L143.278 362.781L142.882 363.589L142.624 364.799L142.365 366.009L142.095 365.877L141.557 365.612L141.15 365.079L140.743 364.546L139.116 362.412L137.759 360.41L136.132 358.276L134.373 356.412L132.476 354.146L131.531 353.349L128.277 349.081L126.65 346.947L125.16 345.215L122.049 342.02L120.428 340.557L118.674 339.363L116.92 338.169L116.513 337.636L115.167 336.976L112.467 334.985L110.175 333.527L109.906 333.395L109.097 332.999L109.499 332.862L110.17 332.856L110.84 332.851L111.242 332.714L112.045 332.439L113.656 332.56L115.399 332.412L120.765 332.37L128.144 332.311L132.306 332.681L136.738 333.182L141.037 333.953L144.534 334.998L146.282 335.521L149.709 336.814Z" stroke="black"/>
<path d="M297.661 312.214L295.553 312.266L291.921 312.626L288.01 312.668L284.398 312.729L277.194 312.552L273.582 312.613L272.983 312.573L272.085 312.514L272.105 312.214L273.961 311.435L275.497 310.936L277.353 310.157L278.929 309.059L281.123 307.701L283.039 306.024L287.188 302.391L287.846 301.532L289.462 299.835L291.058 298.438L292.355 297.021L293.033 295.863L293.053 295.564L294.07 293.827L294.448 292.65L294.468 292.35L294.788 292.071L294.807 291.771L295.087 292.091L295.626 293.028L296.984 295.223L297.463 297.059L297.864 300.092L297.804 300.99L297.746 306.398L297.847 309.411L297.661 312.214Z" stroke="black"/>
<path d="M294.083 292.424L293.777 292.792L287.833 299.208L286.254 300.593L283.521 303.391L281.041 305.568L278.786 307.547L275.179 310.714L273.601 312.099L273.15 312.495L272.501 312.665L272.105 312.214L272.243 310.097L272.353 308.404L273.14 306.117L273.756 303.181L274.598 300.047L275.665 296.715L275.973 295.247L277.041 291.915L277.657 288.979L278.471 286.269L279.032 284.179L279.566 282.513L279.847 281.469L280.072 281.271L280.891 281.749L283.123 283.383L285.158 284.791L287.362 286.848L290.611 289.185L294.083 292.424Z" stroke="black"/>
<path d="M280.327 279.563L280.306 279.872L279.958 282.911L279.519 286.236L277.701 293.845L276.883 297.364L275.781 300.791L274.678 304.218L273.483 307.93L272.84 309.929L272.381 311.357L272.105 312.214L271.727 312.408L271.442 312.316L271.156 312.224L270.3 311.948L269.728 311.765L267.903 309.601L266.557 307.908L264.621 304.133L261.522 298.093L260.064 294.788L258.606 291.483L257.057 288.463L255.987 285.913L255.691 284.872L254.815 282.699L253.367 280.342L253.459 280.057L254.877 279.568L257.234 278.12L260.345 276.285L262.049 275.888L263.661 275.776L265.558 275.756L270.403 276.37L274.401 277.656L280.112 279.494L280.327 279.563Z" stroke="black"/>
<path d="M238.184 302.063L238.686 300.504L241.426 290.04L243.174 284.614L243.91 282.33L245.197 278.332L246.301 274.906L247.221 272.05L247.874 271L248.465 273.081L248.576 274.693L248.687 276.305L249.592 281.324L250.487 285.394L250.893 288.047L251.779 291.168L252.471 293.913L253.826 296.555L256.516 299.944L258.341 302.107L260.451 304.363L262.459 305.955L264.468 307.548L267.904 309.6L268.383 310.07L270.484 311.377L271.34 311.653L272.105 312.214L272.013 312.5L271.635 312.693L271.258 312.887L269.932 313.09L268.32 313.201L266.423 313.22L261.385 312.228L258.243 311.216L256.816 310.756L248.912 307.895L245.098 306.036L241.091 303.8L238.184 302.063Z" stroke="black"/>
<path d="M233.079 329.857L234.421 328.357L235.606 327.437L236.053 326.937L237.895 325.885L239.817 324.544L241.948 323.571L247.606 321.073L251.869 319.128L254.658 318.023L257.658 317.288L260.369 316.473L263 315.947L267.684 314.739L269.368 314.266L270.473 313.634L271.579 313.003L272.026 312.504L272.105 312.214L271.816 312.135L269.08 310.766L267.422 310.002L263.949 309.054L260.766 308.185L257.293 307.236L253.82 306.288L249.769 305.182L246.006 304.154L242.534 303.206L240.797 302.732L236.456 301.546L235.587 304.73L234.928 308.282L233.899 315.464L233.794 316.991L233.951 319.832L233.897 322.306L233.633 324.41L233.449 326.226L233.422 327.462L233.158 329.567L233.079 329.857ZM233.079 329.857L233 330.146" stroke="black"/>
<path d="M238.341 327.697L238.432 327.661L241.297 326.023L242.339 325.428L246.655 323.306L248.217 322.413L251.752 320.738L258.412 317.277L264.18 314.671L264.961 314.224L266.933 313.443L268.384 312.959L269.314 312.773L270.096 312.326L270.245 312.586L270.505 312.438L271.175 312.4L271.845 312.363L272.105 312.214L272.254 312.475L272.031 313.293L271.398 314L271.175 314.819L269.576 317.461L268.608 319.396L267.381 321.48L266.153 323.564L264.814 326.057L263.772 329.072L262.582 331.825L262.359 332.644L261.28 334.988L260.387 338.263L259.941 339.9L259.718 340.719L259.606 341.128L259.495 341.538L257.857 341.091L256.629 340.757L253.466 339.455L251.792 338.339L249.708 337.111L248.74 336.627L243.568 333.019L241 330.34L238.581 327.921L238.341 327.697Z" stroke="black"/>
<path d="M272.738 341.877L269.428 342.74L263.359 344.702L259.536 345.997L257.921 345.955L257.646 345.837L257.764 345.561L259.068 342.53L260.135 340.049L261.438 337.018L261.912 335.915L265.112 328.474L266.89 324.34L268.312 321.033L269.616 318.002L270.564 315.797L271.394 313.868L271.868 312.765L271.986 312.49L272.105 312.214L272.381 312.333L272.695 313.121L272.733 313.791L273.32 316.982L273.593 319.385L274.141 321.907L274.177 324.862L274.37 328.21L274.72 331.953L274.833 336.247L274.945 340.54L274.995 341.409L272.738 341.877Z" stroke="black"/>
<path d="M276.705 358.675L276.501 357.574L275.752 355.123L275.357 351.792L274.682 348.143L273.425 339.348L272.525 334.483L272.073 327.241L272.053 322.731L271.863 316.107L271.975 314.31L272.012 313.711L272.105 312.214L272.704 312.251L273.003 312.27L273.584 312.607L274.445 313.261L275.324 313.616L278.151 316.497L280.416 318.742L282.981 321.005L286.107 323.905L289.252 326.505L292.416 328.805L293.857 329.797L296.44 331.761L298.742 333.406L301.906 335.707L302.205 335.726L302.767 336.362L301.458 338.084L300.822 338.645L297.567 342.651L293.04 347.781L290.159 350.607L286.998 353.116L283.555 355.307L280.113 357.498L276.705 358.675Z" stroke="black"/>
<path d="M341.315 333.254L340.905 333.365L339.976 333.177L338.636 333.1L337.446 332.763L332.647 332.084L329.636 330.702L328.185 330.216L324.244 328.646L320.042 326.926L315.58 325.057L310.858 323.039L306.098 321.691L296.577 318.994L289.027 317.083L284.266 315.734L279.915 314.275L274.374 312.479L274.114 312.329L272.775 312.253L272.515 312.103L272.365 312.363L272.105 312.214L271.956 312.474L272.216 312.624L272.327 313.033L272.698 313.592L273.329 314.3L274.592 315.717L276.114 317.282L278.418 319.296L285.217 324.927L293.095 330.486L300.564 336.156L309.074 342.423L318.364 349.138L327.134 355.554L327.206 355.609L329.596 352.47L332.693 347.676L334.037 345.334L335.381 342.992L337.134 340.539L338.179 338.718L338.926 337.417L339.672 336.116L340.419 334.815L341.016 333.774L341.166 333.514L341.315 333.254ZM341.315 333.254L341.575 333.403L341.724 333.143L341.464 332.994L341.315 333.254Z" stroke="black"/>
<path d="M549.496 111.184L547.363 111.485L545.02 112.082L539.544 112.747L533.491 113.251L525.622 113.565L518.412 113.749L504.601 113.042L494.499 112.427L489.344 111.935L485.505 111.184L485.216 111.104L484.927 111.024L485.087 110.446L485.567 108.711L486.754 107.794L487.941 106.878L493.238 104.608L497.139 102.885L501.328 101.243L511.473 97.2006L518.615 93.8847L523.334 91.4546L527.603 89.5229L530.925 87.6403L533.798 86.2561L536.462 84.5028L537.938 83.6661L538.837 82.6695L539.815 81.3837L539.895 81.0946L539.975 80.8054L540.184 81.1745L541.937 83.8383L542.903 85.9731L544.447 88.2678L546.847 94.2229L548.249 99.2798L548.815 102.86L549.381 106.441L549.498 110.519L549.496 111.184Z" stroke="black"/>
<path d="M507.633 79.6492L511.256 80.1848L515.147 80.5862L519.172 80.585L527.892 79.9117L531.917 79.2397L535.673 78.7019L537.149 78.299L541.71 77.3585L543.32 77.2239L543.723 77.3579L544.125 77.492L544.259 77.7603L543.991 78.5653L541.711 80.7126L541.041 81.3836L538.76 82.8601L535.943 84.605L532.992 86.7525L527.761 89.7057L519.578 94.1355L514.883 96.8201L510.456 99.3705L506.164 101.518L501.603 103.801L499.993 104.606L492.481 108.365L490.066 109.573L488.457 110.378L486.847 111.184L485.908 111.318L485.639 111.453L485.505 111.184L485.774 111.05L486.31 110.111L486.981 109.44L487.919 108.634L488.322 108.098L488.992 106.756L491.943 103.937L495.43 100.18L497.844 96.9592L499.722 94.6779L501.197 92.2625L503.745 88.6394L504.818 86.7607L505.891 84.8821L506.829 82.7352L507.559 79.6306L507.633 79.6492Z" stroke="black"/>
<path d="M502.889 86.8337L496.943 95.939L494.232 99.773L492.205 103.105L490.313 105.547L488.764 107.738L486.531 110.431L485.847 110.933L485.802 111.23L485.505 111.184L485.641 110.295L485.868 108.812L486.367 105.55L486.867 102.288L488.092 94.281L488.41 92.2052L489.09 87.757L489.862 82.7156L491.611 73.2715L492.382 68.2302L493.995 59.6757L494.585 55.8206L495.039 52.8551L495.22 51.6689L495.493 49.8896L495.629 49L495.925 49.0454L496.633 50.3677L496.839 51.0062L498.37 54.8824L499.148 57.7329L501.136 62.5896L502.577 67.0589L505.322 76.8872L506.566 81.0504L502.889 86.8337Z" stroke="black"/>
<path d="M478.751 68.7385L484.963 61.6944L487.625 58.6755L491.677 55.094L492.931 53.8745L493.665 53.4482L494.322 53.3119L494.612 53.3887L494.902 53.4656L494.671 54.3355L494.654 55.5724L494.773 57.466L494.721 61.1764L493.806 69.3136L493.447 74.184L492.797 78.9775L490.919 88.411L490.423 92.6246L488.195 101.034L486.965 105.674L486.274 108.284L485.659 110.604L485.505 111.184L485.215 111.107L484.439 109.35L484.226 108.983L483.451 107.226L482.905 104.599L481.857 101.528L481.116 97.2967L479.539 90.3616L476.736 77.5151L475.984 72.2218L478.751 68.7385Z" stroke="black"/>
<path d="M461.296 75.2327L462.921 70.8269L464.578 66.7192L466.236 62.6116L468.888 56.5827L469.882 54.6614L470.313 53.1045L470.545 52.475L470.843 52.442L471.142 52.4089L471.208 53.0053L471.638 54.1649L471.704 54.7613L473.194 60.0292L473.922 63.8724L476.205 73.5799L476.801 76.2304L479.482 86.7994L481.732 96.2087L482.493 100.35L483.221 104.193L484.181 107.407L485.472 110.886L485.505 111.184L485.207 111.217L483.849 109.859L482.822 108.765L481.464 107.406L480.073 105.75L477.656 102.999L475.867 100.481L471.562 94.3178L466.76 86.3987L463.846 81.8923L462.422 79.9374L460.641 77.1209L461.296 75.2327Z" stroke="black"/>
<path d="M456.591 71.5715L457.151 72.1486L461.051 77.1686L463.943 81.5373L466.583 85.7433L467.858 87.6388L470.572 91.178L472.96 95.2211L474.918 98.2719L477.038 101.071L480.182 105.602L480.776 106.343L482.214 107.986L483.563 109.215L485.505 111.184L484.749 110.696L483.579 110.297L479.562 108.773L474.197 106.021L471.263 104.482L466.979 101.715L463.955 99.7609L460.842 97.3925L457.314 95.1132L453.86 92.1672L450.333 89.888L444.611 85.4767L443.603 84.8255L439.571 82.2206L438.222 80.9918L437.214 80.3406L436.621 79.6002L437.198 79.2591L438.354 78.5767L440.427 78.1309L446.886 75.8744L449.448 74.6726L452.1 73.8855L454.662 72.6837L455.817 72.0014L456.591 71.5715Z" stroke="black"/>
<path d="M443.057 83.7589L451.252 87.6129L456.856 90.4128L462.267 93.8552L467.241 96.8866L471.354 99.5198L475.479 102.577L480.042 106.046L483.976 109.745L485.068 110.773L485.287 110.979L485.505 111.184L485.3 111.403L485.094 111.621L483.398 111.673L481.483 111.519L478.707 110.968L475.507 110.429L471.665 109.697L462.489 108.068L457.798 107.362L451.193 106.503L447.145 105.99L443.521 105.465L440.539 105.131L438.201 104.991L437.352 105.016L435.862 104.85L433.947 104.696L433.715 104.066L433.702 103.642L433.677 102.794L434.434 99.7999L435.025 98.2962L436.232 96.137L439.032 90.5334L443.057 83.7589Z" stroke="black"/>
<path d="M427.159 103.842L430.458 103.918L433.45 104.286L441.541 104.772L460.108 106.399L467.279 107.765L472.664 108.488L476.856 108.885L480.734 109.874L482.827 110.222L484.312 110.857L485.505 111.184L485.498 111.484L481.572 112.594L478.259 113.118L474.039 113.921L471.933 114.173L466.814 114.956L456.268 116.814L451.142 117.896L446.03 118.379L439.704 119.434L433.691 119.896L431.578 120.448L430.379 120.42L429.179 120.393L428.886 120.086L428.893 119.786L428.613 118.879L428.334 117.973L427.762 116.759L427.503 114.953L427.252 112.846L427 110.74L427.145 104.442L427.159 103.842Z" stroke="black"/>
<path d="M447.958 116.848L453.432 115.289L458.997 114.394L464.562 113.5L474.363 111.892L480.762 111.154L482.756 110.882L484.502 110.779L485.336 110.936L485.505 111.184L485.01 111.523L482.623 113.879L480.067 115.988L478.581 117.003L470.327 123.004L465.711 126.884L460.756 130.268L456.388 133.978L452.515 137.35L447.482 141.151L444.678 143.429L439.971 146.644L438.485 147.659L437.494 148.336L437.977 146.916L438.382 145.913L438.944 144.076L439.27 143.49L439.832 141.653L441.361 136.976L441.832 134.474L442.551 131.803L443.988 126.462L444.943 122.54L446.342 117.341L447.958 116.848Z" stroke="black"/>
<path d="M461.381 147.326L457.397 148.586L453.929 149.05L447.65 149.84L444.839 150.164L440.575 150.112L440.154 150.065L438.749 149.267L438.188 148.563L438 148.329L438.048 147.907L438.751 147.346L441.565 145.1L442.268 144.539L444.613 142.668L447.427 140.422L450.897 138.037L454.648 135.043L458.635 131.861L460.51 130.364L468.717 123.815L475.704 118.622L478.94 116.424L481.519 114.365L483.395 112.868L484.098 112.307L485.505 111.184L485.692 111.419L484.942 112.402L484.143 113.806L481.749 118.02L481.185 119.238L479.12 122.421L476.539 126.401L473.91 130.802L470.999 135.811L468.088 140.821L464.586 146.589L461.381 147.326Z" stroke="black"/>
<path d="M466.627 162.122L465.165 162.808L462.225 163.755L456.55 165.432L455.921 165.665L455.278 165.474L454.43 165.503L453.992 165.093L453.773 164.888L453.907 162.549L454.097 161.906L454.874 159.757L456.046 156.746L460.454 148.957L463.075 144.836L467.102 138.334L472.534 129.449L475.155 125.328L480.235 118.578L482.46 115.319L484.686 112.061L485.286 110.979L485.505 111.184L484.728 113.333L484.361 115.043L483.232 119.326L482.836 120.188L482.512 123.171L481.558 126.387L480.619 130.026L478.374 139.016L477.464 143.504L473.802 158.64L466.627 162.122Z" stroke="black"/>
<path d="M485.224 161.292L479.364 169.361L476.502 172.781L474.336 175.179L472.483 176.733L469.578 178.538L468.807 178.893L468.69 176.611L468.721 175.663L468.99 173.204L469.466 170.182L469.766 166.775L470.273 162.804L471.881 154.124L472.713 151.872L473.636 146.776L474.84 141.785L477.396 133.134L478.852 129.194L480.203 125.536L481.555 121.878L483.218 117.375L484.258 114.561L485.401 111.466L485.505 111.184L485.934 112.622L486.007 113.289L486.418 118.237L486.785 121.571L487.226 125.572L487.636 130.521L487.93 133.188L488.206 139.367L488.66 145.93L488.979 153.724L489.115 156.666L485.224 161.292Z" stroke="black"/>
<path d="M488.798 152.673L488.13 150.315L486.592 145.452L485.912 140.318L484.251 131.09L484.28 129.192L483.766 125.579L483.824 121.785L484.198 116.003L484.618 113.353L485.31 111.561L485.505 111.184L485.882 111.38L486.725 112.057L486.816 112.343L488.684 114.269L490.447 116.858L491.833 119.251L493.687 122.126L495.345 125.377L497.47 129.11L499.971 133.039L502.277 137.344L506.979 146.24L508.185 148.061L510.972 151.899L515.146 158.13L516.909 160.719L518.4 162.45L518.958 163.217L520.163 165.039L519.787 164.843L518.748 164.542L517.332 164.046L515.254 163.445L513.086 162.558L507.709 160.483L504.592 159.581L500.917 157.912L495.827 155.746L491.866 154.167L488.798 152.673Z" stroke="black"/>
<path d="M504.383 140.603L499.963 134.763L496.021 129.394L490.155 121.196L488.231 118.368L485.827 115.071L484.566 112.142L484.658 111.856L485.505 111.184L486.647 111.553L489.309 112.096L496.253 114.022L500.913 115.211L505.767 116.777L510.906 118.435L516.045 120.093L518.044 120.738L526.609 123.502L530.035 124.608L532.89 125.529L536.316 126.635L536.601 126.727L536.325 127.583L535.293 128.826L533.976 129.978L532.281 131.322L529.831 133.053L526.525 134.508L525.392 135.088L521.33 136.93L512.166 140.908L507.634 143.228L506.469 143.76L504.383 140.603Z" stroke="black"/>
<path d="M122.987 462.93L126.603 465.306L130.219 467.682L133.535 470.06L139.555 473.02L141.663 474.206L143.469 475.094L144.074 475.99L144.676 476.286L144.98 476.884L144.982 477.184L143.185 477.496L141.085 477.51L138.387 477.828L135.687 477.846L126.387 477.908L124.887 477.918L117.387 477.968L113.785 477.692L110.185 477.716L106.885 477.738L101.783 477.472L100.581 477.18L100.281 477.182L99.9814 477.184L100.875 476.278L102.067 475.07L103.859 473.858L104.455 473.254L107.145 471.736L114.017 467.49L122.649 462.688L122.987 462.93Z" stroke="black"/>
<path d="M134.448 455.143L128.371 459.658L119.923 465.406L115.731 467.981L112.166 470.321L108.932 472.394L105.069 474.703L102.855 475.677L99.9814 477.184L100.013 476.886L100.044 476.587L101.159 474.593L101.913 473.164L102.698 471.437L104.111 469.474L105.257 467.181L105.649 466.318L108.931 460.931L110.768 457.806L112.338 454.352L113.578 451.164L115.148 447.709L116.655 444.851L118.854 441.161L120 438.868L120.785 437.141L121.695 434.22L121.994 434.251L122.417 433.089L122.716 433.121L122.684 433.419L123.485 434.408L124.522 436.026L126.155 437.706L129.029 441.93L129.531 442.887L131.071 445.462L133.458 451.445L134.337 454.554L134.448 455.143Z" stroke="black"/>
<path d="M116.698 444.331L114.382 449.687L111.061 456.311L105.376 467.483L103.036 471.609L102.344 472.635L101.163 474.91L99.9815 477.184L99.6912 474.62L99.7579 473.349L99.7794 468.889L99.5114 465.901L99.0648 462.266L98.9307 460.772L98.6398 454.172L98.7502 448.018L98.5044 444.606L98.4593 441.417L97.6557 436.489L97.6779 436.066L97.3209 434.772L96.7632 433.256L97.1647 433.702L99.4393 434.883L101.513 435.842L103.587 436.8L105.862 437.982L111.013 441.014L113.913 442.44L115.139 443.354L116.698 444.331Z" stroke="black"/>
<path d="M80.1527 456.589L83.5253 453.154L86.4185 450.154L90.4664 446.828L94.3071 443.872L95.8761 442.805L96.6606 442.271L97.4451 441.738L97.3635 441.449L97.6522 441.367L97.9409 441.286L98.0225 441.575L98.1856 442.152L98.512 443.307L99.1647 445.616L99.3279 446.194L99.3217 448.378L99.3971 450.85L99.347 453.982L99.0082 457.195L98.5878 460.12L98.613 465.724L98.6445 469.145L98.5567 471.04L98.9647 472.484L99.084 474.009L99.4103 475.163L99.6552 476.029L99.8999 476.895L99.9815 477.184L99.6112 476.977L99.1594 476.481L98.1301 476.149L95.8268 474.617L94.264 473.5L92.5381 471.806L90.3603 469.616L88.1009 467.137L85.967 463.999L81.5737 458.382L80.1527 456.589Z" stroke="black"/>
<path d="M71.6981 447.808L76.0967 451.445L80.2181 455.11L83.6687 458.768L86.988 462.157L90.3073 465.545L92.9557 468.927L97.0633 473.934L97.7271 474.612L99.5804 477.046L99.9814 477.184L99.442 477.447L97.5611 477.696L97.2914 477.827L95.687 477.274L93.5502 476.313L91.282 475.082L88.6128 473.712L85.003 472.468L81.1305 470.683L74.0493 467.793L70.4395 466.548L69.2363 466.133L66.2904 465.566L61.3321 464.978L59.8592 464.694L59.5895 464.825L57.9782 464.943L57.8468 464.673L58.2548 464.141L59.0709 463.076L60.1566 461.88L61.6503 460.151L63.1511 457.751L67.3626 452.696L69.6724 449.903L71.6981 447.808Z" stroke="black"/>
<path d="M54 463.784L57.8589 464.604L62.9265 465.378L75.6794 468.392L80.7157 469.836L85.3436 471.396L92.7358 474.159L95.7618 475.509L98.5261 476.713L99.8349 477.446L99.9814 477.184L100.243 477.331L100.097 477.592L99.657 478.378L98.9556 479.017L96.066 480.493L94.1396 481.478L88.9153 484.054L86.0258 485.53L82.7279 487.122L75.0537 490.39L69.8294 492.966L67.6412 493.804L66.678 494.296L63.642 496.034L62.2704 496.642L61.0142 497.658L60.4593 498.035L60.051 498.15L59.9044 498.412L59.6426 498.265L59.3809 498.118L59.1505 497.302L58.8047 496.077L57.1291 491.701L56.0396 486.277L55.3796 483.157L54.6044 479.629L54.0375 465.903L54 463.784Z" stroke="black"/>
<path d="M55.8754 500.546L59.1566 498.063L65.6699 492.75L75.7269 486.564L80.6517 484.08L85.024 482.241L92.9171 479.23L94.0906 478.839L96.7599 478.334L98.8308 477.874L99.9815 477.184L100.58 477.138L100.603 477.438L100.993 478.611L100.556 480.751L99.8185 482.913L98.5062 485.421L96.6414 488.573L92.0603 495.543L89.6202 499.039L85.799 504.146L80.5509 510.265L78.6403 512.818L76.7068 515.072L75.0724 517.304L73.9446 518.293L73.438 519.535L72.8168 519.282L72.1957 519.028L69.6423 517.118L68.0551 516.036L66.4678 514.954L65.1568 513.55L63.5466 512.169L62.2126 510.466L59.8897 507.635L58.4871 505.034L56.7623 502.157L55.8754 500.546Z" stroke="black"/>
<path d="M74.0773 518.515L77.8896 512.373L87.2509 497.804L91.0443 491.766L93.9504 486.974L95.0693 485.098L97.0883 481.552L99.3128 478.225L99.9814 477.184L100.392 477.621L100.804 478.058L101.613 479.357L102.203 480.86L102.781 482.788L103.857 489.188L104.794 493.249L105.42 500.485L105.907 505.381L105.969 510.264L105.607 515.134L105.477 519.375L105.154 522.973L105.063 525.941L105.242 527.008L105.177 529.128L104.894 531.454L104.47 531.441L102.992 531.184L98.5848 529.563L97.3256 529.099L94.3962 527.736L90.8242 526.565L82.6657 522.707L78.2717 520.662L74.3017 518.63L74.0773 518.515Z" stroke="black"/>
<path d="M105.715 540.524L104.69 531.31L103.48 519.958L102.987 516.379L101.809 505.627L101.011 496.357L100.367 484.374L100.142 480.18L100.062 478.682L99.9814 477.184L100.329 478.067L100.977 478.933L101.672 480.699L102.7 483.047L103.759 485.994L106.226 492.772L107.617 496.302L109.025 500.132L112.754 508.044L114.461 511.858L115.456 513.607L118.539 520.652L120.925 525.931L121.653 528.296L122.996 530.928L123.36 532.11L123.724 533.292L123.756 533.891L123.772 534.191L123.489 534.506L123.189 534.522L123.205 534.822L122.055 535.785L120.022 537.096L118.84 537.46L115.278 538.252L113.213 538.964L110.249 539.724L108.768 540.104L105.715 540.524Z" stroke="black"/>
<path d="M126.047 538.782L122.568 530.868L114.321 512.666L110.972 504.586L109.655 501.222L103.331 485.264L101.928 481.613L100.869 479.111L100.44 477.673L99.9814 477.184L100.269 477.098L100.844 476.927L101.505 477.043L102.337 477.734L103.628 478.914L105.953 480.412L111.375 485.995L116.54 490.716L120.212 494.63L124.63 498.947L129.048 503.264L132.72 507.178L136.594 510.719L137.971 512.186L140.926 514.748L143.423 516.821L145.46 518.405L147.125 519.787L148.703 520.881L148.789 521.169L148.386 521.915L146.6 524.326L143.922 527.943L141.965 529.778L139.923 531.327L137.305 533.047L134.027 534.651L130.547 536.628L126.047 538.782Z" stroke="black"/>
<path d="M148.697 520.876L144.17 517.149L137.373 511.373L129.607 505.117L115.454 493.194L109.627 487.898L108.058 486.379L102.45 480.262L100.991 478.333L99.9815 477.184L99.8315 476.924L100.091 476.774L101.131 476.175L101.95 476.395L104.559 477.314L107.467 478.753L111.345 480.671L115.373 482.85L126.038 488.126L137.892 493.063L142.439 494.941L144.378 495.901L151.534 498.699L154.253 499.208L156.302 499.758L157.121 499.978L158.87 500.008L159.02 500.267L159.28 500.117L159.06 500.937L158.401 503.396L156.672 508.203L155.083 510.852L152.315 516.259L150.576 518.648L149.947 519.357L148.697 520.876Z" stroke="black"/>
<path d="M326.498 459.219L325.854 460.396L325.221 461.273L324.566 462.749L323.277 465.103L322.311 466.868L320.734 468.911L319.445 471.265L317.568 473.296L315.68 475.627L314.081 478.27L309.971 483.821L307.117 487.917L303.363 491.98L301.83 492.824L300.587 493.978L299.965 494.556L299.043 495.122L298.421 495.699L297.2 496.254L296.578 496.831L296.267 497.12L296.255 497.419L297.155 497.453L298.354 497.498L301.363 497.31L314.277 497.19L316.675 497.279L322.97 497.514L336.783 497.428L341.274 497.498L340.459 495.464L336.642 485.114L334.733 479.94L333.923 477.508L331.981 473.233L329.539 466.237L328.718 464.105L327.875 462.572L327.031 461.04L326.487 459.519L326.498 459.219ZM326.498 459.219L326.51 458.919" stroke="black"/>
<path d="M309.576 480.966L306.677 484.355L303.37 489.307L302.144 491.578L301.178 493.514L300.175 495.152L299.692 496.12L299.47 496.752L298.652 497.46L298.354 497.498L298.317 497.2L297.831 495.749L297.606 493.963L296.709 489.239L296.372 486.56L295.699 483.621L295.362 480.942L295.024 478.263L294.912 477.37L294.574 474.691L294.274 472.31L294.012 470.227L293.34 467.288L292.929 466.432L292.594 466.172L292.557 465.874L293.227 466.395L294.903 467.695L297.546 469.479L300.19 471.263L305.105 474.272L307.748 476.056L310.689 477.802L312.162 478.578L309.576 480.966Z" stroke="black"/>
<path d="M286.53 433L287.419 434.89L289.666 440.163L293.628 453.069L294.61 455.654L295.783 462.135L296.596 467.848L297.227 473.177L297.498 477.739L297.588 481.916L297.892 489.041L298.083 492.936L298.196 496.165L298.072 497.396L298.354 497.498L298.252 497.78L297.97 497.678L297.79 497.294L297.169 495.477L296.988 495.093L296.728 494.043L295.724 492.405L294.719 490.768L293.534 488.747L292.066 486.624L290.136 484.016L285.71 478.596L283.136 475.118L280.664 471.358L276.002 463.94L274.997 462.302L273.372 458.847L270.278 453.269L267.626 449.126L266.158 447.003L265.232 446.032L262.997 444.27L261.687 443.48L261.044 442.61L259.553 441.436L259.271 441.334L259.091 440.95L259.373 441.052L259.474 440.77L259.757 440.871L259.858 440.589L261.01 440.047L262.546 439.325L264.364 438.704L266.565 437.903L271.917 436.322L278.014 435.329L281.266 434.268L284.416 433.49L285.466 433.23L286.53 433Z" stroke="black"/>
<path d="M261.635 444.615L265.713 450.264L269.636 455.947L276.471 466.604L279.21 471.19L284.944 478.854L287.725 482.492L288.803 483.87L290.959 486.626L294.645 491.254L295.616 492.912L296.068 493.407L296.758 494.957L298.182 497.11L298.354 497.498L297.621 496.895L296.889 496.293L295.983 495.302L295.703 495.195L294.971 494.592L293.613 493.107L293.333 493L291.242 490.912L288.031 488.394L285.66 486.198L280.186 481.205L277.578 477.955L273.439 472.831L268.157 465.662L263.975 461.487L261.82 458.731L257.703 455.223L255.505 453.415L253.76 452.103L253.307 451.607L251.842 450.402L250.549 449.585L248.738 447.604L248.566 447.217L248.286 447.109L248.005 447.002L248.113 446.722L249.836 446.419L251.839 446.224L254.122 446.136L256.512 445.768L261.635 444.615Z" stroke="black"/>
<path d="M251.538 492.38L252.424 492.043L252.846 492.085L253.965 491.557L257.849 491.094L263.379 491.222L264.878 491.159L272.624 492.574L280.561 494.222L284.275 495.447L290.523 496.926L291.325 497.433L294.66 498.194L295.082 498.236L295.926 498.32L297.657 498.068L298.122 497.688L298.354 497.498L297.594 496.569L296.835 495.64L295.273 494.204L292.762 491.607L290.672 489.053L287.359 485.949L280.627 478.666L277.166 474.908L273.663 471.572L273.259 471.079L269.715 474.801L267.076 477.734L261.65 482.947L258.864 485.226L256.731 487.358L256.035 487.927L253.67 490.249L253.395 490.861L251.538 492.38ZM251.538 492.38L251.305 492.57" stroke="black"/>
<path d="M234.728 490.834L238.51 491.341L241.45 491.635L254.823 492.908L257.29 492.726L267.438 493.8L276.352 494.965L284.318 496.127L289.249 496.711L291.904 497.099L294.18 497.295L296.078 497.301L297.405 497.495L298.354 497.498L297.784 497.686L296.93 497.968L295.505 498.438L291.802 499.66L288.953 500.6L286.104 501.54L279.457 503.418L276.324 504.452L272.526 505.389L270.817 505.953L263.125 508.492L254.484 511.027L245.559 513.657L238.342 515.722L236.824 515.907L233.69 516.942L231.317 517.409L226.665 518.628L224.955 519.192L223.816 519.568L223.246 519.756L221.537 520.32L221.728 519.941L222.109 519.184L222.491 518.426L222.685 517.098L223.639 515.204L224.594 513.309L226.696 508.193L228.129 504.877L228.608 503.455L231.568 497.108L233.379 493.982L234.622 491.045L234.728 490.834Z" stroke="black"/>
<path d="M219 521.074L219.813 520.835L230.754 517.619L241.908 514.037L245.523 512.456L256.968 508.797L277.98 502.597L285.229 500.672L293.928 498.363L296.827 497.593L298.277 497.208L298.354 497.498L298.064 497.575L297.851 497.942L297.348 498.386L296.555 498.906L295.762 499.427L294.467 500.392L292.378 501.878L290.869 503.21L288.858 504.985L280.965 512.668L277.231 516.143L272.782 520.428L265.238 527.087L259.783 532.26L251.02 540.174L247.577 543.571L244.559 546.235L241.406 549.555L239.317 551.041L237.093 553.183L235.933 553.491L235.643 553.568L235.276 553.355L234.542 552.929L233.731 552.214L233.21 551.421L232.322 550.415L231.435 549.409L229.795 546.74L228.966 544.788L228.137 542.835L227.521 540.515L226.538 537.983L225.017 533.421L223.513 530.095L221.932 526.48L219.985 522.651L219 521.074Z" stroke="black"/>
<path d="M250.849 540.679L251.747 539.859L257.693 534.229L270.292 523.524L279.961 515.096L284.054 511.825L286.934 509.128L290.792 505.673L292.88 503.498L294.547 501.375L297.057 499.149L297.428 498.678L298.354 497.498L298.169 497.734L297.798 498.206L296.872 499.385L295.76 500.801L294.514 502.874L290.439 508.065L288.216 510.897L285.807 513.965L282.102 518.684L277.1 525.055L274.507 528.359L272.098 531.426L267.467 537.325L264.873 540.629L261.909 544.404L260.613 546.056L258.945 548.18L258.575 548.652L258.389 548.888L258.153 548.702L258.103 548.281L257.816 547.675L257.715 546.832L257.479 546.647L256.248 545.3L255.776 544.929L254.782 543.767L253.13 542.47L250.849 540.679Z" stroke="black"/>
<path d="M303.553 544.411L303.309 543.494L303.103 541.978L302.634 539.845L301.922 536.795L301.528 533.464L300.87 524.706L300.551 520.178L300.213 515.949L300.343 513.853L300.172 506.929L299.909 501.502L299.159 499.051L298.354 497.498L296.857 497.405L295.903 498.247L294.649 499.071L293.34 500.793L292.012 502.814L288.645 508.617L286.943 511.817L286.251 513.277L282.604 518.761L280.659 521.045L278.732 523.029L277.822 523.899L281.54 526.209L284.74 527.911L289.626 531.522L293.894 535.394L295.897 537.021L296.44 537.957L297.862 539.248L299.285 540.538L300.408 541.811L301.55 542.783L302.991 543.775L303.553 544.411ZM303.553 544.411L303.534 544.71" stroke="black"/>
<path d="M325.127 528.686L322.626 528.732L315.574 528.107L309.546 526.858L306.917 526L304.388 524.729L302.115 523.303L301.135 522.846L299.631 520.951L297.715 518.957L295.22 514.856L294.541 513.162L294.118 511.313L293.795 509.051L293.684 507.714L293.829 506.221L293.874 505.14L294.632 502.923L295.345 501.787L296.058 500.65L296.872 499.102L297.585 497.965L297.841 497.81L298.098 497.654L298.354 497.498L298.51 497.754L299.546 498.879L301.105 501.442L301.573 502.211L302.765 503.593L304.269 505.487L305.36 507.281L307.276 509.276L310.284 513.065L312.044 514.803L313.86 517.21L317.068 520.174L320.644 524.32L324.164 527.796L325.127 528.686Z" stroke="black"/>
<path d="M330.936 535.453L329.892 534.825L326.226 532.215L321.038 528.743L317.979 526.418L311.869 522.069L309.425 520.329L306.974 518.29L305.437 516.827L303.9 515.365L301.419 512.126L300.774 510.341L299.845 509.164L299.208 507.68L298.263 505.903L298.248 505.303L297.926 504.41L297.574 502.319L297.544 501.119L297.814 499.912L298.106 499.604L298.099 499.305L298.091 499.005L298.076 498.405L298.062 497.805L298.054 497.505L298.354 497.498L298.661 497.79L299.284 498.675L300.513 499.845L301.743 501.014L305.394 503.024L307.53 504.472L310.267 505.904L313.603 507.321L316.939 508.739L321.805 511.319L325.141 512.736L328.17 513.861L330.899 514.994L333.628 516.126L335.75 516.974L337.572 517.829L338.179 518.113L341.215 519.538L342.423 519.808L344.544 520.656L346.666 521.503L346.966 521.496L347.273 521.788L346.389 522.411L345.796 522.725L345.211 523.34L344.911 523.348L342.264 525.514L340.495 526.759L338.44 528.61L336.093 530.769L333.739 532.628L331.399 535.087L330.936 535.453Z" stroke="black"/>
<path d="M508.627 286.244L507.284 287.743L506.388 288.741L503.701 291.738L501.968 293.068L500.067 294.787L497.886 296.616L495.985 298.334L493.467 300.942L492.123 302.44L490.669 303.66L489.884 304.937L488.203 307.214L487.924 307.325L488.034 307.604L488.144 307.883L488.812 307.941L489.87 308.169L493.49 308.351L496.053 308.307L499.563 308.21L503.352 308.004L507.252 308.076L512.935 307.767L516.556 307.949L522.013 307.883L521.079 305.518L519.866 302.448L518.485 299.768L517.214 297.367L515.664 295.077L513.336 292.448L511.727 290.826L510.508 289.372L509.788 288.366L508.737 286.523L508.627 286.244ZM508.627 286.244L508.517 285.965" stroke="black"/>
<path d="M519.496 274.153L518.619 275.113L514.326 279.735L510.03 284.78L505.737 289.402L498.015 297.381L496.724 299.064L493.723 302.002L491.789 304.315L490.288 305.784L489.645 306.414L488.788 307.253L488.144 307.883L487.72 307.878L487.515 307.239L487.537 305.118L487.98 303.426L488.641 301.099L490.182 295.812L492.153 290.105L492.591 288.837L493.261 285.662L494.182 278.883L494.428 275.704L494.46 272.734L494.272 270.398L493.871 268.273L493.884 267L494.094 267.214L494.938 267.648L497.269 267.885L500.444 268.555L502.351 268.788L504.258 269.02L506.584 269.681L508.697 270.552L515.037 272.742L518.632 273.841L519.496 274.153Z" stroke="black"/>
<path d="M492.967 273.532L492.506 275.603L491.953 278.088L490.893 280.894L490.293 285.542L489.97 288.947L489.738 291.938L489.507 294.929L488.907 299.577L488.952 301.325L488.491 303.396L488.468 304.477L487.915 306.962L487.983 307.629L488.144 307.883L487.891 308.044L487.73 307.79L487.569 307.537L487.179 306.364L486.88 304.776L486.238 299.852L485.48 296.423L483.734 288.645L482.058 281.535L481.208 278.52L479.875 274.746L478.035 271.294L477.231 270.028L476.748 269.269L476.104 268.256L475.943 268.003L476.196 267.842L477.024 268.027L479.095 268.488L480.337 268.764L481.994 269.133L483.65 269.502L484.225 269.847L488.435 271.437L490.575 272.565L492.967 273.532Z" stroke="black"/>
<path d="M468.193 294.22L469.912 291.761L473.459 284.284L474.702 282.298L475.561 281.068L477.562 279.465L478.132 279.278L478.702 279.091L478.987 278.998L479.08 279.283L479.365 279.189L479.459 279.475L480.207 281.755L480.487 282.61L481.048 284.321L481.511 286.695L483.381 292.396L484.031 295.34L485.433 299.616L486.274 302.181L487.677 306.457L488.051 307.597L488.144 307.883L487.766 307.691L486.63 307.116L485.401 306.256L483.793 305.205L483.036 304.822L478.685 302.145L472.726 298.416L469.226 296.407L467.661 295.508L468.193 294.22Z" stroke="black"/>
<path d="M455.565 288.201L457.157 289.235L460.948 291.583L464.74 293.931L468.344 296.045L472.37 298.207L479.579 302.435L483.37 304.783L485.57 306.098L486.975 306.897L488.144 307.883L487.723 307.835L486.645 307.927L485.193 307.55L483.694 307.595L481.351 307.544L478.774 307.681L471.886 308.186L464.624 308.221L463.312 308.5L458.814 308.634L457.501 308.913L455.159 308.863L453.003 309.047L451.317 308.857L449.583 309.088L447.475 308.851L447.288 308.616L447.383 307.773L447.196 307.539L448.137 304.869L448.467 303.839L450.584 298.314L451.994 295.271L455.565 288.201Z" stroke="black"/>
<path d="M454.745 308.698L458.388 308.916L462 308.836L465.611 308.756L472.771 307.999L476.053 307.652L479.335 307.305L480.528 307.179L483.213 306.895L487.783 307.317L488.113 307.584L488.144 307.883L487.846 307.914L487.281 308.275L486.983 308.307L485.02 309.721L481.896 311.56L481.331 311.921L476.81 314.812L474.251 316.289L471.724 318.065L469.196 319.84L466.967 321.584L463.843 323.423L461.017 325.23L460.484 325.89L456.826 328.388L455.994 329.079L455.727 329.409L455.461 329.739L454.895 330.1L454.362 330.76L454.204 329.268L454.11 328.373L454.047 327.777L453.857 325.987L453.7 324.495L453.479 322.407L453.006 317.932L452.754 315.545L452.628 314.352L452.611 311.337L452.572 308.729L454.745 308.698Z" stroke="black"/>
<path d="M410 360.802L411.669 359.397L420.222 353.046L423.163 350.885L445.623 335.473L467.551 321.004L476.108 315.324L483.73 310.455L486.674 308.964L488.144 307.883L488.947 307.476L489.215 307.34L489.35 307.608L489.218 308.011L488.954 308.818L488.686 308.953L487.355 310.972L486.153 311.918L482.145 315.293L479.74 317.184L478.805 317.993L476.403 320.555L470.126 326.088L466.522 329.595L457.312 338.632L447.037 349.553L438.901 358.719L437.302 360.874L434.233 364.109L431.432 367.21L429.298 369.636L426.896 372.198L425.693 373.143L424.491 374.088L424.355 373.821L424.22 373.553L424.084 373.285L423.274 372.35L423.139 372.083L421.251 370.349L420.713 369.949L417.883 367.683L417.209 367.015L413.031 363.415L410 360.802Z" stroke="black"/>
<path d="M449.069 348.525L473.769 323.94L479.401 317.536L481.377 314.777L483.156 312.659L485.527 310.443L487.354 308.621L488.144 307.883L488.291 308.771L487.846 309.756L487.202 311.383L486.015 313.403L484.335 316.113L480.082 323.505L477.462 327.891L474.546 332.325L471.333 336.809L468.072 340.996L466.886 343.017L461.992 350.21L459.768 353.314L458.137 356.32L457.444 357.651L456.947 360.165L456.996 360.461L456.749 360.806L456.651 360.214L455.864 359.128L453.895 356.413L453.01 354.734L451.386 352.266L449.762 349.798L449.069 348.525Z" stroke="black"/>
<path d="M488.076 308.175L486.994 308.845L485.569 310.976L484.574 312.591L483.149 314.722L482.016 316.921L481.45 318.021L479.116 322.711L477.983 324.911L475.923 328.433L475.563 328.657L474.996 329.756L474.362 331.148L474.293 331.44L473.932 331.664L473.864 331.956L477.076 332.71L479.413 333.259L481.749 333.807L484.378 334.424L484.962 334.561L485.254 334.63L484.944 333.325L485.081 332.741L485.064 331.504L485.183 329.683L485.49 325.749L485.97 323.704L486.227 321.299L486.483 318.894L486.758 317.726L487.306 315.39L487.426 313.569L487.906 311.524L488.18 310.356L488.162 309.119L488.076 308.175ZM488.076 308.175L488.144 307.883" stroke="black"/>
<path d="M487.951 309.672L487.79 311.163L487.629 312.655L487.435 314.444L487.113 317.427L486.694 321.304L486.597 322.199L486.307 324.884L486.049 327.27L485.534 332.042L485.308 334.13L485.115 335.919L484.954 337.411L484.825 338.604L484.76 339.2L485.816 337.806L487.299 335.25L487.694 334.388L489.242 331.236L489.637 330.373L491.12 327.818L492.777 324.962L492.667 324.666L492.135 324.005L491.934 323.078L491.498 321.522L490.733 320.232L490.265 318.975L489.064 316.129L488.661 314.275L488.024 311.792L487.822 310.865L487.951 309.672ZM487.951 309.672L487.983 309.374L488.112 308.181M487.951 309.672L488.112 308.181M488.112 308.181L488.144 307.883" stroke="black"/>
<path d="M503.355 326.775L502.848 328.777L501.236 334.119L500.422 336.316L499.791 338.13L499.425 338.896L498.976 340.327L498.428 341.476L497.596 342.724L497.313 342.824L497.213 342.542L497.113 342.259L496.813 341.41L496.713 341.127L495.914 338.864L495.314 337.167L494.614 335.187L492.714 329.813L491.614 326.702L491.18 323.673L490.746 320.645L490.229 318.282L490.395 316.951L489.744 312.408L489.244 310.994L488.744 309.58L488.344 308.448L488.144 307.883L488.927 309.197L490.41 312.491L493.623 317.082L495.755 319.511L497.786 321.657L499.917 324.085L500.783 324.734L502.514 326.031L503.355 326.775Z" stroke="black"/>
<path d="M538.961 370.752L537.04 367.678L534.204 364.356L529.867 360.039L523.11 352.317L518.523 347.834L514.018 342.686L503.756 330.478L499.751 325.662L494.828 319.516L490.486 313.036L489.399 310.875L488.063 308.548L487.979 308.133L488.144 307.883L488.644 308.214L489.144 308.546L491.56 309.788L494.31 311.613L498.06 314.1L502.892 316.585L510.973 321.226L517.805 325.038L524.887 329.015L532.718 333.49L540.634 338.381L547.55 342.609L553.05 346.257L562.299 352.393L563.634 353.638L567.634 356.292L570.884 358.447L573.883 360.437L578.799 363.338L579.965 363.752L580.465 364.083L580.299 364.333L578.22 364.754L576.641 365.507L572.401 367.014L569.74 367.769L568.493 368.021L565 368.945L560.842 369.786L550.112 371.309L543.124 372.074L540.157 372.484L538.961 370.752Z" stroke="black"/>
<path d="M490.236 492.113L491.835 492.341L492.095 492.491L493.434 492.57L495.033 492.799L496.893 493.177L498.642 493.146L502.25 493.493L508.316 493.179L511.964 492.856L515.612 492.534L519.669 492.101L523.577 491.928L527.485 491.756L532.322 491.772L535.15 491.67L539.728 491.537L541.327 491.766L542.666 491.845L544.266 492.073L544.415 491.813L544.675 491.963L544.195 490.994L542.753 488.087L542.092 485.628L539.989 480.263L537.997 475.307L536.075 471.431L533.893 467.404L531.538 463.172L531.452 463.229L530.033 464.489L527.945 465.71L525.818 467.6L522.721 469.971L517.497 474.233L513.392 477.754L505.111 483.716L497.988 488.269L495.9 489.49L492.434 491.302L491.055 491.892L490.236 492.113ZM490.236 492.113L489.976 491.963" stroke="black"/>
<path d="M517.002 473.241L516.269 473.749L508.348 479.954L504.298 482.616L500.542 485.218L496.198 487.94L492.148 490.602L491.092 491.43L489.976 491.963L489.916 491.669L489.796 491.081L489.616 490.199L490.259 488.844L492.714 484.364L493.65 482.948L496.927 477.994L497.864 476.579L499.677 473.454L501.136 470.096L503.057 464.499L503.46 461.968L503.689 460.085L503.569 459.497L503.618 456.731L503.732 455.789L504.5 456.552L505.621 457.548L506.863 459.132L508.398 460.656L511.414 464.941L513.188 467.641L515.79 471.397L517.002 473.241Z" stroke="black"/>
<path d="M499.559 463.158L498.96 464.358L495.663 470.36L492.967 476.061L492.068 478.762L490.871 483.562L490.872 485.962L490.873 488.062L490.574 489.563L490.275 491.663L490.276 491.963L489.976 491.963L489.375 490.763L488.773 487.164L488.472 485.664L488.17 481.464L487.567 476.664L487.262 467.064L487.257 458.664L487.555 454.764L487.854 453.564L488.151 447.864L488.45 446.364L488.449 445.464L488.449 445.164L489.049 445.763L490.551 448.163L491.752 449.662L493.253 451.461L495.054 453.26L495.654 454.16L497.755 456.259L499.857 458.357L501.958 460.456L499.559 463.158Z" stroke="black"/>
<path d="M489.167 451.612L489.174 451.671L489.703 456.385L490.864 466.89L490.967 472.396L490.725 480.442L490.461 484.729L490.016 490.622L489.996 491.292L489.976 491.963L489.691 492.491L489.041 491.801L488.919 491.394L488.045 489.22L487.048 486.64L482.251 476.563L480.218 472.744L477.921 468.782L476.031 464.699L472.433 459.356L470.116 456.065L467.921 453.18L464.547 449.32L463.104 448.203L462.84 448.061L461.783 447.492L462.047 447.634L462.982 447.797L466.965 449.259L468.306 449.299L474.585 450.293L477.795 450.658L484.622 451.266L488.097 451.773L489.167 451.612Z" stroke="black"/>
<path d="M447 460.555L451.453 454.015L453.729 449.694L455.562 446.806L457.395 443.918L458.301 442L458.588 442.088L459.073 442.552L459.667 443.677L461.451 447.054L462.64 449.304L463.939 452.217L464.951 455.041L466.954 459.741L468.165 462.94L471.247 469.229L472.744 472.516L474.33 475.518L476.577 478.409L480.388 483.353L481.447 483.993L484.752 487.525L487.176 489.843L488.146 490.77L489.204 491.411L489.976 491.963L489.491 491.499L488.609 490.286L487.728 489.072L486.759 488.144L485.017 486.665L483.563 485.274L478.668 482.822L473.289 479.906L470.511 478.734L466.763 476.636L464.162 474.891L462.421 473.412L459.027 470.167L457.573 468.776L456.691 467.562L456.493 467.187L456.295 466.812L456.097 466.437L455.612 465.973L455.127 465.509L452.813 463.853L452.239 463.676L450.123 462.395L449.065 461.755L448.293 461.203L447 460.555Z" stroke="black"/>
<path d="M459.479 469.674L464.799 473.965L470.692 479.189L474.598 482.225L477.375 484.106L480.152 485.988L482.501 487.352L486.65 489.839L488.45 490.962L489.548 491.446L489.976 491.963L487.417 491.817L485.132 491.793L479.433 490.589L474.161 489.902L470.23 489.151L463.037 487.616L458.129 486.105L456.087 485.532L454.44 484.805L454.134 484.014L454.101 483.344L454.675 481.302L455.886 478.557L457.55 474.045L458.155 472.672L459.479 469.674Z" stroke="black"/>
<path d="M467.98 487.452L470.861 488.104L474.037 488.698L477.508 489.234L479.096 489.531L485.331 490.131L487.566 490.605L489.212 491.197L489.917 491.669L489.976 491.963L488.857 492.49L488.621 492.843L487.502 493.371L484.792 495.131L482.907 496.422L480.375 497.535L478.196 498.884L477.077 499.412L472.483 502.463L470.303 503.812L468.418 505.103L465.414 506.921L465.12 506.98L465.181 505.744L465.3 504.803L465.362 503.568L465.306 501.744L465.606 498.626L466.147 492.096L466.328 489.92L466.741 488.92L466.896 487.314L467.98 487.452Z" stroke="black"/>
<path d="M467.264 505.684L468.343 504.958L472.144 502.683L475.658 500.722L477.116 499.755L480.317 497.507L485.589 494.565L488.804 492.617L489.976 491.963L490.275 491.949L490.016 492.862L488.681 496.526L487.592 498.978L485.385 503.283L483.736 506.661L482.088 510.04L480.44 513.418L479.077 516.483L477.987 518.935L476.952 522.586L476.979 523.185L477.02 524.084L476.761 524.997L476.693 523.498L476.026 522.027L475.045 520.27L473.737 517.927L472.103 514.998L470.454 511.769L469.487 510.312L467.825 506.784L467.264 505.684Z" stroke="black"/>
<path d="M476.383 525.943L477.881 520.968L480.008 513.902L481.374 509.83L482.74 505.758L484.131 502.533L486.732 497.151L488.136 494.351L489.371 493.042L489.976 491.963L490.593 491.308L492.981 493.148L494.073 494.177L495.881 497.944L496.598 500.682L496.698 504.075L497.452 508.085L497.576 512.326L497.844 514.228L498.598 518.238L499.134 522.042L499.876 525.628L500.593 528.366L502.002 532.994L502.233 533.624L502.913 535.089L503.362 535.925L503.592 536.555L500.381 535.588L499.52 535.189L496.308 534.222L492.442 532.638L484.503 529.687L476.758 526.094L476.383 525.943Z" stroke="black"/>
<path d="M521.38 526.695L519.207 531.319L517.458 535.207L515.786 539.385L512.632 546.136L511.072 548.42L510.437 549.523L509.089 551.439L508.587 551.885L508.298 551.963L507.54 550.303L506.783 548.643L505.869 546.403L505.09 543.506L504.7 542.058L502.461 534.893L500.144 527.439L499.131 523.673L497.828 519.985L496.736 515.93L494.965 510.503L493.952 506.737L493.094 503.551L492.236 500.364L491.535 497.757L490.521 493.991L490.209 492.832L489.976 491.963L490.711 492.386L491.814 493.022L495.435 496.086L499.211 499.73L502.542 502.872L506.185 507.173L511.165 512.978L521.492 526.416L521.38 526.695Z" stroke="black"/>
<path d="M529.72 535.411L524.827 530.569L519.195 524.272L517.754 522.631L514.746 519.076L511.466 515.649L503.979 508.239L497.69 501.257L495.209 498.116L494.296 496.889L492.6 494.704L490.503 492.377L489.976 491.963L490.247 491.835L491.046 492.121L491.174 492.392L493.028 493.506L493.428 493.649L495.139 495.162L497.393 496.42L502.414 500.018L513.269 506.832L517.106 509.331L524.795 513.659L526.521 514.502L529.973 516.188L534.88 518.845L539.274 520.417L539.402 520.689L539.131 520.817L538.032 522.001L537.061 523.455L535.803 525.709L532.604 530.873L530.933 533.655L529.72 535.411Z" stroke="black"/>
<path d="M528.287 514.076L523.524 512.075L502.584 501.11L498.427 498.28L493.476 494.931L491.515 493.422L491.142 492.952L489.976 491.963L490.211 491.777L493.072 491.04L497.659 491.998L498.689 492.331L508.795 495.422L515.724 496.437L520.174 496.739L523.359 496.894L529.073 497.341L531.602 497.634L534.13 497.927L536.003 498.357L536.189 498.592L536.091 499.435L535.71 500.886L534.907 502.287L533.82 504.297L532.263 506.68L529.522 511.915L529.003 512.709L528.287 514.076Z" stroke="black"/>
</svg>
