<svg width="624" height="426" viewBox="0 0 624 426" fill="none" xmlns="http://www.w3.org/2000/svg">
<rect width="624" height="426" fill="white"/>
<path d="M148.717 100.004L144.948 100.447L143.335 100.541L139.167 100.84L134.201 100.851L129.235 100.862L124.015 100.329L119.065 99.6691L111.96 99.3581L107.266 99.2414L105.11 99.5903L102.827 99.6677L100.671 100.017L100.127 100.272L100 100L102.317 98.5814L103.403 98.0716L105.864 96.254L108.741 93.9098L116.794 88.4735L120.757 85.6196L125.263 82.5108L129.082 80.0559L130.728 78.6206L134.004 76.4206L136.066 74.4588L137.856 72.6245L137.729 72.3529L137.679 74.3647L137.933 74.9079L138.537 77.607L139.302 79.2365L140.067 80.866L140.959 82.7671L141.469 83.8534L142.743 86.5693L144.018 89.2851L145.292 92.0009L146.567 94.7167L147.969 97.7041L148.921 100L148.717 100.004Z" stroke="black"/>
<path d="M132.611 75.9314L130.977 76.5553L127.899 78.4462L124.525 80.2846L118.074 84.014L112.213 87.8483L107.291 91.5445L105.447 93.3499L104.646 94.4265L102.75 96.5272L102.349 97.0655L101.601 97.8467L101.148 98.6804L100.453 99.1663L100 99.9999L100.105 99.4092L100.906 98.3326L101.253 98.0897L104.527 91.6632L106.844 87.1994L108.149 84.9938L115.36 70.1256L123.077 54.1283L127.538 42.7329L129.454 38.8074L130.917 35.7156L133.614 32.5383L134.362 31.7571L135.944 31.4286L136.239 31.481L136.83 31.586L136.778 31.8813L136.811 33.4107L136.844 34.94L136.667 37.6509L136.733 40.7096L136.523 41.8911L136.675 46.1838L136.584 50.1286L136.493 54.0734L136.258 62.2585L136.272 65.6125L136.285 68.9666L136.109 71.6775L136.194 72.9114L136.255 73.7825L132.611 75.9314Z" stroke="black"/>
<path d="M99.9551 99.1011L100.225 98.4869L100.465 97.2734L100.704 96.0599L101.154 93.0337L101.873 89.3933L102.368 87.266L103.701 83.8953L104.48 81.4534L105.574 79.2962L110.099 73.6635L111.822 72.0755L113.56 70.7873L114.429 70.1431L117.575 66.9822L118.363 65.8896L116.736 62.2181L114.444 58.4277L110.744 50.5024L109.756 48.7496L107.045 42.5771L105.726 40.24L105.022 38.1725L104.363 37.0039L104.049 36.7193L103.689 35.5357L103.674 35.2361L103.39 35.5507L103.165 37.0638L103 39.7754L102.595 49.7079L102.355 56.9289L102.205 59.9401L101.44 68.6892L101.275 77.4083L100.735 84.6442L100.405 90.0674L100.315 94.2771L100.09 95.7902L99.8953 97.9026L99.9551 99.1011ZM99.9551 99.1011L100 100" stroke="black"/>
<path d="M100.193 98.8156L100.385 97.6312L100.33 96.1025L100.323 94.2776L100.06 90.2838L100.149 87.8667L100.135 84.2171L100.616 81.256L100.801 78.2467L101.372 72.8686L101.504 71.4073L95.3535 72.4979L94.1209 72.6014L87.5655 73.6631L84.5081 73.7738L79.8257 74.5322L78.2489 74.8837L77.6567 74.7874L76.7202 74.9391L75.8318 74.7946L75.7837 75.0908L75.9835 75.7311L76.1833 76.3715L76.3831 77.0119L76.6311 77.3561L77.6711 78.437L80.1435 80.0548L82.616 81.6726L84.7923 83.2422L89.441 86.4296L91.8171 88.6395L94.2414 90.5534L94.9853 91.5862L96.8173 93.4038L98.1053 94.829L99.7929 97.5349L100.193 98.8156ZM100.193 98.8156L99.9999 100L100.048 99.7039L100.096 99.4078L100.193 98.8156Z" stroke="black"/>
<path d="M66.9464 65.2095L66.952 65.5094L66.9688 66.4092L66.9855 67.3091L66.7079 68.5145L66.7358 70.0142L66.1695 71.8251L65.3199 74.5414L63.9703 78.5545L60.9044 79.1244L55.2334 80.7302L47.185 83.5806L43.608 84.8474L40.3309 86.1086L37.6537 87.3587L34.9654 88.0089L33.4768 88.6367L33.7823 88.9311L34.9821 88.9087L36.7874 89.1751L40.0924 89.4137L50.6074 90.118L66.5437 91.9216L83.1023 94.9138L93.9451 97.1123L95.1561 97.6898L97.8724 98.5394L99.0777 98.817L99.9999 100L99.7 100.006L99.0889 99.4169L98.1667 98.2339L97.2389 96.7509L95.6833 93.7793L94.4333 91.1022L92.8833 88.4306L91.6332 85.7534L90.0888 83.3817L88.8499 81.3044L87.9109 79.2215L86.6776 77.4442L86.3609 76.5499L83.8999 73.2952L82.0723 71.829L79.3336 69.7796L76.6006 68.0302L75.3896 67.4526L75.0841 67.1583L72.9677 66.2975L72.3622 66.0088L71.4568 65.7256L70.5514 65.4424L69.6459 65.1592L68.7461 65.1759L68.4462 65.1815L67.8463 65.1927L67.2464 65.2039L66.9464 65.2095ZM66.9464 65.2095L66.6465 65.215" stroke="black"/>
<path d="M64.4336 93.9246L66.0001 94.1162L76.0795 95.6804L78.7475 96.0945L83.7872 96.8766L88.5304 97.6128L92.3843 98.2108L95.5992 99.0134L98.8142 99.8159L99.7035 99.9539L100 99.9999L99.954 100.296L98.3797 100.659L96.8514 100.726L95.6196 100.838L93.7029 101.451L93.3605 101.702L89.1845 103.179L86.8333 104.636L84.4821 106.092L79.0488 109.803L76.6516 111.556L74.5508 113.355L73.8659 113.856L72.4501 115.154L71.6731 116.248L70.8962 117.342L70.5077 117.889L70.5997 117.296L70.4873 116.064L70.2829 115.425L69.6236 113.805L69.0563 111.592L68.3305 108.443L67.3084 105.248L66.3782 101.461L64.6763 94.8215L64.4336 93.9246Z" stroke="black"/>
<path d="M71.4768 117.301L79.7362 112.291L84.3533 109.491L88.7138 106.846L93.8439 103.734L96.4089 102.178L98.4609 100.934L99.4869 100.311L99.9999 100L99.899 100.412L99.6425 100.568L99.2851 101.135L98.5702 102.271L97.4433 103.305L96.7831 105.109L94.5377 108.927L93.6673 109.806L92.6497 112.178L91.8885 114.394L90.2654 119.238L89.7608 121.298L89.3572 122.946L89.21 124.439L88.9619 126.344L89.3277 127.526L89.7945 128.295L89.6936 128.707L88.5582 127.992L87.4229 127.278L83.7603 125.289L81.6452 124.115L79.7867 122.787L77.516 121.357L76.3806 120.642L73.5423 118.855L71.4768 117.301Z" stroke="black"/>
<path d="M81.1584 152.481L84.5222 143.848L87.6178 135.079L90.4137 127.158L92.6105 120.934L94.1251 115.742L96.8378 107.155L97.2373 106.024L98.835 101.498L99.2344 100.366L99.534 99.5173L99.9999 99.9999L100.366 100.765L101.464 103.062L102.096 104.876L103.195 107.172L106.506 113.113L108.536 116.375L110.749 120.019L113.062 123.381L114.992 126.926L117.855 131.435L120.434 135.845L121.915 137.959L124.411 141.703L125.243 142.951L125.792 144.1L125.126 144.183L124.278 143.883L123.429 143.584L121.715 143.933L117.621 144.715L114.759 145.613L111.514 146.695L103.876 149.407L99.2992 150.655L94.8227 151.62L87.9833 152.069L83.3238 152.652L81.1584 152.481Z" stroke="black"/>
<path d="M126.397 145.134L122.926 139.623L117.645 130.99L112.563 122.922L108.248 115.221L102.849 105.356L102.349 103.942L100 100L99.4998 98.5858L100.366 99.2342L101.231 99.8826L101.997 100.248L103.429 100.696L104.86 101.145L108.006 101.941L108.954 101.924L112 102.438L118.374 103.365L121.903 104.345L125.614 104.941L128.86 106.02L130.291 106.469L133.154 107.365L135.734 108.362L137.548 108.993L139.463 109.907L139.846 110.09L141.377 110.821L141.76 111.004L141.86 111.286L141.96 111.569L141.977 112.518L141.712 113.566L141.546 114.898L140.384 118.809L139.388 121.389L138.025 124.735L136.198 128.564L135.284 130.478L132.425 134.99L129.666 139.784L126.441 145.062L126.397 145.134Z" stroke="black"/>
<path d="M209.004 138.189L210.582 137.566L212.317 137.337L214.84 136.798L218.19 136.616L219.924 136.388L224.218 136.29L228.907 136.036L234.697 136.26L251.551 137.364L260.882 138.471L267.148 139.362L266.947 138.815L263.163 130.958L262.42 129.654L260.505 126.533L258.781 124.477L257.333 122.54L256.04 120.997L254.784 120.125L253.922 119.097L252.821 118.619L251.995 118.26L251.17 117.902L250.895 117.783L250.5 117.938L249.591 118.525L248.407 118.992L246.709 119.89L245.011 120.788L240.706 123.171L239.403 123.913L236.796 125.398L233.794 127.038L230.912 128.404L227.911 130.044L222.697 133.013L220.485 134.342L218.237 135.002L215.474 136.092L212.436 137.062L211.766 137.098L210.188 137.721L209.004 138.189ZM209.004 138.189L208.609 138.344L207.306 139.087L207.186 139.362" stroke="black"/>
<path d="M240.017 123.153L232.443 126.815L230.553 127.73L221.91 131.909L218.26 134.007L215.289 135.444L210.427 137.795L209.887 138.056L208.807 138.578L207.997 138.97L207.727 139.101L207.456 139.231L207.186 139.362L206.925 138.822L206.412 137.071L207.127 133.726L207.973 130.651L209.228 127.045L210.753 123.308L213.246 117.437L215.042 113.57L216.968 109.973L220.402 103.98L221.9 102.256L222.31 101.724L222.998 100.392L223.539 100.131L223.809 100L225.115 102.701L227.875 107.031L229.852 109.741L234.737 115.709L237.245 118.828L238.168 120.048L240.017 123.153Z" stroke="black"/>
<path d="M198.062 110.059L199.74 111.876L201.763 115.356L202.186 116.351L203.042 119.423L203.732 122.746L205.2 129.808L205.821 134.879L206.339 137.371L206.512 138.202L206.606 139.699L206.442 139.95L206.528 140.365L206.857 139.864L207.186 139.362L207.922 137.692L208.416 136.94L209.646 134.517L211.04 131.844L212.513 128.505L213.899 124.75L216.342 117.742L217.815 114.403L219.831 108.198L214.113 109.105L212.037 109.537L203.972 110.347L199.394 110.215L198.062 110.059ZM198.062 110.059L197.811 109.894" stroke="black"/>
<path d="M181.943 128.225L182.439 127.588L186.589 121.954L191.615 115.304L194.566 111.471L195.764 109.67L196.525 108.377L197.17 106.808L197.055 106.531L196.778 106.646L196.893 106.923L196.732 107.316L196.571 107.708L196.479 109.047L196.504 110.662L196.759 112.831L197.939 117.215L198.818 120.099L201.13 125.635L202.286 128.404L203.487 130.503L204.412 132.718L204.643 133.271L205.337 134.932L206.377 137.424L206.84 138.531L207.186 139.362L206.909 139.477L204.162 138.349L202.246 136.873L201.114 135.72L199.706 134.683L195.55 132.516L192.803 131.388L188.995 130.052L181.943 128.225Z" stroke="black"/>
<path d="M160.991 118.982L165.493 120.873L177.154 126.422L188.057 130.676L197.461 134.626L199.121 135.323L204.813 138.04L206.357 139.013L207.186 139.362L207.07 139.638L206.677 139.799L204.277 140.092L202.268 140.225L199.707 140.125L193.843 140.916L192.505 141.004L189.202 141.895L185.899 142.785L182.088 144.113L178.16 145.717L170.698 148.765L167.163 150.209L163.119 152.089L161.155 152.891L159.352 154.086L158.334 154.96L157.432 155.558L156.923 155.995L156.807 156.271L156.53 156.155L156.37 155.762L155.38 155.021L154.943 154.512L154.345 153.61L153.471 152.592L153.106 151.138L152.465 149.566L152.171 147.166L152.271 144.604L153.909 136.832L155.768 132.407L157.466 127.588L158.395 125.376L160.487 120.397L160.991 118.982Z" stroke="black"/>
<path d="M76 183.393L81.5692 182.168L92.6145 179.33L117.072 171.67L144.282 161.853L159.846 155.606L170.093 151.498L183.546 145.728L192.243 142.313L194.073 141.728L200.296 140.578L202.793 139.928L204.516 139.624L205.184 139.559L207.186 139.362L206.519 139.427L206.131 139.6L204.409 139.904L202.966 140.316L201.243 140.62L199.694 141.311L197.864 141.895L193.602 143.797L190.502 145.18L181.937 149.931L174.492 155.111L167.929 159.665L160.979 164.392L154.309 169.226L140.903 178.227L129.518 184.468L127.366 185.893L122.889 188.355L118.973 191.031L115.832 193.362L112.583 195.973L110.39 198.345L107.594 201.451L106.283 203.197L105.079 204.663L103.875 206.13L101.467 209.063L100.65 210.356L99.5533 211.542L98.2836 212.341L97.8962 212.514L97.7233 212.126L96.3642 210.642L93.6044 208.622L91.4048 206.815L88.5138 203.46L87.7806 202.858L83.3994 196.682L78.9943 188.892L76.9854 184.91L76 183.393Z" stroke="black"/>
<path d="M111.168 203.631L112.786 202.799L130.539 192.908L149.098 181.752L157.973 175.525L161.025 173.414L169.9 167.187L178.319 161.452L185.546 156.807L191.93 152.48L200.419 146.077L202.067 144.495L204.452 142.315L207.186 139.362L207.431 138.308L207.219 137.747L206.833 137.572L205.71 137.994L204.762 138.031L203.358 138.559L201.498 139.58L199.464 140.988L196.868 142.606L194.097 144.611L190.87 147.109L188.416 149.956L182.983 156.811L179.234 163.031L173.487 171.606L170.895 175.788L168.197 179.689L165.112 183.415L161.571 187.633L156.207 193.821L152.386 198.145L145.374 205.914L142.464 209.254L139.73 212.207L137.276 215.054L135.278 217.41L132.718 219.976L131.631 221.347L130.158 222.543L129.877 222.649L129.491 222.474L128.999 222.018L127.734 221.212L125.765 219.389L123.304 217.11L119.472 213.744L117.678 211.535L115.604 209.431L113.424 207.046L111.168 203.631Z" stroke="black"/>
<path d="M154.473 196.286L160.257 191.353L170.304 181.788L175.688 176.697L189.053 160.936L192.603 156.911L194.212 155.289L197.04 151.88L199.702 148.861L201.53 146.18L203.583 144.055L205.08 142.155L205.411 141.374L207.186 139.362L206.855 140.143L204.974 143.493L202.158 150.133L198.237 158.839L196.249 163.526L194.54 168.101L192.831 172.676L191.512 177.416L188.822 187.565L187.893 192.471L186.303 198.94L184.937 205.964L184.447 208.752L183.897 210.592L183.572 212.989L183.459 212.711L182.844 211.989L181.725 210.824L180.216 209.492L176.025 206.333L172.51 204.843L168.491 202.908L164.473 200.974L160.454 199.04L156.548 197.384L154.473 196.286Z" stroke="black"/>
<path d="M207.375 139.595L207.242 140.861L207.065 142.549L205.411 148.134L204.578 149.966L203.29 154.097L198.817 166.211L196.141 173.395L193.755 181.889L192.734 184.423L197.619 185.709L207.146 188.417L215.685 190.382L221.97 191.469L225.112 192.013L227.177 192.657M207.375 139.595L207.186 139.362M207.375 139.595L207.475 140.672L208.375 142.26L208.808 144.225L210.096 148.2L211.385 152.175L213.095 156.194L214.716 161.057L215.96 165.454L217.16 170.273L218.637 174.481L220.114 178.689L221.258 182.009L222.78 185.795L224.246 188.082L226.278 191.069L226.467 191.302L227.177 192.657M227.177 192.657L227.366 192.89" stroke="black"/>
<path d="M207.734 139.606L208.282 139.851L209.799 143.813L210.586 146.465L211.315 147.776L212.162 151.767L213.434 156.278L215.405 161.429L217.831 167.768L222.09 178.895L222.87 178.56L244.33 168.756L248.537 166.691L254.725 163.869L255.518 163.565L257.773 162.929L256.403 162.318L255.034 161.707L252.294 160.484L249.829 159.383L247.089 158.16L241.762 156.111L237.927 154.399L233.818 152.564L225.325 148.773L221.49 147.061L217.381 145.227L214.094 143.759L209.803 140.859L208.556 139.973L207.734 139.606ZM207.734 139.606L207.46 139.484L207.186 139.362L207.734 139.606Z" stroke="black"/>
<path d="M152.289 332.96L150.983 332.999L138.675 332.593L136.513 332.507L133.513 332.554L128.947 332.206L124.381 331.858L120.234 331.443L118.734 331.467L112.978 331.738L111.478 331.761L110.045 332.204L109.869 332.447L109.45 332.513L109.097 332.999L109.274 332.756L110.507 331.057L111.983 329.533L114.121 328.119L116.435 326.463L119.345 324.497L124.04 321.602L127.611 319.746L133.672 315.99L138.72 312.61L140.682 311.439L141.277 311.129L142.82 310.025L144.253 309.582L145.862 308.897L146.943 308.94L147.186 309.116L147.495 309.711L148.004 311.563L148.338 313.658L149.047 316.768L149.889 320.715L151.883 329.204L152.289 332.96Z" stroke="black"/>
<path d="M182.821 284.667L180.09 286.939L177.863 288.464L173.654 291.345L168.703 294.735L162.267 299.141L146.164 309.076L128.745 320.275L122.309 324.681L120.081 326.206L115.872 329.088L112.902 331.121L110.752 332.23L109.762 332.908L109.097 332.999L109.254 332.165L109.969 329.493L111.845 326.391L113.721 323.289L118.774 314.739L128.009 301.145L133.415 294.172L145.295 279.13L151.691 271.479L155.221 267.608L158.178 264.492L160.732 262.381L162.79 260.608L163.533 260.099L165.93 258.822L166.347 258.9L167.52 259.551L168.863 260.45L169.958 261.518L171.639 262.912L173.581 265.218L175.446 267.94L177.479 270.911L179.865 275.458L180.987 278.69L181.939 281.673L182.722 284.41L182.821 284.667Z" stroke="black"/>
<path d="M162.012 264.511L157.182 270.923L148.257 283.238L139.143 295.32L123.221 315.668L117.153 322.941L113.728 327.285L112.523 328.655L110.578 331.017L109.097 332.999L108.865 333.189L109.183 332.155L109.544 330.699L110.18 328.631L111.324 325.762L112.553 322.049L114.1 317.301L118.296 305.36L120.902 298.588L123.085 291.773L125.354 284.114L126.265 281.435L128.73 269.744L129.433 264.911L130.051 260.923L130.436 257.124L130.589 253.515L130.552 249.673L130.362 249.441L130.594 249.251L132.326 249L136.779 249.238L142.792 250.914L149.436 254.786L157.365 260.707L160.105 263.117L162.012 264.511Z" stroke="black"/>
<path d="M116.233 301.115L114.756 305.366L114.355 307.069L112.74 314.828L112.03 318.52L111.514 321.834L110.689 327.136L110.471 329.411L109.979 330.828L109.772 332.153L109.383 332.908L109.098 332.999L108.824 332.142L107.922 328.335L106.096 322.62L105.116 317.579L103.484 311.487L102.15 304.354L99.0937 290.844L97.4503 285.7L96.7199 283.414L94.4492 275.321L94.6437 274.944L95.0208 275.138L95.5923 274.956L96.6322 275.253L97.3864 275.642L98.7002 276.797L101.236 278.821L103.304 280.365L108.548 285.934L113.414 291.308L118.165 297.368L116.233 301.115Z" stroke="black"/>
<path d="M108.807 332.924L108.377 332.192L107.732 331.095L106.742 327.74L106.107 325.406L105.258 322.706L104.634 319.135L103.881 313.671L103.122 309.469L102.461 309.584L98.8151 310.499L94.8786 311.337L92.835 312.047L89.845 312.822L88.4576 313.392L88.0919 313.607L87.7262 313.822L87.1454 313.672L85.1771 314.091L84.8114 314.306L84.521 314.231L83.865 314.371L83.4993 314.586L83.7144 314.951L85.5966 316.059L86.898 317.016L88.8555 317.834L91.0282 319.017L93.1255 320.49L101.73 326.75L106.28 330.719L107.796 332.042L108.807 332.924ZM108.807 332.924L109.098 332.999" stroke="black"/>
<path d="M67.6233 338.166L71.5265 336.976L74.287 336.804L79.3289 336.098L83.2911 335.329L87.4927 334.74L91.5137 334.391L95.0556 333.681L98.8371 333.151L102.257 333.1L105.018 332.928L109.098 332.999L110.539 332.583L109.82 332.041L108.862 331.318L107.244 330.474L106.286 329.751L99.8785 325.294L95.8658 322.643L91.5546 319.391L82.6299 313.787L78.3776 310.955L76.8535 309.805L75.7307 313.468L74.5798 317.485L73.2481 321.741L71.8536 327.077L71.005 330.195L70.3372 333.073L68.4677 336.548L67.8039 337.926L67.6233 338.166ZM67.6233 338.166L67.4426 338.405" stroke="black"/>
<path d="M60.8352 339.263L63.9633 338.68L69.1818 337.666L75.8654 337.092L84.4256 335.792L94.1523 334.902L104.206 333.742L107.249 333.427L107.875 333.185L109.098 332.999L109.396 333.027L108.416 333.839L106.482 335.163L104.251 336.459L100.74 338.538L93.6894 342.994L92.1114 343.749L87.6761 346.043L83.8382 348.392L79.7016 350.713L73.305 354.629L72.0257 355.412L70.1208 356.438L68.8134 357.52L67.8327 358.331L67.32 357.379L66.8073 356.426L66.0523 354.848L64.0861 350.143L62.8748 347.015L60.8352 339.263Z" stroke="black"/>
<path d="M54 366.823L55.6998 365.95L69.6523 357.668L82.6636 349.269L88.1386 346.038L90.3169 344.688L94.3793 342.044L98.1474 339.459L101.15 337.639L103.917 336.171L105.801 334.878L106.625 334.408L109.097 332.999L109.215 333.587L108.564 336.47L107.209 338.881L105.381 341.997L102.966 345.23L100.315 348.816L97.4275 352.755L94.1877 356.459L89.8279 362.22L86.8824 365.864L84.4667 369.098L82.2868 371.979L80.4012 374.801L78.9869 376.917L78.574 377.917L77.9839 379.564L77.9238 380.799L77.8036 383.27L77.9792 384.153L77.3907 384.27L76.0967 383.915L71.8619 382.617L66.4518 380.022L63.6883 378.431L62.5714 377.43L59.985 375.191L57.9871 372.836L55.9307 370.186L54.4627 367.419L54 366.823Z" stroke="black"/>
<path d="M114.867 369.161L109.775 369.755L108.571 370.036L105.621 370.204L100.262 370.934L97.8533 371.498L95.5816 372.328L93.7064 372.617L92.2352 373.036L89.6892 373.333L88.6145 373.211L87.5397 373.088L86.5947 372.562L86.1907 372.433L85.7867 372.303L85.6496 372.036L85.5125 371.769L86.4351 370.283L87.0909 368.934L87.6171 367.989L90.9187 363.256L95.5394 356.496L98.048 352.845L99.5043 351.085L102.143 347.03L104.651 343.38L107.534 337.176L108.838 333.807L108.968 333.403L109.097 332.999L109.235 333.266L110.743 336.201L113.075 340.737L113.905 343.008L115.002 345.143L115.84 348.085L116.678 351.028L116.693 352.369L116.997 355.586L117.171 359.207L116.194 367.805L116.126 369.073L114.867 369.161Z" stroke="black"/>
<path d="M116.193 369.415L114.972 364.762L114.011 359.717L113.22 357.067L112.259 352.022L110.678 342.511L109.568 335.372L109.098 332.999L109.034 332.101L109.012 331.802L110.337 333.512L111.641 334.923L112.987 336.932L114.334 338.942L116.642 341.785L119.27 344.905L122.198 348.005L127.434 353.948L128.695 354.76L130.64 356.727L133.825 359.206L135.663 359.677L135.962 359.655L135.086 360.019L132.457 361.108L130.447 362.455L128.139 363.822L125.531 365.211L122.624 366.622L118.263 368.737L116.193 369.415Z" stroke="black"/>
<path d="M149.709 336.814L148.881 341.807L147.577 346.513L146.922 348.531L146.019 353.099L145.111 356.998L143.278 362.781L142.882 363.589L142.624 364.799L142.365 366.009L142.095 365.877L141.557 365.612L141.15 365.079L140.743 364.546L139.116 362.412L137.759 360.41L136.132 358.276L134.373 356.412L132.476 354.146L131.531 353.349L128.277 349.081L126.65 346.947L125.16 345.215L122.049 342.02L120.428 340.557L118.674 339.363L116.92 338.169L116.513 337.636L115.167 336.976L112.467 334.985L110.175 333.527L109.906 333.395L109.097 332.999L109.499 332.862L110.17 332.856L110.84 332.851L111.242 332.714L112.045 332.439L113.656 332.56L115.399 332.412L120.765 332.37L128.144 332.311L132.306 332.681L136.738 333.182L141.037 333.953L144.534 334.998L146.282 335.521L149.709 336.814Z" stroke="black"/>
<path d="M343.661 217.214L341.553 217.266L337.921 217.626L334.01 217.668L330.398 217.729L323.194 217.552L319.582 217.613L318.983 217.573L318.085 217.514L318.105 217.214L319.961 216.435L321.497 215.936L323.353 215.157L324.929 214.059L327.123 212.701L329.039 211.024L333.188 207.391L333.846 206.532L335.462 204.835L337.058 203.438L338.355 202.021L339.033 200.863L339.053 200.564L340.07 198.827L340.448 197.65L340.468 197.35L340.788 197.071L340.807 196.771L341.087 197.091L341.626 198.028L342.984 200.223L343.463 202.059L343.864 205.092L343.804 205.99L343.746 211.398L343.847 214.411L343.661 217.214Z" stroke="black"/>
<path d="M340.083 197.424L339.777 197.792L333.833 204.208L332.254 205.593L329.521 208.391L327.041 210.568L324.786 212.547L321.179 215.714L319.601 217.099L319.15 217.495L318.501 217.665L318.105 217.214L318.243 215.097L318.353 213.404L319.14 211.117L319.756 208.181L320.598 205.047L321.665 201.715L321.973 200.247L323.041 196.915L323.657 193.979L324.471 191.269L325.032 189.179L325.566 187.513L325.847 186.469L326.072 186.271L326.891 186.749L329.123 188.383L331.158 189.791L333.362 191.848L336.611 194.185L340.083 197.424Z" stroke="black"/>
<path d="M326.327 184.563L326.306 184.872L325.958 187.911L325.519 191.236L323.701 198.845L322.883 202.364L321.781 205.791L320.678 209.218L319.483 212.93L318.84 214.929L318.381 216.357L318.105 217.214L317.727 217.408L317.442 217.316L317.156 217.224L316.3 216.948L315.728 216.765L313.903 214.601L312.557 212.908L310.621 209.133L307.522 203.093L306.064 199.788L304.606 196.483L303.057 193.463L301.987 190.913L301.691 189.872L300.815 187.699L299.367 185.342L299.459 185.057L300.877 184.568L303.234 183.12L306.345 181.285L308.049 180.888L309.661 180.776L311.558 180.756L316.403 181.37L320.401 182.656L326.112 184.494L326.327 184.563Z" stroke="black"/>
<path d="M284.184 207.063L284.686 205.504L287.426 195.04L289.174 189.614L289.91 187.33L291.197 183.332L292.301 179.906L293.221 177.05L293.874 176L294.465 178.081L294.576 179.693L294.687 181.305L295.592 186.324L296.487 190.394L296.893 193.047L297.779 196.168L298.471 198.913L299.826 201.555L302.516 204.944L304.341 207.107L306.451 209.363L308.459 210.955L310.468 212.548L313.904 214.6L314.383 215.07L316.484 216.377L317.34 216.653L318.105 217.214L318.013 217.5L317.635 217.693L317.258 217.887L315.932 218.09L314.32 218.201L312.423 218.22L307.385 217.228L304.243 216.216L302.816 215.756L294.912 212.895L291.098 211.036L287.091 208.8L284.184 207.063Z" stroke="black"/>
<path d="M279.079 234.857L280.421 233.357L281.606 232.437L282.053 231.937L283.895 230.885L285.817 229.544L287.948 228.571L293.606 226.073L297.869 224.128L300.658 223.023L303.658 222.288L306.369 221.473L309 220.947L313.684 219.739L315.368 219.266L316.473 218.634L317.579 218.003L318.026 217.504L318.105 217.214L317.816 217.135L315.08 215.766L313.422 215.002L309.949 214.054L306.766 213.185L303.293 212.236L299.82 211.288L295.769 210.182L292.006 209.154L288.534 208.206L286.797 207.732L282.456 206.546L281.587 209.73L280.928 213.282L279.899 220.464L279.794 221.991L279.951 224.832L279.897 227.306L279.633 229.41L279.449 231.226L279.422 232.462L279.158 234.567L279.079 234.857ZM279.079 234.857L279 235.146" stroke="black"/>
<path d="M284.341 232.697L284.432 232.661L287.297 231.023L288.339 230.428L292.655 228.306L294.217 227.413L297.752 225.738L304.412 222.277L310.18 219.671L310.961 219.224L312.933 218.443L314.384 217.959L315.314 217.773L316.096 217.326L316.245 217.586L316.505 217.438L317.175 217.4L317.845 217.363L318.105 217.214L318.254 217.475L318.031 218.293L317.398 219L317.175 219.819L315.576 222.461L314.608 224.396L313.381 226.48L312.153 228.564L310.814 231.057L309.772 234.072L308.582 236.825L308.359 237.644L307.28 239.988L306.387 243.263L305.941 244.9L305.718 245.719L305.606 246.128L305.495 246.538L303.857 246.091L302.629 245.757L299.466 244.455L297.792 243.339L295.708 242.111L294.74 241.627L289.568 238.019L287 235.34L284.581 232.921L284.341 232.697Z" stroke="black"/>
<path d="M318.738 246.877L315.428 247.74L309.359 249.702L305.536 250.997L303.921 250.955L303.646 250.837L303.764 250.561L305.068 247.53L306.135 245.049L307.438 242.018L307.912 240.915L311.112 233.474L312.89 229.34L314.312 226.033L315.616 223.002L316.564 220.797L317.394 218.868L317.868 217.765L317.986 217.49L318.105 217.214L318.381 217.333L318.695 218.121L318.733 218.791L319.32 221.982L319.593 224.385L320.141 226.907L320.177 229.862L320.37 233.21L320.72 236.953L320.833 241.247L320.945 245.54L320.995 246.409L318.738 246.877Z" stroke="black"/>
<path d="M322.705 263.675L322.501 262.574L321.752 260.123L321.357 256.792L320.682 253.143L319.425 244.348L318.525 239.483L318.073 232.241L318.053 227.731L317.863 221.107L317.975 219.31L318.012 218.711L318.105 217.214L318.704 217.251L319.003 217.27L319.584 217.607L320.445 218.261L321.324 218.616L324.151 221.497L326.416 223.742L328.981 226.005L332.107 228.905L335.252 231.505L338.416 233.805L339.857 234.797L342.44 236.761L344.742 238.406L347.906 240.707L348.205 240.726L348.767 241.362L347.458 243.084L346.822 243.645L343.567 247.651L339.04 252.781L336.159 255.607L332.998 258.116L329.555 260.307L326.113 262.498L322.705 263.675Z" stroke="black"/>
<path d="M387.315 238.254L386.905 238.365L385.975 238.177L384.636 238.1L383.446 237.763L378.647 237.084L375.635 235.702L374.185 235.216L370.244 233.646L366.042 231.926L361.58 230.057L356.858 228.039L352.098 226.691L342.577 223.994L335.027 222.083L330.266 220.734L325.915 219.275L320.374 217.479L320.114 217.329L318.775 217.253L318.514 217.103L318.365 217.363L318.105 217.214L317.956 217.474L318.216 217.624L318.327 218.033L318.698 218.592L319.329 219.3L320.592 220.717L322.114 222.282L324.418 224.296L331.217 229.927L339.095 235.486L346.564 241.156L355.074 247.423L364.364 254.138L373.134 260.554L373.206 260.609L375.595 257.47L378.693 252.676L380.037 250.334L381.38 247.992L383.134 245.539L384.179 243.718L384.926 242.417L385.672 241.116L386.419 239.815L387.016 238.774L387.166 238.514L387.315 238.254ZM387.315 238.254L387.575 238.403L387.724 238.143L387.464 237.994L387.315 238.254Z" stroke="black"/>
<path d="M394.496 88.1842L392.363 88.4853L390.019 89.0821L384.544 89.7465L378.491 90.251L370.622 90.5648L363.412 90.7494L349.601 90.042L339.499 89.4269L334.344 88.9347L330.505 88.1842L330.216 88.1042L329.927 88.0243L330.087 87.446L330.567 85.7111L331.754 84.7945L332.941 83.8778L338.238 81.6077L342.138 79.8851L346.328 78.2425L356.473 74.2006L363.615 70.8847L368.333 68.4546L372.603 66.5229L375.925 64.6403L378.798 63.2561L381.462 61.5028L382.938 60.6661L383.836 59.6695L384.815 58.3837L384.895 58.0946L384.975 57.8054L385.184 58.1745L386.937 60.8383L387.903 62.9731L389.447 65.2678L391.846 71.2229L393.249 76.2798L393.815 79.8602L394.381 83.4407L394.498 87.5195L394.496 88.1842Z" stroke="black"/>
<path d="M352.633 56.6492L356.256 57.1848L360.147 57.5862L364.172 57.585L372.892 56.9117L376.917 56.2397L380.673 55.7019L382.149 55.299L386.71 54.3585L388.32 54.2239L388.723 54.3579L389.125 54.492L389.26 54.7603L388.991 55.5653L386.711 57.7126L386.041 58.3836L383.76 59.8601L380.943 61.605L377.992 63.7525L372.761 66.7057L364.578 71.1355L359.883 73.8201L355.456 76.3705L351.164 78.5184L346.603 80.8005L344.993 81.606L337.481 85.3648L335.066 86.5729L333.457 87.3784L331.847 88.1838L330.908 88.3183L330.64 88.4525L330.505 88.1842L330.774 88.05L331.31 87.1107L331.981 86.4397L332.92 85.6344L333.322 85.0976L333.992 83.7558L336.943 80.9375L340.43 77.1799L342.844 73.9592L344.722 71.6779L346.197 69.2625L348.745 65.6394L349.818 63.7607L350.891 61.8821L351.829 59.7352L352.559 56.6306L352.633 56.6492Z" stroke="black"/>
<path d="M347.889 63.8337L341.943 72.939L339.232 76.773L337.205 80.1047L335.314 82.5467L333.764 84.7375L331.531 87.4307L330.847 87.933L330.802 88.2296L330.505 88.1842L330.642 87.2946L330.868 85.8118L331.368 82.5498L331.867 79.2878L333.092 71.281L333.41 69.2052L334.091 64.757L334.862 59.7156L336.611 50.2715L337.382 45.2302L338.995 36.6757L339.585 32.8206L340.039 29.8551L340.22 28.6689L340.493 26.8896L340.629 26L340.925 26.0454L341.633 27.3677L341.839 28.0062L343.37 31.8824L344.148 34.7329L346.136 39.5896L347.577 44.0589L350.322 53.8872L351.566 58.0504L347.889 63.8337Z" stroke="black"/>
<path d="M323.751 45.7385L329.962 38.6944L332.624 35.6755L336.677 32.094L337.931 30.8745L338.665 30.4482L339.322 30.3119L339.612 30.3887L339.902 30.4656L339.671 31.3355L339.654 32.5724L339.773 34.466L339.721 38.1764L338.806 46.3136L338.447 51.184L337.797 55.9775L335.918 65.411L335.423 69.6246L333.194 78.0344L331.965 82.6743L331.273 85.2842L330.659 87.6042L330.505 88.1842L330.215 88.1073L329.439 86.35L329.226 85.9832L328.45 84.2259L327.905 81.5986L326.857 78.5276L326.116 74.2967L324.539 67.3616L321.736 54.5151L320.983 49.2218L323.751 45.7385Z" stroke="black"/>
<path d="M306.296 52.2327L307.921 47.8269L309.578 43.7192L311.236 39.6116L313.888 33.5827L314.882 31.6614L315.313 30.1045L315.545 29.475L315.843 29.442L316.141 29.4089L316.208 30.0053L316.638 31.1649L316.704 31.7613L318.194 37.0292L318.922 40.8724L321.205 50.5799L321.801 53.2304L324.482 63.7994L326.732 73.2087L327.493 77.3501L328.221 81.1933L329.181 84.4071L330.472 87.886L330.505 88.1842L330.207 88.2172L328.849 86.8586L327.822 85.765L326.464 84.4064L325.073 82.7496L322.655 79.9992L320.867 77.4809L316.562 71.3178L311.76 63.3987L308.846 58.8923L307.422 56.9374L305.641 54.1209L306.296 52.2327Z" stroke="black"/>
<path d="M301.59 48.5715L302.15 49.1486L306.05 54.1686L308.943 58.5373L311.583 62.7433L312.858 64.6388L315.572 68.178L317.96 72.2211L319.918 75.2719L322.038 78.0706L325.182 82.6022L325.776 83.3426L327.214 84.9862L328.563 86.215L330.505 88.1842L329.749 87.6958L328.578 87.2965L324.562 85.7732L319.197 83.0211L316.262 81.4822L311.979 78.7146L308.955 76.7609L305.842 74.3925L302.314 72.1132L298.86 69.1672L295.332 66.888L289.61 62.4767L288.602 61.8255L284.571 59.2206L283.222 57.9918L282.214 57.3406L281.621 56.6002L282.198 56.2591L283.353 55.5767L285.427 55.1309L291.886 52.8744L294.448 51.6726L297.099 50.8855L299.662 49.6837L300.817 49.0014L301.59 48.5715Z" stroke="black"/>
<path d="M288.057 60.7589L296.252 64.6129L301.856 67.4128L307.267 70.8552L312.241 73.8866L316.354 76.5198L320.479 79.5771L325.042 83.0455L328.976 86.7454L330.068 87.7731L330.287 87.9787L330.505 88.1842L330.3 88.4028L330.094 88.6213L328.398 88.6731L326.483 88.5195L323.707 87.9677L320.507 87.4288L316.665 86.6974L307.489 85.0679L302.798 84.3624L296.193 83.5033L292.145 82.9904L288.521 82.4645L285.539 82.1312L283.201 81.9905L282.352 82.0164L280.862 81.8498L278.947 81.6961L278.715 81.0665L278.702 80.6424L278.677 79.7943L279.434 76.7999L280.025 75.2962L281.232 73.137L284.032 67.5334L288.057 60.7589Z" stroke="black"/>
<path d="M272.159 80.8418L275.458 80.9176L278.45 81.2865L286.541 81.7725L305.108 83.3995L312.279 84.7645L317.664 85.4884L321.856 85.8848L325.734 86.8742L327.827 87.2224L329.312 87.8567L330.505 88.1842L330.498 88.4841L326.572 89.5942L323.259 90.1182L319.039 90.9215L316.933 91.1731L311.814 91.9557L301.268 93.814L296.142 94.8965L291.03 95.3792L284.704 96.4341L278.691 96.8961L276.578 97.4477L275.379 97.4201L274.179 97.3926L273.886 97.0858L273.893 96.7858L273.613 95.8792L273.334 94.9725L272.762 93.7591L272.503 91.9527L272.252 89.8463L272 87.74L272.145 81.4416L272.159 80.8418Z" stroke="black"/>
<path d="M292.958 93.8481L298.432 92.2888L303.997 91.3942L309.562 90.4996L319.363 88.8918L325.762 88.1543L327.756 87.8822L329.502 87.7794L330.336 87.9365L330.505 88.1842L330.01 88.5226L327.623 90.8793L325.067 92.9883L323.581 94.0035L315.327 100.004L310.711 103.884L305.757 107.268L301.388 110.978L297.515 114.35L292.482 118.151L289.678 120.429L284.971 123.644L283.485 124.659L282.494 125.336L282.977 123.916L283.382 122.913L283.944 121.076L284.27 120.49L284.832 118.653L286.361 113.976L286.832 111.474L287.551 108.803L288.989 103.462L289.943 99.5402L291.342 94.3413L292.958 93.8481Z" stroke="black"/>
<path d="M306.381 124.326L302.397 125.586L298.929 126.05L292.65 126.84L289.839 127.164L285.575 127.112L285.154 127.065L283.749 126.267L283.188 125.563L283 125.329L283.048 124.907L283.751 124.346L286.565 122.1L287.268 121.539L289.613 119.668L292.427 117.422L295.897 115.037L299.649 112.043L303.635 108.861L305.511 107.364L313.717 100.815L320.705 95.6222L323.94 93.4239L326.519 91.3655L328.395 89.8684L329.099 89.307L330.505 88.1842L330.693 88.4187L329.942 89.4017L329.144 90.8063L326.749 95.0202L326.185 96.2377L324.12 99.4212L321.539 103.401L318.91 107.802L315.999 112.811L313.088 117.821L309.586 123.589L306.381 124.326Z" stroke="black"/>
<path d="M311.627 139.122L310.165 139.808L307.225 140.755L301.55 142.432L300.922 142.665L300.278 142.474L299.43 142.503L298.992 142.093L298.773 141.888L298.907 139.549L299.097 138.906L299.874 136.757L301.047 133.746L305.455 125.957L308.076 121.836L312.102 115.334L317.535 106.449L320.156 102.328L325.235 95.5778L327.461 92.3193L329.686 89.0608L330.286 87.9794L330.505 88.1843L329.729 90.3329L329.362 92.0432L328.232 96.3262L327.836 97.1885L327.512 100.171L326.559 103.387L325.62 107.026L323.374 116.016L322.464 120.504L318.802 135.64L311.627 139.122Z" stroke="black"/>
<path d="M330.224 138.292L324.364 146.361L321.502 149.781L319.337 152.179L317.483 153.733L314.578 155.538L313.807 155.893L313.69 153.611L313.721 152.663L313.99 150.204L314.467 147.182L314.766 143.775L315.273 139.804L316.881 131.124L317.713 128.872L318.636 123.776L319.84 118.785L322.396 110.134L323.852 106.194L325.203 102.536L326.555 98.8778L328.218 94.3752L329.258 91.5611L330.401 88.4656L330.505 88.1842L330.934 89.6217L331.007 90.2885L331.418 95.2374L331.785 98.5713L332.226 102.572L332.636 107.521L332.93 110.188L333.206 116.367L333.66 122.93L333.979 130.724L334.115 133.666L330.224 138.292Z" stroke="black"/>
<path d="M333.798 129.673L333.13 127.315L331.592 122.452L330.912 117.318L329.251 108.09L329.28 106.192L328.766 102.579L328.824 98.7849L329.198 93.003L329.618 90.3528L330.31 88.5607L330.505 88.1842L330.882 88.3797L331.725 89.0569L331.816 89.3429L333.684 91.2691L335.447 93.858L336.833 96.2512L338.687 99.1261L340.344 102.377L342.469 106.11L344.971 110.039L347.277 114.344L351.979 123.24L353.185 125.061L355.972 128.899L360.146 135.13L361.909 137.719L363.4 139.45L363.958 140.217L365.163 142.039L364.787 141.843L363.748 141.542L362.332 141.046L360.254 140.445L358.085 139.558L352.709 137.483L349.592 136.581L345.917 134.912L340.827 132.746L336.866 131.167L333.798 129.673Z" stroke="black"/>
<path d="M349.383 117.603L344.963 111.763L341.022 106.394L335.156 98.196L333.231 95.3683L330.827 92.0709L329.566 89.142L329.658 88.8565L330.505 88.1842L331.647 88.5527L334.309 89.0964L341.253 91.022L345.914 92.2105L350.767 93.7767L355.906 95.435L361.045 97.0934L363.044 97.7383L371.609 100.502L375.035 101.608L377.89 102.529L381.316 103.635L381.601 103.727L381.325 104.583L380.293 105.826L378.976 106.978L377.281 108.322L374.831 110.053L371.525 111.508L370.392 112.088L366.33 113.93L357.166 117.908L352.634 120.228L351.469 120.76L349.383 117.603Z" stroke="black"/>
<path d="M411.987 293.841L415.603 296.217L419.219 298.593L422.535 300.971L428.555 303.931L430.663 305.117L432.469 306.005L433.074 306.901L433.676 307.197L433.98 307.795L433.982 308.095L432.185 308.407L430.085 308.421L427.387 308.739L424.687 308.757L415.387 308.819L413.887 308.829L406.387 308.879L402.785 308.603L399.185 308.627L395.885 308.649L390.783 308.383L389.581 308.091L389.281 308.093L388.981 308.095L389.875 307.189L391.067 305.981L392.859 304.769L393.455 304.165L396.145 302.647L403.017 298.401L411.649 293.599L411.987 293.841Z" stroke="black"/>
<path d="M423.448 286.053L417.371 290.569L408.923 296.316L404.731 298.892L401.166 301.232L397.932 303.305L394.069 305.613L391.855 306.587L388.981 308.095L389.013 307.796L389.044 307.498L390.159 305.504L390.913 304.075L391.698 302.347L393.111 300.385L394.257 298.092L394.649 297.228L397.931 291.842L399.768 288.717L401.338 285.262L402.578 282.074L404.148 278.62L405.655 275.762L407.854 272.071L409 269.779L409.785 268.051L410.695 265.131L410.994 265.162L411.417 264L411.716 264.031L411.684 264.33L412.485 265.319L413.522 266.936L415.155 268.616L418.029 272.84L418.531 273.798L420.071 276.373L422.458 282.356L423.337 285.465L423.448 286.053Z" stroke="black"/>
<path d="M405.698 275.241L403.382 280.598L400.061 287.221L394.376 298.394L392.036 302.52L391.344 303.546L390.163 305.82L388.982 308.095L388.691 305.531L388.758 304.26L388.779 299.8L388.511 296.812L388.065 293.177L387.931 291.683L387.64 285.083L387.75 278.928L387.504 275.517L387.459 272.328L386.656 267.4L386.678 266.976L386.321 265.683L385.763 264.167L386.165 264.613L388.439 265.794L390.513 266.753L392.587 267.711L394.862 268.893L400.013 271.924L402.913 273.351L404.139 274.265L405.698 275.241Z" stroke="black"/>
<path d="M369.153 287.5L372.525 284.065L375.419 281.065L379.466 277.738L383.307 274.782L384.876 273.715L385.661 273.182L386.445 272.648L386.364 272.36L386.652 272.278L386.941 272.197L387.023 272.485L387.186 273.063L387.512 274.217L388.165 276.527L388.328 277.104L388.322 279.288L388.397 281.761L388.347 284.893L388.008 288.106L387.588 291.031L387.613 296.635L387.645 300.055L387.557 301.951L387.965 303.394L388.084 304.919L388.41 306.074L388.655 306.94L388.9 307.806L388.982 308.095L388.611 307.888L388.159 307.392L387.13 307.059L384.827 305.528L383.264 304.411L381.538 302.717L379.36 300.526L377.101 298.047L374.967 294.909L370.574 289.293L369.153 287.5Z" stroke="black"/>
<path d="M360.698 278.719L365.097 282.355L369.218 286.021L372.669 289.679L375.988 293.068L379.307 296.456L381.956 299.838L386.063 304.845L386.727 305.522L388.58 307.957L388.981 308.095L388.442 308.358L386.561 308.607L386.291 308.738L384.687 308.185L382.55 307.223L380.282 305.992L377.613 304.623L374.003 303.378L370.13 301.594L363.049 298.703L359.439 297.458L358.236 297.043L355.29 296.476L350.332 295.888L348.859 295.605L348.589 295.736L346.978 295.854L346.847 295.584L347.255 295.051L348.071 293.987L349.156 292.79L350.65 291.061L352.151 288.662L356.362 283.607L358.672 280.813L360.698 278.719Z" stroke="black"/>
<path d="M343 294.694L346.859 295.515L351.927 296.289L364.679 299.303L369.716 300.747L374.344 302.307L381.736 305.07L384.762 306.42L387.526 307.624L388.835 308.357L388.981 308.095L389.243 308.241L389.097 308.503L388.657 309.288L387.956 309.927L385.066 311.404L383.14 312.388L377.915 314.964L375.026 316.441L371.728 318.033L364.054 321.3L358.829 323.877L356.641 324.714L355.678 325.207L352.642 326.945L351.27 327.552L350.014 328.568L349.459 328.945L349.051 329.06L348.904 329.322L348.643 329.176L348.381 329.029L348.15 328.212L347.805 326.987L346.129 322.611L345.04 317.188L344.38 314.068L343.604 310.539L343.037 296.813L343 294.694Z" stroke="black"/>
<path d="M344.875 331.456L348.157 328.973L354.67 323.66L364.727 317.474L369.652 314.991L374.024 313.152L381.917 310.14L383.091 309.75L385.76 309.244L387.831 308.785L388.982 308.095L389.58 308.049L389.603 308.348L389.994 309.522L389.556 311.661L388.819 313.824L387.506 316.332L385.642 319.483L381.06 326.453L378.62 329.95L374.799 335.057L369.551 341.175L367.64 343.729L365.707 345.983L364.073 348.214L362.945 349.203L362.438 350.445L361.817 350.192L361.196 349.939L358.642 348.028L357.055 346.946L355.468 345.864L354.157 344.46L352.547 343.079L351.213 341.376L348.89 338.545L347.487 335.945L345.762 333.068L344.875 331.456Z" stroke="black"/>
<path d="M363.077 349.425L366.889 343.283L376.251 328.715L380.044 322.677L382.95 317.885L384.069 316.009L386.088 312.463L388.313 309.135L388.981 308.095L389.392 308.532L389.803 308.969L390.612 310.267L391.203 311.771L391.78 313.699L392.857 320.099L393.794 324.16L394.42 331.395L394.907 336.291L394.969 341.175L394.607 346.045L394.477 350.286L394.154 353.884L394.063 356.852L394.242 357.919L394.177 360.039L393.893 362.365L393.469 362.352L391.992 362.094L387.585 360.473L386.326 360.01L383.396 358.647L379.824 357.476L371.666 353.617L367.272 351.572L363.302 349.54L363.077 349.425Z" stroke="black"/>
<path d="M394.715 371.434L393.69 362.22L392.48 350.869L391.987 347.29L390.809 336.538L390.011 327.267L389.367 315.284L389.142 311.091L389.062 309.593L388.981 308.095L389.329 308.977L389.977 309.844L390.672 311.609L391.7 313.958L392.759 316.905L395.226 323.682L396.617 327.213L398.025 331.043L401.754 338.954L403.461 342.768L404.456 344.518L407.539 351.562L409.925 356.842L410.653 359.206L411.996 361.838L412.36 363.02L412.724 364.203L412.756 364.802L412.772 365.101L412.489 365.417L412.189 365.433L412.205 365.733L411.055 366.696L409.022 368.007L407.84 368.37L404.278 369.163L402.213 369.874L399.249 370.634L397.768 371.014L394.715 371.434Z" stroke="black"/>
<path d="M415.047 369.693L411.568 361.779L403.321 343.577L399.972 335.497L398.655 332.133L392.331 316.175L390.928 312.523L389.869 310.022L389.44 308.584L388.981 308.095L389.269 308.009L389.844 307.838L390.505 307.954L391.337 308.645L392.628 309.825L394.953 311.323L400.375 316.906L405.54 321.627L409.212 325.54L413.63 329.858L418.048 334.175L421.72 338.089L425.594 341.629L426.971 343.097L429.926 345.659L432.423 347.732L434.46 349.316L436.125 350.698L437.703 351.792L437.789 352.08L437.386 352.826L435.6 355.237L432.922 358.853L430.965 360.689L428.923 362.238L426.305 363.957L423.027 365.561L419.547 367.539L415.047 369.693Z" stroke="black"/>
<path d="M437.697 351.786L433.17 348.06L426.373 342.283L418.607 336.027L404.454 324.105L398.627 318.808L397.058 317.289L391.45 311.173L389.991 309.244L388.982 308.095L388.832 307.835L389.091 307.685L390.131 307.085L390.95 307.305L393.559 308.224L396.467 309.663L400.345 311.582L404.373 313.761L415.038 319.037L426.892 323.973L431.439 325.852L433.378 326.811L440.534 329.609L443.253 330.119L445.302 330.668L446.121 330.888L447.87 330.918L448.02 331.178L448.28 331.028L448.06 331.848L447.401 334.306L445.672 339.114L444.083 341.762L441.315 347.17L439.576 349.558L438.947 350.268L437.697 351.786Z" stroke="black"/>
<path d="M558.498 219.219L557.854 220.396L557.221 221.273L556.566 222.749L555.277 225.103L554.311 226.868L552.734 228.911L551.445 231.265L549.568 233.296L547.68 235.627L546.081 238.27L541.971 243.821L539.117 247.917L535.363 251.98L533.83 252.824L532.586 253.978L531.965 254.556L531.043 255.122L530.421 255.699L529.199 256.254L528.577 256.831L528.267 257.12L528.255 257.419L529.155 257.453L530.354 257.498L533.363 257.31L546.276 257.19L548.675 257.279L554.97 257.514L568.783 257.428L573.274 257.498L572.459 255.464L568.641 245.114L566.733 239.94L565.923 237.508L563.98 233.233L561.539 226.237L560.718 224.105L559.874 222.572L559.031 221.04L558.487 219.519L558.498 219.219ZM558.498 219.219L558.509 218.919" stroke="black"/>
<path d="M541.576 240.966L538.677 244.355L535.37 249.307L534.144 251.578L533.178 253.514L532.175 255.152L531.692 256.12L531.47 256.752L530.652 257.46L530.354 257.498L530.316 257.2L529.831 255.749L529.606 253.963L528.709 249.239L528.371 246.56L527.699 243.621L527.362 240.942L527.024 238.263L526.912 237.37L526.574 234.691L526.274 232.31L526.012 230.227L525.339 227.288L524.929 226.432L524.594 226.172L524.557 225.874L525.227 226.395L526.903 227.695L529.546 229.479L532.19 231.263L537.104 234.272L539.748 236.056L542.689 237.802L544.162 238.578L541.576 240.966Z" stroke="black"/>
<path d="M518.53 193L519.419 194.89L521.666 200.163L525.628 213.069L526.61 215.654L527.783 222.135L528.596 227.848L529.227 233.177L529.498 237.739L529.588 241.916L529.892 249.041L530.083 252.936L530.196 256.165L530.072 257.396L530.354 257.498L530.252 257.78L529.97 257.678L529.79 257.294L529.169 255.477L528.988 255.093L528.728 254.043L527.724 252.405L526.719 250.768L525.534 248.747L524.066 246.624L522.136 244.016L517.71 238.596L515.136 235.118L512.664 231.358L508.002 223.94L506.997 222.302L505.372 218.847L502.278 213.269L499.626 209.126L498.158 207.003L497.232 206.032L494.997 204.27L493.687 203.48L493.044 202.61L491.553 201.436L491.271 201.334L491.091 200.95L491.373 201.052L491.474 200.77L491.757 200.871L491.858 200.589L493.01 200.047L494.546 199.325L496.364 198.704L498.565 197.903L503.917 196.322L510.014 195.329L513.266 194.268L516.416 193.49L517.466 193.23L518.53 193Z" stroke="black"/>
<path d="M493.635 204.615L497.712 210.264L501.636 215.947L508.471 226.604L511.21 231.19L516.944 238.854L519.725 242.492L520.803 243.87L522.959 246.626L526.645 251.254L527.615 252.912L528.068 253.407L528.758 254.957L530.181 257.11L530.354 257.498L529.621 256.895L528.889 256.293L527.983 255.302L527.703 255.195L526.97 254.592L525.612 253.107L525.332 253L523.242 250.912L520.031 248.394L517.66 246.198L512.186 241.205L509.577 237.955L505.439 232.831L500.157 225.662L495.975 221.487L493.82 218.731L489.703 215.223L487.505 213.415L485.76 212.103L485.307 211.607L483.842 210.402L482.549 209.585L480.738 207.604L480.566 207.217L480.285 207.109L480.005 207.002L480.113 206.722L481.836 206.419L483.839 206.224L486.122 206.136L488.512 205.768L493.635 204.615Z" stroke="black"/>
<path d="M483.538 252.38L484.424 252.043L484.846 252.085L485.965 251.557L489.849 251.094L495.379 251.222L496.878 251.159L504.624 252.574L512.561 254.222L516.275 255.447L522.523 256.926L523.325 257.433L526.66 258.194L527.082 258.236L527.926 258.32L529.657 258.068L530.122 257.688L530.354 257.498L529.594 256.569L528.835 255.64L527.273 254.204L524.762 251.607L522.672 249.053L519.359 245.949L512.627 238.666L509.166 234.908L505.663 231.572L505.259 231.079L501.715 234.801L499.076 237.734L493.65 242.947L490.864 245.226L488.731 247.358L488.035 247.927L485.67 250.249L485.395 250.861L483.538 252.38ZM483.538 252.38L483.305 252.57" stroke="black"/>
<path d="M466.728 250.834L470.51 251.341L473.45 251.635L486.823 252.908L489.29 252.726L499.438 253.8L508.352 254.965L516.317 256.127L521.249 256.711L523.904 257.099L526.18 257.295L528.078 257.301L529.405 257.495L530.354 257.498L529.784 257.686L528.929 257.968L527.505 258.438L523.801 259.66L520.953 260.6L518.104 261.54L511.457 263.418L508.324 264.452L504.526 265.389L502.817 265.953L495.125 268.492L486.484 271.027L477.558 273.657L470.342 275.722L468.824 275.907L465.69 276.942L463.317 277.409L458.665 278.628L456.955 279.192L455.816 279.568L455.246 279.756L453.537 280.32L453.727 279.941L454.109 279.184L454.491 278.426L454.685 277.098L455.639 275.204L456.593 273.309L458.696 268.193L460.129 264.877L460.608 263.455L463.567 257.108L465.379 253.982L466.621 251.045L466.728 250.834Z" stroke="black"/>
<path d="M451 281.074L451.813 280.835L462.754 277.619L473.908 274.037L477.523 272.456L488.968 268.797L509.98 262.597L517.229 260.672L525.928 258.363L528.827 257.593L530.277 257.208L530.354 257.498L530.064 257.575L529.851 257.942L529.348 258.386L528.555 258.906L527.762 259.427L526.467 260.392L524.378 261.878L522.869 263.21L520.858 264.985L512.965 272.668L509.231 276.143L504.782 280.428L497.238 287.087L491.783 292.26L483.02 300.174L479.577 303.571L476.559 306.235L473.406 309.555L471.317 311.041L469.093 313.183L467.933 313.491L467.643 313.568L467.276 313.355L466.542 312.929L465.731 312.214L465.21 311.421L464.322 310.415L463.435 309.409L461.795 306.74L460.966 304.788L460.137 302.835L459.521 300.515L458.538 297.983L457.017 293.421L455.513 290.095L453.932 286.48L451.985 282.651L451 281.074Z" stroke="black"/>
<path d="M482.849 300.679L483.747 299.859L489.693 294.229L502.292 283.524L511.961 275.096L516.054 271.825L518.934 269.128L522.792 265.673L524.88 263.498L526.547 261.375L529.057 259.149L529.428 258.678L530.354 257.498L530.169 257.734L529.798 258.206L528.872 259.385L527.76 260.801L526.514 262.874L522.439 268.065L520.216 270.897L517.807 273.965L514.102 278.684L509.1 285.055L506.507 288.359L504.098 291.426L499.467 297.325L496.873 300.629L493.909 304.404L492.613 306.056L490.945 308.18L490.575 308.652L490.389 308.888L490.153 308.702L490.103 308.281L489.816 307.675L489.715 306.832L489.479 306.647L488.248 305.3L487.776 304.929L486.782 303.767L485.13 302.47L482.849 300.679Z" stroke="black"/>
<path d="M535.553 304.411L535.309 303.494L535.103 301.978L534.634 299.845L533.922 296.795L533.528 293.464L532.87 284.706L532.551 280.178L532.213 275.949L532.343 273.853L532.172 266.929L531.909 261.502L531.159 259.051L530.354 257.498L528.857 257.405L527.903 258.247L526.649 259.071L525.34 260.793L524.012 262.814L520.645 268.617L518.943 271.817L518.251 273.277L514.604 278.761L512.659 281.045L510.732 283.029L509.822 283.899L513.54 286.209L516.74 287.911L521.626 291.522L525.894 295.394L527.897 297.021L528.44 297.957L529.862 299.248L531.285 300.538L532.408 301.811L533.55 302.783L534.991 303.775L535.553 304.411ZM535.553 304.411L535.534 304.71" stroke="black"/>
<path d="M557.127 288.686L554.626 288.732L547.574 288.107L541.546 286.858L538.917 286L536.388 284.729L534.115 283.303L533.135 282.846L531.631 280.951L529.715 278.957L527.22 274.856L526.541 273.162L526.118 271.313L525.795 269.051L525.684 267.714L525.829 266.221L525.874 265.14L526.632 262.923L527.345 261.787L528.058 260.65L528.872 259.102L529.585 257.965L529.841 257.81L530.098 257.654L530.354 257.498L530.51 257.754L531.546 258.879L533.105 261.442L533.573 262.211L534.765 263.593L536.269 265.487L537.36 267.281L539.276 269.276L542.284 273.065L544.044 274.803L545.86 277.21L549.068 280.174L552.644 284.32L556.164 287.796L557.127 288.686Z" stroke="black"/>
<path d="M562.936 295.453L561.892 294.825L558.226 292.215L553.038 288.743L549.98 286.418L543.869 282.069L541.425 280.329L538.974 278.29L537.437 276.827L535.9 275.365L533.419 272.126L532.774 270.341L531.845 269.164L531.208 267.68L530.263 265.903L530.248 265.303L529.926 264.41L529.574 262.319L529.544 261.119L529.814 259.912L530.106 259.604L530.099 259.305L530.092 259.005L530.077 258.405L530.062 257.805L530.054 257.505L530.354 257.498L530.661 257.79L531.284 258.675L532.513 259.845L533.743 261.014L537.394 263.024L539.53 264.472L542.267 265.904L545.603 267.321L548.939 268.739L553.805 271.319L557.141 272.736L560.17 273.861L562.899 274.994L565.628 276.126L567.75 276.974L569.572 277.829L570.179 278.113L573.216 279.538L574.423 279.808L576.544 280.656L578.666 281.503L578.966 281.496L579.273 281.788L578.389 282.411L577.796 282.725L577.211 283.34L576.911 283.348L574.265 285.514L572.495 286.759L570.44 288.61L568.093 290.769L565.739 292.628L563.399 295.087L562.936 295.453Z" stroke="black"/>
<path d="M275.627 290.244L274.284 291.743L273.388 292.741L270.701 295.738L268.968 297.068L267.067 298.787L264.886 300.616L262.985 302.334L260.467 304.942L259.123 306.44L257.669 307.66L256.884 308.937L255.203 311.214L254.924 311.325L255.034 311.604L255.144 311.883L255.812 311.941L256.87 312.169L260.49 312.351L263.053 312.307L266.563 312.21L270.352 312.004L274.252 312.076L279.935 311.767L283.556 311.949L289.013 311.883L288.079 309.518L286.866 306.448L285.485 303.768L284.214 301.367L282.664 299.077L280.336 296.448L278.727 294.826L277.508 293.372L276.788 292.366L275.737 290.523L275.627 290.244ZM275.627 290.244L275.517 289.965" stroke="black"/>
<path d="M286.496 278.153L285.618 279.113L281.326 283.735L277.03 288.78L272.737 293.402L265.015 301.381L263.724 303.064L260.723 306.002L258.789 308.315L257.288 309.784L256.645 310.414L255.787 311.253L255.144 311.883L254.72 311.878L254.515 311.239L254.537 309.118L254.98 307.426L255.641 305.099L257.182 299.812L259.153 294.105L259.59 292.837L260.261 289.662L261.182 282.883L261.428 279.704L261.459 276.734L261.272 274.398L260.871 272.273L260.884 271L261.094 271.214L261.938 271.648L264.269 271.885L267.444 272.555L269.351 272.788L271.258 273.02L273.584 273.681L275.696 274.552L282.037 276.742L285.632 277.841L286.496 278.153Z" stroke="black"/>
<path d="M259.967 277.532L259.506 279.603L258.953 282.088L257.893 284.894L257.293 289.542L256.97 292.947L256.738 295.938L256.507 298.929L255.907 303.577L255.952 305.325L255.491 307.396L255.468 308.477L254.915 310.962L254.983 311.629L255.144 311.883L254.891 312.044L254.73 311.79L254.569 311.537L254.179 310.364L253.88 308.776L253.238 303.852L252.48 300.423L250.734 292.645L249.058 285.535L248.208 282.52L246.875 278.746L245.035 275.294L244.231 274.028L243.748 273.269L243.104 272.256L242.943 272.003L243.196 271.842L244.024 272.027L246.095 272.488L247.337 272.764L248.994 273.133L250.65 273.502L251.225 273.847L255.435 275.437L257.575 276.565L259.967 277.532Z" stroke="black"/>
<path d="M235.193 298.22L236.912 295.761L240.459 288.284L241.702 286.298L242.561 285.068L244.562 283.465L245.132 283.278L245.702 283.091L245.987 282.998L246.08 283.283L246.365 283.189L246.459 283.475L247.207 285.755L247.487 286.61L248.048 288.321L248.511 290.695L250.381 296.396L251.031 299.34L252.433 303.616L253.274 306.181L254.677 310.457L255.051 311.597L255.144 311.883L254.766 311.691L253.63 311.116L252.401 310.256L250.793 309.205L250.036 308.822L245.685 306.145L239.726 302.416L236.226 300.407L234.661 299.508L235.193 298.22Z" stroke="black"/>
<path d="M222.565 292.201L224.157 293.235L227.948 295.583L231.74 297.931L235.344 300.045L239.37 302.207L246.579 306.435L250.37 308.783L252.57 310.098L253.975 310.897L255.144 311.883L254.723 311.835L253.645 311.927L252.193 311.55L250.694 311.595L248.351 311.544L245.774 311.681L238.886 312.186L231.624 312.221L230.312 312.5L225.814 312.634L224.501 312.913L222.159 312.863L220.003 313.047L218.317 312.857L216.583 313.088L214.475 312.851L214.288 312.616L214.383 311.773L214.196 311.539L215.137 308.869L215.467 307.839L217.584 302.314L218.994 299.271L222.565 292.201Z" stroke="black"/>
<path d="M221.745 312.698L225.388 312.916L229 312.836L232.611 312.756L239.771 311.999L243.053 311.652L246.335 311.305L247.528 311.179L250.213 310.895L254.783 311.317L255.113 311.584L255.144 311.883L254.846 311.914L254.281 312.275L253.982 312.307L252.02 313.721L248.896 315.56L248.331 315.921L243.81 318.812L241.251 320.289L238.724 322.065L236.196 323.84L233.967 325.584L230.843 327.423L228.017 329.23L227.484 329.89L223.826 332.388L222.994 333.079L222.727 333.409L222.46 333.739L221.895 334.1L221.362 334.76L221.204 333.268L221.109 332.373L221.046 331.777L220.857 329.987L220.7 328.495L220.479 326.407L220.006 321.932L219.754 319.545L219.627 318.352L219.61 315.337L219.572 312.729L221.745 312.698Z" stroke="black"/>
<path d="M177 364.802L178.669 363.397L187.222 357.046L190.163 354.885L212.623 339.473L234.551 325.004L243.108 319.324L250.73 314.455L253.674 312.964L255.144 311.883L255.947 311.476L256.215 311.34L256.35 311.608L256.218 312.011L255.954 312.818L255.686 312.953L254.355 314.972L253.153 315.918L249.145 319.293L246.74 321.184L245.805 321.993L243.403 324.555L237.126 330.088L233.522 333.595L224.312 342.632L214.037 353.553L205.901 362.719L204.302 364.874L201.233 368.109L198.432 371.21L196.298 373.636L193.896 376.198L192.693 377.143L191.491 378.088L191.355 377.821L191.22 377.553L191.084 377.285L190.274 376.35L190.139 376.083L188.251 374.349L187.713 373.949L184.883 371.683L184.209 371.015L180.031 367.415L177 364.802Z" stroke="black"/>
<path d="M216.069 352.525L240.769 327.94L246.401 321.536L248.377 318.777L250.156 316.659L252.527 314.443L254.354 312.621L255.144 311.883L255.291 312.771L254.846 313.756L254.202 315.383L253.015 317.403L251.335 320.113L247.082 327.505L244.462 331.891L241.546 336.325L238.333 340.809L235.072 344.996L233.886 347.017L228.992 354.21L226.768 357.314L225.137 360.32L224.444 361.651L223.947 364.165L223.996 364.461L223.749 364.806L223.651 364.214L222.864 363.128L220.895 360.413L220.01 358.734L218.386 356.266L216.762 353.798L216.069 352.525Z" stroke="black"/>
<path d="M255.076 312.175L253.994 312.845L252.569 314.976L251.574 316.591L250.149 318.722L249.016 320.921L248.45 322.021L246.116 326.711L244.983 328.911L242.923 332.433L242.563 332.657L241.996 333.756L241.362 335.148L241.293 335.44L240.932 335.664L240.864 335.956L244.076 336.71L246.413 337.259L248.749 337.807L251.378 338.424L251.962 338.561L252.254 338.63L251.944 337.325L252.081 336.741L252.064 335.504L252.183 333.683L252.49 329.749L252.97 327.704L253.227 325.299L253.483 322.894L253.758 321.726L254.306 319.39L254.426 317.569L254.906 315.524L255.18 314.356L255.162 313.119L255.076 312.175ZM255.076 312.175L255.144 311.883" stroke="black"/>
<path d="M254.951 313.672L254.79 315.163L254.629 316.655L254.435 318.444L254.113 321.427L253.694 325.304L253.597 326.199L253.307 328.884L253.049 331.27L252.534 336.042L252.308 338.13L252.115 339.919L251.954 341.411L251.825 342.604L251.76 343.2L252.816 341.806L254.299 339.25L254.694 338.388L256.242 335.236L256.637 334.373L258.12 331.818L259.778 328.962L259.668 328.666L259.135 328.005L258.934 327.078L258.499 325.522L257.733 324.232L257.265 322.975L256.064 320.129L255.661 318.275L255.024 315.792L254.822 314.865L254.951 313.672ZM254.951 313.672L254.983 313.374L255.112 312.181M254.951 313.672L255.112 312.181M255.112 312.181L255.144 311.883" stroke="black"/>
<path d="M270.355 330.775L269.848 332.777L268.236 338.119L267.422 340.316L266.791 342.13L266.425 342.896L265.976 344.327L265.428 345.476L264.596 346.724L264.313 346.824L264.213 346.542L264.113 346.259L263.813 345.41L263.713 345.127L262.914 342.864L262.314 341.167L261.614 339.187L259.714 333.813L258.614 330.702L258.18 327.673L257.746 324.645L257.229 322.282L257.395 320.951L256.744 316.408L256.244 314.994L255.744 313.58L255.344 312.448L255.144 311.883L255.927 313.197L257.41 316.491L260.623 321.082L262.755 323.511L264.786 325.657L266.917 328.085L267.783 328.734L269.514 330.031L270.355 330.775Z" stroke="black"/>
<path d="M305.961 374.752L304.04 371.678L301.204 368.356L296.867 364.039L290.11 356.317L285.523 351.834L281.018 346.686L270.756 334.478L266.751 329.662L261.828 323.516L257.486 317.036L256.399 314.875L255.063 312.548L254.979 312.133L255.144 311.883L255.644 312.214L256.144 312.546L258.56 313.788L261.31 315.613L265.06 318.1L269.892 320.585L277.973 325.226L284.805 329.038L291.887 333.015L299.718 337.49L307.634 342.381L314.55 346.609L320.05 350.257L329.299 356.393L330.634 357.638L334.634 360.292L337.884 362.447L340.883 364.437L345.799 367.338L346.965 367.752L347.465 368.083L347.299 368.333L345.22 368.754L343.641 369.507L339.401 371.014L336.74 371.769L335.493 372.021L332 372.945L327.842 373.786L317.112 375.309L310.124 376.074L307.157 376.484L305.961 374.752Z" stroke="black"/>
<path d="M422.236 181.113L423.835 181.341L424.095 181.491L425.434 181.57L427.033 181.799L428.893 182.177L430.642 182.146L434.25 182.493L440.316 182.179L443.964 181.856L447.612 181.534L451.669 181.101L455.577 180.928L459.485 180.756L464.322 180.772L467.15 180.67L471.728 180.537L473.327 180.766L474.666 180.845L476.266 181.073L476.415 180.813L476.675 180.963L476.195 179.994L474.753 177.087L474.092 174.628L471.989 169.263L469.997 164.307L468.075 160.431L465.893 156.404L463.538 152.172L463.452 152.229L462.033 153.489L459.945 154.71L457.818 156.6L454.721 158.971L449.497 163.233L445.392 166.754L437.111 172.716L429.988 177.269L427.9 178.49L424.434 180.302L423.055 180.892L422.236 181.113ZM422.236 181.113L421.976 180.963" stroke="black"/>
<path d="M449.002 162.241L448.269 162.749L440.348 168.954L436.298 171.616L432.542 174.218L428.198 176.94L424.148 179.602L423.091 180.43L421.975 180.963L421.916 180.669L421.796 180.081L421.616 179.199L422.259 177.844L424.714 173.364L425.65 171.948L428.927 166.994L429.864 165.579L431.677 162.454L433.135 159.096L435.057 153.499L435.46 150.968L435.689 149.085L435.569 148.497L435.618 145.731L435.732 144.789L436.5 145.552L437.621 146.548L438.862 148.132L440.398 149.656L443.413 153.941L445.188 156.641L447.79 160.397L449.002 162.241Z" stroke="black"/>
<path d="M431.559 152.158L430.96 153.358L427.663 159.36L424.967 165.061L424.068 167.762L422.871 172.562L422.872 174.962L422.874 177.062L422.574 178.563L422.276 180.663L422.276 180.963L421.976 180.963L421.375 179.763L420.773 176.164L420.472 174.664L420.17 170.464L419.567 165.664L419.262 156.064L419.257 147.664L419.555 143.764L419.854 142.564L420.151 136.864L420.45 135.364L420.449 134.464L420.449 134.164L421.05 134.763L422.551 137.163L423.752 138.662L425.253 140.461L427.054 142.26L427.654 143.16L429.755 145.259L431.857 147.357L433.958 149.456L431.559 152.158Z" stroke="black"/>
<path d="M421.167 140.612L421.174 140.671L421.703 145.385L422.864 155.89L422.967 161.396L422.725 169.442L422.461 173.729L422.016 179.622L421.996 180.292L421.976 180.963L421.691 181.491L421.041 180.801L420.919 180.394L420.045 178.22L419.048 175.64L414.251 165.563L412.218 161.744L409.921 157.782L408.031 153.699L404.433 148.356L402.116 145.065L399.921 142.18L396.547 138.32L395.104 137.203L394.84 137.061L393.783 136.492L394.047 136.634L394.982 136.797L398.965 138.259L400.306 138.299L406.585 139.293L409.795 139.658L416.622 140.266L420.097 140.773L421.167 140.612Z" stroke="black"/>
<path d="M379 149.555L383.453 143.015L385.729 138.694L387.562 135.806L389.395 132.918L390.301 131L390.588 131.088L391.073 131.552L391.667 132.677L393.451 136.054L394.64 138.304L395.939 141.217L396.951 144.041L398.954 148.741L400.165 151.94L403.247 158.229L404.744 161.516L406.33 164.518L408.577 167.409L412.388 172.353L413.447 172.993L416.752 176.525L419.176 178.843L420.146 179.77L421.204 180.411L421.976 180.963L421.491 180.499L420.609 179.286L419.728 178.072L418.759 177.144L417.017 175.665L415.563 174.274L410.668 171.822L405.289 168.906L402.511 167.734L398.763 165.636L396.162 163.891L394.421 162.412L391.027 159.167L389.573 157.776L388.691 156.562L388.493 156.187L388.295 155.812L388.097 155.437L387.612 154.973L387.127 154.509L384.813 152.853L384.239 152.676L382.123 151.395L381.065 150.755L380.293 150.203L379 149.555Z" stroke="black"/>
<path d="M391.479 158.674L396.799 162.965L402.692 168.189L406.598 171.225L409.375 173.106L412.152 174.988L414.501 176.352L418.65 178.839L420.45 179.962L421.548 180.446L421.976 180.963L419.417 180.817L417.132 180.793L411.433 179.589L406.161 178.902L402.23 178.151L395.037 176.616L390.129 175.105L388.087 174.532L386.44 173.805L386.134 173.014L386.101 172.344L386.675 170.302L387.886 167.557L389.55 163.045L390.155 161.672L391.479 158.674Z" stroke="black"/>
<path d="M399.98 176.452L402.861 177.104L406.037 177.698L409.508 178.234L411.096 178.531L417.331 179.131L419.566 179.605L421.212 180.197L421.917 180.669L421.976 180.963L420.857 181.49L420.621 181.843L419.502 182.371L416.793 184.131L414.907 185.422L412.376 186.535L410.196 187.884L409.077 188.412L404.483 191.463L402.303 192.812L400.418 194.103L397.414 195.921L397.12 195.98L397.181 194.744L397.301 193.803L397.362 192.568L397.306 190.744L397.606 187.626L398.147 181.096L398.328 178.92L398.741 177.92L398.896 176.314L399.98 176.452Z" stroke="black"/>
<path d="M399.264 194.684L400.343 193.958L404.144 191.683L407.658 189.722L409.116 188.755L412.317 186.507L417.589 183.565L420.804 181.617L421.976 180.963L422.275 180.949L422.016 181.862L420.681 185.526L419.592 187.978L417.385 192.283L415.736 195.661L414.088 199.04L412.44 202.418L411.077 205.483L409.987 207.935L408.952 211.586L408.979 212.185L409.02 213.084L408.761 213.997L408.693 212.498L408.026 211.027L407.045 209.27L405.737 206.927L404.103 203.998L402.454 200.769L401.487 199.312L399.825 195.784L399.264 194.684Z" stroke="black"/>
<path d="M408.383 214.943L409.881 209.968L412.008 202.902L413.374 198.83L414.74 194.758L416.131 191.533L418.732 186.151L420.136 183.351L421.371 182.042L421.976 180.963L422.593 180.308L424.981 182.148L426.073 183.177L427.881 186.944L428.598 189.682L428.698 193.075L429.452 197.085L429.576 201.326L429.844 203.228L430.598 207.238L431.134 211.042L431.876 214.628L432.593 217.366L434.002 221.994L434.233 222.624L434.913 224.089L435.362 224.925L435.592 225.555L432.381 224.588L431.52 224.189L428.308 223.222L424.442 221.638L416.503 218.687L408.758 215.094L408.383 214.943Z" stroke="black"/>
<path d="M453.38 215.695L451.207 220.319L449.458 224.207L447.786 228.385L444.632 235.136L443.072 237.42L442.437 238.523L441.089 240.439L440.587 240.885L440.298 240.963L439.54 239.303L438.783 237.643L437.869 235.403L437.09 232.506L436.7 231.058L434.461 223.893L432.144 216.439L431.131 212.673L429.828 208.985L428.736 204.93L426.965 199.503L425.952 195.737L425.094 192.551L424.236 189.364L423.535 186.757L422.521 182.991L422.209 181.832L421.976 180.963L422.711 181.386L423.814 182.022L427.435 185.086L431.211 188.73L434.542 191.872L438.185 196.173L443.165 201.978L453.492 215.416L453.38 215.695Z" stroke="black"/>
<path d="M461.72 224.411L456.827 219.569L451.195 213.272L449.754 211.631L446.746 208.076L443.466 204.649L435.979 197.239L429.69 190.257L427.209 187.116L426.296 185.889L424.6 183.704L422.503 181.377L421.976 180.963L422.247 180.835L423.046 181.121L423.174 181.392L425.028 182.506L425.428 182.649L427.139 184.162L429.393 185.42L434.414 189.018L445.269 195.832L449.106 198.331L456.795 202.659L458.521 203.502L461.973 205.188L466.88 207.845L471.274 209.417L471.402 209.689L471.131 209.817L470.032 211.001L469.061 212.455L467.803 214.709L464.604 219.873L462.933 222.655L461.72 224.411Z" stroke="black"/>
<path d="M460.287 203.076L455.524 201.075L434.584 190.11L430.427 187.28L425.476 183.931L423.515 182.422L423.142 181.952L421.976 180.963L422.211 180.777L425.072 180.04L429.659 180.998L430.689 181.331L440.795 184.422L447.724 185.437L452.174 185.739L455.359 185.894L461.073 186.341L463.602 186.634L466.13 186.927L468.003 187.357L468.189 187.592L468.091 188.435L467.71 189.886L466.907 191.287L465.82 193.297L464.263 195.68L461.522 200.915L461.003 201.709L460.287 203.076Z" stroke="black"/>
</svg>
