<svg width="624" height="618" viewBox="0 0 624 618" fill="none" xmlns="http://www.w3.org/2000/svg">
<rect width="624" height="618" fill="white"/>
<path d="M131.069 99.9999L126.836 100.093L122 100.19L117.194 99.9893L112.656 100.118L104.805 100.201L101.492 100.156L100 99.9999L100.989 99.1985L102.307 98.1299L105.87 95.788L111.255 93.335L112.542 92.5648L115.682 91.3852L122.558 89.0883L125.368 88.1758L128.116 87.8601L129.938 87.749L130.534 87.8115L131.131 87.8739L131.634 88.8315L131.808 90.0562L131.308 94.8301L131.294 97.845L131.069 99.9999Z" stroke="black"/>
<path d="M134.138 86.7029L133.006 87.1292L128.036 89.5581L117.151 94.3345L112.332 96.1099L104.889 98.5163L103.792 99.0885L101.75 99.5793L100.583 99.8598L100 100L101.621 97.7591L105.96 92.705L108.678 89.8918L112.271 86.8684L116.155 83.7748L119.678 80.4596L123.271 77.4361L124.519 76.2104L127.307 73.689L131.343 69.9419L131.564 69.5801L131.612 72.3455L132.243 74.9707L133.051 82.1817L134.138 86.7029Z" stroke="black"/>
<path d="M127.754 73.2519L122.78 79.5773L117.543 85.4579L112.623 90.1059L108.172 93.7795L104.861 96.432L101.139 98.9788L100 99.9999L99.2251 100.458L98.92 99.941L98.4623 99.1661L99.7312 94.2356L101.094 90.6435L102.668 86.2296L105.169 81.6163L108.035 76.4397L110.126 71.7207L118.558 57.6815L119.168 58.7148L122.982 65.1725L126.949 71.8886L127.754 73.2519Z" stroke="black"/>
<path d="M100.132 99.7304L101.054 97.8438L104.084 91.6447L104.875 90.0276L106.707 84.9127L109.599 78.3124L112.755 71.173L113.747 68.6525L113.671 68.6156L110.976 67.2981L109.09 66.3759L106.394 65.0584L106.125 64.9267M100.132 99.7304L100 100M100.132 99.7304L100.12 98.3889L100.114 97.7181L101.03 95.1606L101.401 91.6689L102.305 87.7698L103.077 84.1403L104.748 75.9409L105.389 72.5809L105.778 71.1016L105.891 68.8197L106.143 66.939L105.993 65.1962L106.125 64.9267M106.125 64.9267L105.855 64.7949" stroke="black"/>
<path d="M108.105 51.2711L106.734 59.0666L105.204 67.7615L102.653 83.7396L101.855 89.5097L100.855 95.8445L100.225 98.4869L100 100L99.6958 100.847L99.1311 100.644L98.6678 100.159L97.8427 98.9064L97.3218 96.8067L94.9121 90.2034L93.1248 85.4175L90.9755 79.864L88.4863 72.5947L83.8479 59.7718L80.794 52.2996L79.0862 48.1798L77.3564 45.0083L75.7061 42.503L74.4178 40.7652L74.1354 40.6638L73.028 39.3097L75.569 40.2224L78.6747 41.3379L82.0628 42.5549L85.8346 43.5909L90.3521 45.2135L95.7165 47.1403L107.394 51.0158L108.105 51.2711Z" stroke="black"/>
<path d="M71.2248 35.2524L73.0098 38.5835L74.2524 40.5008L77.0425 46.1093L85.6067 62.2928L93.4872 79.8113L93.986 80.9432L95.3902 85.5722L96.7944 90.2013L99.2979 97.6854L100 100L100.152 100.887L100.203 101.183L99.9075 101.233L98.9697 101.09L96.7477 100.559L90.6128 96.7426L77.7426 87.3869L68.7761 79.4913L59.015 70.5146L56.0908 67.6687L40.0841 52.4596L35.2752 47.5024L31.7089 44.4624L28.4382 41.3716L26.7567 40.443L25.7681 40.0041L26.3594 39.9024L27.2972 40.0457L27.5929 39.9949L36.4629 38.4708L39.7152 37.912L48.2896 36.4387L53.0203 35.6259L59.3309 35.1504L68.4549 35.1046L71.2248 35.2524Z" stroke="black"/>
<path d="M51.7439 60.9983L67.864 72.1755L78.2591 80.0977L92.5737 92.1585L94.4418 93.6948L97.5477 96.538L99.198 98.2805L100.023 99.1518L100.436 99.5875L100 100L98.3036 99.9539L95.5527 99.6669L83.9416 97.4413L64.7889 91.6152L54.6795 88.7938L46.0488 86.2248L35.3205 82.7499L30.8962 81.5686L29.4291 80.892L28.3746 80.6511L29.4637 79.6197L32.708 77.3736L38.7723 72.8699L43.7706 68.5494L46.8201 65.6614L51.7439 60.9983Z" stroke="black"/>
<path d="M49.3477 86.3168L52.3534 86.9044L61.6306 88.8875L77.1434 92.1066L89.7208 94.9893L94.3134 96.6501L97.4612 97.8081L98.2367 98.2649L99.2706 98.8739L100.305 99.483L100 100L96.5618 101.108L87.3588 101.954L79.6927 101.965L69.7603 101.685L66.4141 101.454L51.0216 100.395L42.3215 99.7967L39.7969 99.354L39.1276 99.308L38.8691 99.1557L39.0214 98.8972L41.4718 96.5107L43.3592 94.4888L45.8556 91.4331L49.3477 86.3168Z" stroke="black"/>
<path d="M52.5776 99.4609L52.8797 99.4197L62.8098 98.9575L75.1243 98.901L82.9167 99.2453L93.1068 99.6955L96.7033 99.8544L97.9021 99.9074L99.1009 99.9603L100 100L100.287 100.313L100.26 100.912L99.9338 101.499L98.995 102.358L93.1417 105.703L83.6389 110.088L77.5123 112.82L71.6987 115.266L69.248 116.359L60.0714 120.157L56.6952 121.81L54.2446 122.903L52.3934 124.022L51.7939 123.996L51.8204 123.396L51.9926 119.5L52.0588 118.002L51.9047 114.692L52.1033 110.196L52.5138 100.905L52.5776 99.4609Z" stroke="black"/>
<path d="M99.0914 100.987L98.6371 101.481L96.7806 102.507L91.2111 105.586L87.5654 106.971L83.5719 109.131L79.3653 110.729L74.5979 112.54L70.1109 114.245L64.4348 117.044L61.737 118.39L59.8805 119.416L58.9719 120.403L58.798 120.79L59.3981 121.525L60.733 121.66L62.1744 122.075L67.9682 122.12L72.6562 122.96L73.4815 122.271L80.2682 116.483L90.7286 107.695L94.2959 104.414L95.7654 103.214L99.0914 100.987ZM99.0914 100.987L99.8262 100.387L100 100L99.0914 100.987Z" stroke="black"/>
<path d="M70.9461 136.596L63.2338 130.872L65.1899 128.519L66.1679 127.343L68.9678 125.08L72.001 122.629L75.5009 119.8L79.2341 116.783L83.3892 113.811L87.1224 110.793L100 100L99.2105 101.41L97.2544 103.762L94.5536 107.102L91.0633 111.851L86.0835 118.576L76.0919 134.988L70.9461 136.596Z" stroke="black"/>
<path d="M80.6917 141.181L73.3481 146.243L68.8387 148.911L67.4752 149.777L66.7058 150.332L66.287 150.4L65.8002 150.05L66.9594 147.927L67.242 147.021L68.6446 145.074L70.2226 142.883L72.1512 140.205L74.674 137.216L76.9533 134.051L80.8787 129.115L83.684 125.22L89.3627 117.849L91.7492 114.022L94.5545 110.127L96.7658 106.544L98.2075 103.515L98.9089 102.542L100 100L99.6493 100.487L98.3829 103.272L94.3009 112.532L90.6769 120.644L89.2351 123.672L85.1532 132.933L81.5988 140.622L80.6917 141.181Z" stroke="black"/>
<path d="M88.449 154.57L82.0552 157.412L79.4485 158.515L77.6777 159.471L74.4076 160.474L72.9084 160.521L72.6628 160.349L72.6417 157.768L74.9867 150.251L76.1721 145.951L78.3658 141.26L80.4863 136.151L83.8866 129.741L91.1781 117.266L95.1687 110.537L98.7413 103.881L99.6292 101.572L99.8276 100.246L99.9999 100L99.9007 100.663L99.8747 101.745L100.021 102.581L99.6242 105.234L98.4078 114.277L97.3426 120.494L96.7734 123.393L93.4316 141.207L91.2801 151.059L90.7851 153.414L88.449 154.57Z" stroke="black"/>
<path d="M102.896 148.231L99.7559 150.748L97.0134 153.119L93.0553 155.26L91.9869 155.428L91.0439 155.324L90.4989 155.073L90.4773 154.403L90.4341 153.062L90.4125 152.392L90.8711 149.961L91.4335 146.587L92.6233 141.85L94.3754 133.74L95.522 127.662L97.417 115.654L98.0617 110.667L99.0396 103.521L99.4982 101.09L99.8745 100.273L100 100L101.678 102.094L102.119 103.288L103.127 105.403L104.178 108.859L105.251 112.986L105.947 117.93L107.335 123.523L108.706 132.741L109.865 139.55L110.005 140.777L102.896 148.231Z" stroke="black"/>
<path d="M110.21 140.653L108.727 134.271L107.244 127.889L103.927 116.348L101.628 109.733L100.522 105.886L100.028 103.759L99.6787 101.894L99.621 100.553L100 100L101.107 100.758L102.796 102.565L105.068 105.422L106.349 107.113L113.687 118.48L118.87 126.582L123.908 134.423L134.042 148.356L139.284 154.71L144.76 160.249L146.566 161.648L147.003 162.435L147.148 162.697L146.07 162.609L144.847 162.259L141.7 160.918L138.699 159.838L134.854 157.855L130.863 155.61L121.104 150.39L118.773 149.281L113.821 146.54L110.966 144.694L110.21 140.653Z" stroke="black"/>
<path d="M142.46 138.346L143.467 145.868L143.935 153.654L143.791 154.726L143.648 155.798L143.372 156.601L142.965 157.134L142.695 157.266L142.426 157.398L140.827 156.176L138.838 153.475L136.855 150.103L134.076 145.785L128.523 136.478L123.091 128.783L113.549 115.415L106.643 107.438L101.461 101.623L100 100L102.138 100.958L102.671 101.365L105.205 103.132L112.135 108.426L116.801 111.822L125.066 117.798L136.931 126.356L141.375 130.233L142.46 138.346Z" stroke="black"/>
<path d="M118.651 113.629L115.018 110.974L112.353 109.027L106.298 104.602L104.36 103.186L103.633 102.655L102.422 101.77L100 100L100.177 99.7577L100.531 99.2733L102.254 97.9317L102.851 97.6243L104.593 97.7826L109.642 98.4997L112.223 98.5276L114.868 98.9747L117.337 99.664L118.176 99.5335L120.579 99.8036L122.806 100.316L124.548 100.474L125.451 100.763L126.532 100.81L126.355 101.052L126.243 101.713L125.955 102.617L124.669 105.393L122.368 108.542L119.359 112.66L118.651 113.629Z" stroke="black"/>
<path d="M346.106 100L345.255 100.03L337.702 100.124L332.237 100.443L327.07 100.793L321.637 100.814L316.768 101.196L312.23 101.313L304.677 101.407L303.782 101.311L301.694 101.087L300.501 100.959L299.606 100.863L300 100L300.991 99.2011L302.941 97.9018L303.601 97.3693L305.519 96.3682L307.501 94.7706L317.975 87.1448L320.883 85.3449L323.792 83.545L326.072 81.9794L327.329 81.5109L329.279 80.2116L332.518 78.1454L333.509 77.3466L334.798 76.5798L335.064 76.9101L335.501 78.4656L337.003 81.3423L337.503 82.3012L340.208 88.0225L341.944 91.5278L343.978 95.065L345.415 98.5383L346.106 100Z" stroke="black"/>
<path d="M341.576 72.0183L334.674 76.8184L322.097 85.5514L314.923 90.4824L310.876 93.0635L307.588 95.1606L305.059 96.7737L302.276 98.5482L300 100L299.839 99.7471L299.355 98.9883L298.871 98.2295L298.893 97.1481L299.168 95.9053L300.04 93.9257L301.257 91.3704L308.288 81.1935L312.562 75.621L315.963 72.0282L318.951 68.3438L321.594 65.235L324.145 62.5404L326.099 60.5826L328.973 58.3939L329.64 58.3242L333.255 60.6445L334.798 62.5067L336.503 64.6218L338.116 67.1512L340.627 70.531L341.576 72.0183Z" stroke="black"/>
<path d="M327.889 59.9501L321.968 68.0885L317.49 74.4823L310.769 84.823L308.287 88.5885L307.017 90.2611L304.898 93.5487L303.084 95.938L300.726 99.0442L300.544 99.2832L300 100L299.761 99.8186L299.283 99.4558L298.929 98.4337L299.186 95.6151L299.624 92.5576L300.672 87.7037L301.597 83.5091L302.729 74.5756L303.804 65.2217L304.127 61.3236L304.136 59.8236L304.525 54.8458L304.955 53.2883L305.202 51.9697L306.76 52.3989L308.317 52.8281L311.012 53.7439L316.22 55.8145L324.362 58.9825L326.578 59.5355L327.889 59.9501Z" stroke="black"/>
<path d="M281.966 72.2075L284.715 71.1234L287.151 70.3264L288.076 69.7652L292.636 68.4581L294.447 68.2349L297.183 67.4507L298.381 67.5017L299.593 67.2531L301.092 67.3169L301.691 67.3424L302.59 67.3807L303.177 67.706L303.464 68.0185L303.725 68.9304L303.687 69.8296L303.649 70.7288L303.336 71.0158L303.324 71.3155L302.998 71.9022L302.673 72.4889L302.348 73.0756L302.322 73.675L302.271 74.8739L301.857 77.5587L301.729 80.556L301.302 83.5405L301.174 86.5378L300.995 90.734L300.466 96.1163L300.013 99.7003L300 100L299.713 99.6875L297.704 97.5001L297.43 96.8879L296.021 94.7259L292.29 90.6635L290.282 88.476L288.573 86.3013L285.416 82.8639L285.142 82.2517L282.31 78.2276L279.804 73.6167L279.64 73.2494L281.966 72.2075Z" stroke="black"/>
<path d="M264.783 91.6411L264.15 88.9993L264.104 87.1024L264.443 85.3862L264.702 84.3361L265.526 83.0827L268.608 81.0158L271.509 79.3329L274.049 78.4178L276.793 78.0672L281.332 77.3888L283.048 77.7271L286.119 79.1717L287.373 79.9957L287.858 80.4585L290.309 83.7209L292.783 87.9318L294.262 90.2687L296.555 94.8635L297.549 96.7375L298.035 97.2003L299.514 99.5372L299.898 99.7177L300 100L299.718 100.102L299.616 99.8194L299.334 99.9211L298.001 99.7633L296.003 99.5266L294.671 99.3688L293.056 99.3127L291.34 98.9744L287.241 98.2188L284.091 97.4404L281.708 97.0232L279.891 96.4026L277.689 95.6014L273.771 94.4619L271.467 93.3785L268.113 92.0356L265.449 91.72L264.863 91.9312L264.783 91.6411Z" stroke="black"/>
<path d="M240.2 86.2678L246.257 90.1967L249.796 91.6929L253.334 93.1891L262.115 94.9181L271.952 96.0761L279.228 96.9143L283.415 97.7183L291.24 98.9414L295.142 99.2177L297.439 99.6803L299.329 100.022L300 100L299.066 100.165L298.802 100.307L295.428 99.7454L292.075 99.854L284.843 100.357L280.293 100.773L269.73 102.054L264.651 102.756L259.98 103.578L253.582 104.994L249.317 105.937L242.15 108.451L239.105 109.758L236.467 111.186L232.509 113.328L230.134 114.613L228.815 115.327L228.166 116.019L227.539 117.381L228.045 116.425L228.266 114.942L228.75 113.315L230.852 107.743L234.229 100.117L237.221 93.0398L239.223 88.5452L240.2 86.2678Z" stroke="black"/>
<path d="M231.958 116.322L232.871 116.612L238.005 117.658L242.866 118.579L252.525 118.409L262.247 115.955L266.353 114.215L270.711 111.93L276.388 108.932L280.222 107.066L286.968 103.901L290.027 102.999L292.541 101.846L293.735 101.405L295.872 101.07L298.533 100.315L300 100L299.874 100.272L299.749 100.545L299.372 101.362L297.801 102.62L295.831 104.024L293.59 105.303L290.95 106.728L287.787 108.573L284.099 110.837L280.287 113.373L271.509 120.227L263.025 127.877L261.328 129.407L257.809 132.739L254.018 135.946L248.152 141.5L243.879 146.467L242.476 148.793L242.099 149.61L239.942 153.571L239.188 155.206L238.329 157.783L238.246 159.396L238.372 159.124L238.497 158.852L238.874 158.034L239.104 156.819L238.852 153.068L238.097 150.408L237.09 143.996L236.69 139.848L235.872 135.175L234.424 127.57L232.222 117.303L231.958 116.322Z" stroke="black"/>
<path d="M260.913 137.595L261.577 137.303L270.942 134.326L275.584 132.39L279.871 129.884L283.859 127.406L290.746 120.441L294.402 114.378L296.189 110.898L297.677 107.446L299.624 102.445L299.569 101.848L300.326 100.271L300.299 99.9723L300 100L299.458 100.653L298.346 101.66L296.664 103.021L295.066 105.278L289.888 111.18L284.96 119.772L282.985 124.474L282.31 126.946L279.583 136.539L279.401 141.075L279.163 145.014L279.883 152.781L280.187 156.066L281.227 160.791L283.164 165.432L283.982 167.766L284.663 168.607L285.017 169.177L285.316 169.149L285.288 168.85L285.177 167.656L285.094 166.759L285.067 166.461L283.949 164.154L283.595 163.584L282.234 161.903L280.22 159.679L277.825 156.587L271.402 149.047L268.027 145.141L264.625 140.937L260.913 137.595Z" stroke="black"/>
<path d="M300.034 100.298L299.84 101.226L299.381 102.487L298.992 104.344L297.456 109.354L297.33 110.878L296.184 114.03L295.371 117.446L294.328 121.492L292.506 129.253L291.956 132.336L291.211 136.348L291.314 137.242L291.383 137.838L291.979 137.769L293.137 137.334L295.452 136.462L298.031 135.259L300.874 133.722L307.843 128.69L312.357 125.22L312.232 124.861L310.765 122.614L310.329 121.457L309.424 118.843L306.982 113.388L304.574 108.23L303.072 105.685L301.937 103.702L300.034 100.298ZM300.034 100.298L300 100" stroke="black"/>
<path d="M309.519 119.427L306.238 112.386L304.374 109.234L302.933 106.603L301.492 103.972L300.895 102.383L300 100L302.459 101.116L304.644 102.108L307.102 103.224L309.834 104.464L314.776 107.367L315.596 107.739L317.657 109.004L321.78 111.534L323.295 112.552L325.108 114.363L326.077 115.132L326.375 115.927L325.308 116.101L323.719 116.698L317.463 118.141L313.59 118.689L309.519 119.427Z" stroke="black"/>
<path d="M342.971 125.948L337.323 122.507L329.886 117.952L323.12 113.409L316.874 109.814L312.225 107.051L307.31 104.15L304.383 102.624L302.255 101.514L301.989 101.376L301.064 100.555L300.266 100.139L300 100L300.139 99.734L300.405 99.8727L300.543 99.6067L303.088 99.9183L308.569 101.085L312.444 102.09L316.722 102.968L321.533 104.123L331.549 106.977L333.688 107.416L338.233 108.433L345.033 110.964L347.566 111.946L348.098 112.224L349.162 112.779L349.555 113.322L349.417 113.588L349.001 114.386L348.585 115.184L347.614 117.046L346.365 119.44L346.088 119.972L345.117 121.834L344.146 123.696L342.971 125.948Z" stroke="black"/>
<path d="M549.98 100L536.998 99.7748L527.979 99.8881L520.754 99.8591L515.323 99.6878L510.814 99.7445L505.706 99.8485L503.612 100.015L500 100L500.873 99.6298L502.62 98.8894L505.863 98.0305L509.703 97.1241L514.441 96.1465L520.052 94.7988L522.696 93.9873L533.296 91.0401L541.803 88.259L547.091 86.6359L547.689 86.5885L548.563 86.2183L548.862 86.1946L548.933 87.0918L549.028 88.288L549.36 92.4749L549.929 99.6523L549.98 100Z" stroke="black"/>
<path d="M542.087 88.1088L537.514 89.2997L521.622 93.7486L511.322 97.0512L505.806 98.4878L503.194 99.1683L501.742 99.5464L500 100L499.849 99.4194L499.773 99.1291L500.027 95.3429L501.025 93.2229L501.454 92.4911L503.172 89.5637L507.112 83.2673L509.335 79.8984L511.267 76.605L514.854 71.3308L515.574 70.5234L517.569 66.2835L518.138 64.8954L518.631 63.217L518.845 62.8511L519.136 62.7754L519.426 62.6998L519.792 62.9145L521.546 63.6977L523.3 64.4809L525.205 65.8448L529.823 69.2922L531.741 71.8929L534.024 74.7083L537.051 79.19L539.271 82.952L542.087 88.1088Z" stroke="black"/>
<path d="M507.933 84.4961L507.165 86.2571L503.907 94.9054L502.717 97.402L500.869 99.7654L500.579 99.8436L500 100L499.632 99.7885L499.241 98.3404L498.561 96.9704L497.88 95.6005L497.333 93.5731L496.574 91.9135L495.659 89.6747L494.821 87.7255L493.75 84.9074L493.281 83.1696L492.811 81.4319L492.186 79.1148L492.108 78.8252L492.397 78.747L493.924 78.6456L496.843 79.1003L499.105 79.4218L503.551 79.7752L506.181 80.3081L508.732 80.5514L509.79 80.7017L507.933 84.4961Z" stroke="black"/>
<path d="M482.496 53.0365L482.916 54.4137L489.36 73.8481L492.52 81.9096L495.564 89.0786L497.369 93.6852L499.136 97.9943L500 100L500.038 100.298L499.107 100.115L498.099 99.3382L496.42 98.0428L494.96 96.1139L492.532 93.7054L489.469 91.0762L485.735 87.9289L477.336 81.452L473.304 78.3431L469.647 75.7908L468.264 74.457L465.279 72.4229L461.027 69.9475L459.088 68.9881L460.162 67.9417L463.128 65.1385L465.575 63.0073L468.578 60.5017L472.81 58.1398L476.188 56.1907L480.161 54.1647L482.496 53.0365Z" stroke="black"/>
<path d="M499.762 99.8173L499.048 99.2689L498.042 98.1172L496.614 97.0206L491.381 92.9996L484.72 87.882L477.345 82.216L474.014 79.6572L472.587 78.5606L469.256 76.0018L464.791 72.9498L463.419 72.2738L463.181 72.0911L462.395 72.622L461.847 73.3357L461.354 74.47L461.336 75.9699L461.87 81.6765L464.893 90.0521L468.6 98.9054L475.416 98.5148L482.074 98.712L486.153 98.8193L489.628 99.2197L492.866 99.4372L495.262 99.7651L496.342 99.8376L499.762 99.8173ZM499.762 99.8173L500 100" stroke="black"/>
<path d="M461.533 98.6591L470.553 97.023L480.946 95.6836L489.394 95.6514L495.778 96.2662L498.369 97.0233L499.233 97.2757L500 100L499.314 104.488L498.557 107.079L497.631 110.247L493.344 117.433L488.902 123.011L484.424 127.641L482.023 129.44L479.994 131.035L479.538 131.527L477.678 132.546L476.477 133.446L476.393 133.734L476.105 133.649L476.273 133.074L475.219 130.265L473.924 126.137L472.75 122.668L471.084 118.743L467.835 110.606L465.881 106.597L463.843 102.876L461.533 98.6591Z" stroke="black"/>
<path d="M482.187 125.952L484.887 121.927L485.975 119.706L488.445 115.325L492.965 107.087L494.89 103.817L496.272 101.658L498.177 99.9175L498.827 99.7494L499.413 99.8747L500 100L500.168 100.649L500.379 102.535L500.464 105.007L500.069 108.297L499.485 112.467L498.631 119.34L497.212 128.854L496.421 135.434L495.148 142.831L494.251 148.468L493.75 150.815L493.394 151.046L492.701 149.978L492.009 148.91L490.855 147.129L489.01 144.281L487.395 141.789L485.611 138.647L481.92 132.951L479.78 130.04L479.376 129.471L482.187 125.952Z" stroke="black"/>
<path d="M491.632 164.66L492.215 155.873L492.729 150.79L493.044 145.067L495.849 125.768L496.278 123.102L498.044 112.143L499.332 104.147L499.475 103.258L499.761 101.481L499.952 100.296L500 100L500.296 100.048L501.481 100.239L502.866 101.07L503.115 101.413L505.055 104.461L507.703 110.661L511.698 119.813L513.801 125.621L515.512 131.974L517.176 138.623L518.734 144.04L518.945 146.505L520.006 151.234L520.322 154.931L520.743 159.861L520.944 160.501L520.706 161.982L519.817 161.839L519.225 161.744L518.04 161.553L516.511 161.61L514.983 161.668L509.709 162.338L506.26 162.998L500.643 163.916L492.312 164.701L491.632 164.66Z" stroke="black"/>
<path d="M530.487 127.542L530.542 132.285L529.888 141.401L528.351 147.965L526.671 150.451L524.981 151.988L522.713 152.773L520.914 153.079L517.469 150.462L515.637 147.921L512.409 139.515L511.624 137.247L507.393 124.108L505.321 117.206L503.162 110.969L501.592 106.433L500.513 103.315L500.098 100.283L500 100L500.284 99.9019L500.567 99.8037L501.712 100.36L501.81 100.643L503.337 101.385L507.36 104.754L508.603 105.593L514.644 111.121L518.1 114.687L521.742 117.871L525.581 121.621L529.8 125.558L530.548 126.249L530.487 127.542Z" stroke="black"/>
<path d="M533.145 114.469L535.634 123.124L536.119 126.509L535.949 128.846L535.555 130.551L534.93 131.198L534.298 131.422L533.234 131.229L532.809 131.236L528.723 128.127L523.117 123.136L521.605 121.678L518.367 118.553L511.443 111.04L507.772 107.499L504.318 104.166L501.727 101.666L500 100L500.208 99.7841L503.193 100.579L503.833 100.78L506.609 101.791L510.457 103.419L520.722 107.903L530.986 112.386L532.648 113.157L533.145 114.469Z" stroke="black"/>
<path d="M157.319 247.167L155.609 247.199L137.912 247.536L131.313 247.662L125.92 248.064L120.821 248.161L115.722 248.258L111.523 248.338L109.717 248.072L109.711 247.772L110 247.167L112.054 244.727L116.796 241.637L120.061 239.774L123.621 237.606L127.186 235.738L130.745 233.57L136.076 229.868L139.635 227.7L142.595 225.543L145.26 223.692L145.848 223.081L147.031 222.158L147.919 221.541L147.925 221.841L148.237 222.435L149.205 226.017L149.862 229.005L151.424 232.276L154.578 240.318L156.457 244.483L157.319 247.167Z" stroke="black"/>
<path d="M136.117 211.208L147.094 210.473L149.104 210.363L156.211 210.109L158.369 210.26L160.267 210.559L161.085 210.783L161.792 211.416L162.349 211.789L162.647 212.31L161.938 214.096L160.187 216.476L159.554 217.182L154.154 221.643L150.915 223.835L146.782 226.883L139.485 231.044L126.976 238.177L117.855 243.378L112.643 246.35L111.34 247.093L110.409 247.279L110 247.167L109.851 246.906L110.187 245.678L110.784 244.302L113.207 239.467L114.213 238.203L116.3 234.595L119.429 230.393L123.043 225.224L132.038 211.518L136.117 211.208Z" stroke="black"/>
<path d="M138.237 201.491L134.581 208.07L126.437 221.459L119.347 233.359L117.125 237.95L115.941 239.71L113.972 243.09L112.387 244.989L110.671 247.158L110.54 247.428L110.27 247.298L110 247.167L109.721 246.365L109.425 244.222L109.529 241.94L110 236.835L110.479 232.401L112.49 222.044L114.215 210.214L114.946 204.569L115.416 199.464L115.869 193.018L116.601 187.373L116.452 186.301L116.583 186.031L117.663 186.554L118.883 187.477L120.643 188.662L122.681 190.648L125.53 193.026L131.898 197.773L138.237 201.491Z" stroke="black"/>
<path d="M113.432 225.142L112.989 232.652L112.744 237.215L111.963 242.933L110.563 246.96L110 247.167L108.714 245.402L107.428 243.636L107.015 242.509L105.495 239.232L104.05 235.289L102.295 230.5L100.334 225.148L98.4763 220.078L94.7605 209.937L94.038 207.965L92.4897 203.74L90.2189 197.543L89.4964 195.571L89.4684 194.623L91.2897 195.234L93.139 196.793L94.9883 198.352L97.3256 200.371L99.8694 202.953L102.977 205.329L107.06 208.625L110.167 211.001L112.89 213.199L113.552 213.661L113.432 225.142Z" stroke="black"/>
<path d="M86.0991 186L88.9922 193.209L92.7343 201.728L100.444 220.939L101.785 224.28L107.483 238.479L109.159 242.655L110.053 244.883L110.5 245.996L110.835 246.832L110 247.167L109.61 247L108.439 246.5L104.983 244.331L102.975 242.551L97.6214 237.265L90.65 230.365L88.6425 228.584L84.7941 224.633L81.5025 220.459L74.3625 212.334L70.9043 208.549L68.3381 205.377L65.5484 201.648L63.6508 198.53L63.2039 197.416L63.9274 196.803L64.6509 196.189L68.3253 194.068L74.2269 191.053L75.619 190.494L79.2384 189.042L86.0991 186Z" stroke="black"/>
<path d="M73.6975 227.328L70.35 218.646L70.0193 216.929L69.0043 212.199L68.9901 208.587L68.6595 206.869L69.623 204.797L70.0466 204.82L71.0941 205.09L72.5419 205.807L74.5438 208.042L75.3445 208.935L81.3501 215.639L85.5308 220.754L95.9404 232.373L104.749 242.205L106.15 243.769L108.999 246.05L110 247.167L109.777 247.367L108.729 247.097L107.258 246.804L105.787 246.511L104.963 246.04L102.668 245.277L97.2305 243.704L90.5688 241.214L85.7785 239.464L82.4592 238.007L77.1553 236.367L73.6975 227.328Z" stroke="black"/>
<path d="M64.3905 232.17L65.3263 231.982L70.326 230.975L71.5024 230.739L74.7376 230.088L81.9736 229.55L85.7396 230.016L89.9181 231.011L97.0413 234.474L100.28 236.882L104.344 240.349L106.288 242.405L107.938 244.522L109.469 246.049L110 247.167L109.706 247.226L107.941 247.581L100.411 248.178L91.5862 248.424L87.1154 249.018L82.6447 249.611L80.5268 249.732L76.4093 250.56L72.2919 251.389L68.2336 252.512L61.9409 254.696L59.4715 256.111L57.0021 257.526L56.179 257.997L54.5919 259.235L52.9456 260.178L51.9468 261.297L50.8295 261.828L51.0052 261.181L52.0615 258.826L53.3527 256.118L57.2853 248.288L59.1628 243.932L61.3345 239.517L63.1528 234.867L64.3905 232.17Z" stroke="black"/>
<path d="M81.3369 288.307L80.5306 287.442L76.5349 283.949L70.195 278.293L65.6347 275.162L61.671 271.967L57.7714 269.368L54.8306 267.27L50.963 264.97L49.3435 263.937L47.692 262.606L47.6599 262.307L48.2245 261.945L52.869 260.239L56.6827 259.227L63.7775 257.862L68.7843 256.721L74.0574 255.249L78.7659 254.14L83.7728 253L88.4813 251.891L96.1086 249.865L97.3018 249.737L100.221 248.82L102.905 248.532L104.961 248.009L106.751 247.817L108.21 247.359L108.509 247.327L110 247.167L110.032 247.465L110.064 247.763L109.457 250.544L108.755 252.43L108.052 254.316L107.115 256.83L106.444 259.014L104.038 264.703L102.206 267.314L100.108 270.255L97.5092 274.154L92.5884 278.907L89.0309 282.306L81.3369 288.307Z" stroke="black"/>
<path d="M100.763 280.335L89.798 285.08L87.3217 285.807L85.2667 286.483L82.6885 286.367L82.2164 285.997L82.0637 284.733L82.7532 283.368L83.7621 281.109L85.7477 278.091L90.4083 270.69L91.8894 268.801L94.8006 264.603L97.9478 260.59L103.317 253.744L105.168 251.383L106.834 249.259L108.181 248.028L109.764 246.981L110 247.167L110.204 248.851L110.222 250.772L109.686 253.401L109.653 254.901L108.899 259.266L104.771 278.141L104.748 278.265L100.763 280.335Z" stroke="black"/>
<path d="M103.811 283.815L104.076 282.667L105.66 275.245L107.305 262.985L107.671 257.631L108.356 253.509L109.102 250.467L109.3 249.539L110 247.167L110.517 247.471L113.057 249.662L114.669 251.655L116.646 254.211L118.577 257.436L123.169 265.011L126.529 272.906L128.156 276.648L129.22 280.755L130.588 284.345L130.801 285.167L130.542 285.015L129.204 284.923L127.196 284.786L120.503 284.328L115.666 284.266L110.829 284.205L103.811 283.815Z" stroke="black"/>
<path d="M134.013 291.036L133.819 290.663L126.784 275.738L122.471 268.418L118.859 262.161L115.886 257.261L114.779 255.195L112.74 251.712L110.7 248.23L110 247.167L110.294 247.227L110.588 247.288L114.459 249.31L121.088 252.818L125.133 255.489L129.238 257.865L133.283 260.536L137.034 263.145L142.487 266.412L145.771 268.313L151.639 271.053L156.453 272.962L157.335 273.144L159.858 274.276L156.254 276.903L153.299 279.358L149.695 281.985L147.923 283.152L137.829 289.038L134.053 291.017L134.013 291.036Z" stroke="black"/>
<path d="M342.713 215.49L343.051 216.044L344.456 218.501L349.016 224.686L359.358 236.502L363.102 240.553L365.993 243.369L368.908 245.585L370.947 247.167L370.048 247.131L364.94 247.23L358.933 247.294L353.825 247.393L348.417 247.48L343.022 247.267L337.302 247.642L332.494 247.753L327.398 247.552L323.202 247.387L317.794 247.474L312.698 247.273L311.199 247.214L310 247.167L312.181 245.151L317.813 239.368L325.003 232.146L333.104 224.659L337.167 220.616L339.036 218.888L342.713 215.49Z" stroke="black"/>
<path d="M310.504 209.261L315.456 209.614L323.746 209.955L331.174 209.903L336.481 209.926L343.704 210.094L346.059 210.647L347.55 210.806L346.937 211.465L345.93 212.986L343.885 215.182L341.023 218.255L337.532 221.564L333.837 225.091L328.506 230.376L321.949 236.977L316.398 242.057L314.134 244.048L312.075 245.819L310.833 246.713L310 247.167L310.054 242.707L310.137 239.096L310.41 234.841L310.653 229.738L310.782 227.398L310.805 222.091L310.609 216.579L310.504 209.261Z" stroke="black"/>
<path d="M310.629 199.869L310.954 206.977L311.217 217.79L311.048 223.188L310.889 228.285L311.039 233.092L310.89 237.89L310.834 239.689L311.031 242.997L311.256 245.405L311.209 246.904L311.199 247.204L310.89 247.495L310.59 247.485L310 247.167L309.138 245.939L307.995 244.103L306.87 241.666L305.483 238.021L301.284 228.286L299.363 222.523L298.548 219.796L296.327 214.024L294.687 208.871L293.328 204.326L292.231 200.99L291.397 198.863L291.144 197.354L292.643 197.401L295.942 197.504L301.611 198.581L305.2 198.994L306.99 199.35L310.629 199.869Z" stroke="black"/>
<path d="M292.075 199.812L293.893 204.699L297.786 213.555L301.19 222.871L306.798 237.478L308.598 243.515L310 247.167L310.257 248.029L309.97 248.115L309.138 247.424L307.675 245.669L303.202 240.115L297.296 231.859L293.741 227.284L292.192 225.241L289.01 220.868L283.563 213.101L280.528 207.119L279.554 204.904L279.297 204.042L280.074 203.497L280.936 203.24L284.099 202.297L289.561 200.668L292.075 199.812Z" stroke="black"/>
<path d="M256.827 235.467L258.762 229.168L261.888 219.774L263.972 213.512L265.771 208.103L268.993 200.323L269.467 198.899L271.268 196.337L272.311 196.052L273.45 196.431L274.399 197.379L275.633 199.37L277.342 201.836L279.431 205.061L282.849 210.941L285.698 215.683L293.769 230.383L296.807 235.505L298.896 238.729L300.7 240.91L302.503 243.091L305.066 244.892L307.723 246.409L308.861 246.788L310 247.167L309.336 247.262L308.767 247.072L308.197 246.883L308.292 246.598L306.679 245.745L305.825 245.461L304.496 244.703L300.227 243.282L297.095 242.24L293.395 241.009L291.402 240.346L282.294 238.263L273.091 236.465L268.442 236.183L264.173 235.711L256.827 235.467Z" stroke="black"/>
<path d="M257.938 235.711L262.244 236.543L267.26 237.512L278.82 239.529L290.523 242.202L297.209 243.907L300.988 244.87L303.895 245.611L306.512 246.277L308.837 246.87L310 247.167L309.709 247.092L309.344 247.309L308.398 247.378L306.506 247.514L301.484 247.782L298.281 248.204L294.712 248.843L290.489 249.624L288.887 249.835L281.312 251.619L278.034 252.332L272.277 254.27L269.507 255.422L267.683 256.505L266.953 256.938L265.42 258.095L265.346 258.386L265.203 257.73L263.755 256.123L263.18 254.738L262.747 254.008L261.669 250.947L261.31 249.927L260.164 245.92L259.092 241.622L257.938 235.711Z" stroke="black"/>
<path d="M249.719 262.312L250.387 262.025L255.884 259.897L258.202 259.032L270.089 254.676L282.707 251.445L288.636 250.476L293.637 249.31L298.075 248.508L300.162 248.274L303.408 247.607L306.091 247.305L309.072 246.969L310 247.167L310.034 247.465L309.076 249.686L305.305 253.733L298.09 259.375L288.558 265.881L283.725 268.538L277.535 272.556L273.861 274.78L270.749 276.64L268.498 278.101L266.512 279.23L265.618 279.33L265.021 279.397L264.06 278.902L262.733 277.844L259.383 274.9L257.062 273.048L254.971 270.566L250.622 264.111L249.719 262.312Z" stroke="black"/>
<path d="M262.863 281.92L264.486 280.481L271.092 274.787L273.734 272.81L286.104 262.803L290.968 258.788L298.054 252.735L300.997 250.158L303.639 248.18L304.6 247.461L307.302 245.064L308.023 244.525L308.742 245.486L309.82 246.927L310 247.167L309.876 251.007L308.071 256.105L307.169 257.904L302.42 267.079L299.474 272.656L296.648 278.893L293.942 284.291L291.777 288.908L290.635 290.887L289.012 294.726L287.749 297.544L286.366 299.703L285.826 300.482L285.525 301.082L285.105 301.022L283.726 300.18L283.366 299.7L280.669 297.597L279.53 296.576L276.892 294.053L273.475 290.99L269.279 287.385L265.262 284.021L262.863 281.92Z" stroke="black"/>
<path d="M289.804 291.656L290.583 289.927L293.584 283.266L299.541 268.249L305.543 254.928L308.579 249.54L310 247.167L310.218 247.373L310.436 247.579L311.17 251.167L311.882 253.906L312.192 257.505L313.272 265.964L313.823 270.618L314.801 283.112L314.711 287.57L314.403 291.823L314.289 295.434L313.923 297.566L313.946 298.414L313.774 299.904L312.273 299.309L311.413 298.908L308.845 298.129L305.211 297.167L295.788 294.029L289.804 291.656Z" stroke="black"/>
<path d="M313.784 300.042L313.659 298.514L311.631 276.546L311.454 273.039L310.573 263.665L310.154 257.886L309.978 250.299L310.11 247.828L310 247.167L310.86 247.431L312.294 247.873L313.838 248.976L316.065 250.917L321.623 257.335L326.034 263.401L331.768 273.327L333.775 278.025L335.87 282.436L338.605 289.869L338.826 291.193L339.553 293.928L339.774 295.251L339.994 296.575L338.958 296.883L337.546 297.391L332.826 298.449L329.429 299.287L325.834 299.75L324.224 299.882L320.342 300.257L315.688 300.08L313.784 300.042Z" stroke="black"/>
<path d="M352.583 287.127L351.731 286.461L350.215 285.698L348.605 284.65L346.522 283.126L343.02 280.176L337.249 274.183L332.236 268.573L328.452 264.768L321.074 256.779L315.018 250.88L313.126 248.978L311.422 247.645L310.664 247.264L310.285 247.073L310 247.167L310.376 248.306L310.847 249.731L311.414 250.491L312.355 253.34L314.527 257.045L316.696 261.7L324.062 274.432L325.951 277.283L331.15 284.413L337.639 292.695L342.516 291.084L348.213 289.202L350.113 288.259L351.728 287.409L352.583 287.127ZM352.583 287.127L352.867 287.033" stroke="black"/>
<path d="M350.885 285.19L347.616 281.539L335.956 270.527L328.124 263.749L323.262 259.196L319.157 255.574L312.926 249.814L311.368 248.374L310.801 247.676L310 247.167L310.044 246.745L310.742 246.177L312.328 245.274L314.205 245.681L317.494 246.873L325.863 250.507L330.943 252.95L337.289 255.523L343.402 258.286L352.95 262.895L358.218 265.571L360.62 267.098L362.454 267.926L362.833 268.392L363.866 268.712L363.4 269.09L362.891 269.891L361.641 271.681L360.623 273.282L358.95 275.029L354.775 280.357L352.317 283.516L351.343 284.695L350.885 285.19Z" stroke="black"/>
<path d="M359.116 266.812L348.724 262.673L341.865 259.58L334.073 256.316L327.332 253.63L317.819 249.761L316.505 249.037L313.325 247.971L311.196 247.483L310 247.167L309.474 246.877L309.619 246.615L311.104 246.405L313.668 246.104L317.164 245.975L327.481 246.52L334.302 247.194L341.005 247.461L349.981 247.953L355.344 248.166L359.773 248.208L362.862 248.197L365.28 248.159L366.358 248.068L367.698 248.121L367.554 248.384L367.264 248.909L365.645 252.47L365.066 253.521L362.408 259.592L359.315 266.451L359.116 266.812Z" stroke="black"/>
<path d="M556.818 247.167L555.547 247.159L547.475 247.467L532.098 247.718L525.741 247.682L523.561 247.542L514.742 247.265L511.614 247.105L510 247.167L509.717 247.066L508.87 246.764L508.97 246.481L509.555 245.734L513.106 243.815L516.637 242.844L525.797 240.377L531.992 239.081L538.186 237.786L544.28 236.773L551.705 235.598L558.082 234.686L560.18 234.16L560.463 234.261L561.229 233.897L561.129 234.18L560.625 235.593L560.021 237.288L558.49 242.476L556.818 247.167Z" stroke="black"/>
<path d="M542.197 213.584L547.903 215.557L555.292 218.822L560.066 220.615L564.246 222.486L567.791 224.138L570.703 225.57L572.98 226.784L574.922 227.739L575.97 228.811L576.424 229.962L575.313 230.713L573.865 231.206L573.309 231.582L570.334 231.973L566.209 232.818L560.894 233.819L546.437 236.628L543.204 237.355L530.391 241.158L525.412 242.417L517.538 244.663L514.642 245.649L510.297 247.128L510 247.167L509.961 246.869L510.102 245.641L510.243 244.412L510.979 243.105L511.934 241.164L513.445 238.847L513.922 237.876L518.353 232.453L521.312 229.643L524.311 227.131L526.455 225.033L541.41 213.27L542.197 213.584Z" stroke="black"/>
<path d="M538.905 200.005L544.625 200.375L546.27 200.97L547.872 201.986L548.82 203.149L549.535 204.501L549.492 204.923L549.423 207.688L548.131 209.902L544.238 214.623L537.175 221.152L535.737 222.711L531.973 226.166L524.022 233.031L520.724 236.106L517.425 239.182L515.013 241.921L510.973 245.987L510 247.167L509.854 246.512L512.231 239.931L515.727 232.825L520.387 224.771L533.961 202.486L534.962 200.816L538.905 200.005Z" stroke="black"/>
<path d="M528.869 212.13L522.897 225.022L518.887 232.619L516.219 237.584L514.925 239.318L512.936 242.817L511.326 244.834L510.647 246.3L510 247.167L510.016 246.867L509.229 244.722L508.758 242.294L508.019 239.25L507.312 235.607L507.108 233.794L506.433 229.552L505.414 220.485L505.071 215.659L504.967 206.341L505.158 202.746L505.254 200.948L506.157 195.288L506.948 191.725L507.611 190.559L508.194 190.891L509.061 191.538L510.778 193.131L512.78 195.041L514.749 197.549L517.018 200.073L522.422 205.769L523.556 207.032L526.408 209.887L528.869 212.13Z" stroke="black"/>
<path d="M507.757 194.034L507.869 196.254L508.952 204.053L509.688 212.098L510.621 227.788L511.073 233.956L511.089 239.135L510.781 240.908L510.564 243.915L510.205 245.984L510.103 246.575L510 247.167L509.704 247.115L508.573 246.615L507.3 245.176L505.835 243.095L503.289 240.218L497.078 232.137L492.822 226.832L488.913 221.282L484.323 214.396L481.686 210.285L479.834 206.919L477.198 202.808L476.658 202.41L476.465 201.768L477.75 201.382L479.575 201.394L485.948 199.759L490.689 198.754L496.124 197.261L502.202 195.575L507.757 194.034Z" stroke="black"/>
<path d="M456.943 243.236L458.254 238.932L459.453 233.966L460.939 229.087L462.425 224.208L463.824 219.616L464.936 214.937L466.334 210.346L468.957 201.736L470.268 197.431L470.88 195.422L471.142 194.562L471.104 196.745L471.241 198.355L472.064 200.801L473.797 205.406L475.793 209.15L481.044 217.649L484.188 221.742L487.818 226.298L492.908 232.239L497.087 236.021L500.581 238.966L503.874 241.537L506.108 243.472L507.854 244.945L509.114 245.956L510 247.167L509.913 247.454L507.928 247.79L507.354 247.615L504.597 247.402L500.604 247.127L494.028 246.065L482.997 245.214L478.056 244.963L473.401 244.8L469.695 244.612L466.651 244.312L463.519 244.299L460.674 244.373L456.698 244.546L456.943 243.236Z" stroke="black"/>
<path d="M433.74 243.686L433.86 243.961L434.464 245.334L435.431 247.531L436.76 250.551L438.331 254.121L440.264 258.514L442.714 263.336L445.559 268.312L450.985 275.429L455.049 280.196L459.191 283.945L460.673 283.293L464.792 281.481L468.12 279.361L472.118 277.274L481.245 271.947L486.221 269.102L490.405 265.949L494.865 262.676L499.049 259.524L502.29 256.459L503.695 255.185L506.386 252.362L509.66 248.628L509.813 248.232L510 247.167L509.605 247.013L507.474 246.64L507.078 246.486L505.31 246.936L499.763 247.738L491.108 248.925L472.128 249.738L465.274 249.804L458.179 249.321L455.378 248.914L450.171 248.255L441.56 245.817L438.243 244.982L436.903 244.917L435.2 244.027L434.135 243.84L433.74 243.686ZM433.74 243.686L433.619 243.412" stroke="black"/>
<path d="M502.383 298.529L493.441 295.705L488.436 294.376L483.284 292.648L474.051 289.027L472.418 288.27L465.07 284.862L462.076 283.473L461.532 283.221L460.715 282.842L462.329 282.929L464.466 282.598L469.393 281.245L472.308 279.951L474.027 279.095L478.118 276.693L482.188 273.621L486.783 270.13L490.834 266.387L495.157 262.77L501.918 255.323L505.298 251.6L506.852 249.675L508.028 248.567L509.602 247.313L510 247.167L510.272 247.293L510.962 247.944L512.382 250.586L513.317 254.988L513.183 259.556L510.295 280.042L508.646 287.876L505.065 298.45L504.684 299.453L502.383 298.529Z" stroke="black"/>
<path d="M538.002 295.966L535.507 296.999L530.633 299.342L526.198 301.179L521.486 303.13L513.333 306.182L507.283 308.038L505.505 308.449L504.005 308.746L503.727 308.861L505.6 307.111L506.642 305.706L508.056 302.847L508.963 299.549L509.907 290.067L510.22 283.767L509.913 276.751L509.882 269.62L509.611 256.42L509.647 250.235L510.067 248.113L510.115 247.444L510 247.167L510.736 248.161L512.648 249.642L514.054 250.683L518.155 253.531L520.574 255.451L521.98 256.493L525.25 259.685L532.431 268.4L541.698 283.72L545.725 291.394L538.002 295.966Z" stroke="black"/>
<path d="M539.055 282.358L532.694 274.003L529.003 269.65L526.095 265.831L524.823 264.16L521.438 260.704L518.598 257.965L513.816 252.179L511.09 248.599L510 247.167L510.239 246.985L511.386 247.997L512.295 249.19L513.624 250.441L516.827 253.657L517.611 254.192L519.724 255.977L522.075 257.58L524.666 259.001L527.972 259.877L535.415 260.243L541.29 259.541L545.427 259.031L549.563 258.521L552.438 257.841L557.052 256.967L559.45 256.65L559.87 256.707L560.052 256.946L559.938 257.786L559.881 258.207L559.233 259.832L558.289 262.058L557.231 265.126L554.513 270.966L549.658 279.941L546.451 284.644L543.624 288.793L539.055 282.358Z" stroke="black"/>
<path d="M134.654 387.644L128.923 387.566L117.319 388.601L112.078 389.487L103.368 389.055L98.6016 388.487L95.6227 388.133L93.5374 387.884L92.3458 387.742L91.4521 387.636L92.7146 387.182L93.9417 387.026L97.4668 385.331L99.7649 383.792L102.943 379.94L107.808 372.06L110.461 367.542L113.114 363.024L115.696 359.102L117.944 355.442L120.086 352.676L120.824 351.555L123.824 349.193L124.824 348.406L126.349 348.286L126.647 348.321L127.732 349.357L129.165 352.548L130.456 356.932L131.52 360.684L132.846 364.769L133.874 368.819L134.605 372.834L135.626 382.019L135.952 386.892L135.957 387.636L134.654 387.644Z" stroke="black"/>
<path d="M91.6597 387.42L92.7157 387.185L94.3944 386.301L96.687 384.343L99.3949 381.952L102.301 378.92L109.568 371.34L115.958 362.506L123.171 352.381L125.178 349.606L121.15 347.119L109.338 340.367L98.8334 335.284L94.1138 332.838L90.468 331.005L88.97 330.4L86.3981 329.181L84.6835 328.369L82.9779 327.98L82.5626 328.414L83.0227 330.101L84.1503 333.26L85.4945 336.627L89.0311 343.342L90.3933 347.557L92.3872 351.546L95.1115 359.975L96.0493 364.199L96.3823 369.921L95.8134 373.116L95.2443 376.31L94.2421 379.09L92.6439 383.792L92.4453 384.432L91.4431 387.212L91.6597 387.42ZM91.6597 387.42L91.4521 387.636" stroke="black"/>
<path d="M49.9207 348.485L57.4824 336.721L63.1001 328.481L66.3564 323.689L72.3145 315.944L76.8225 311.382L78.5521 310.191L79.7875 309.34L80.0345 309.17L80.2816 309L78.228 310.778L77.981 310.949L76.2072 314.72L75.4984 317.394L75.6405 321.302L75.8433 323.713L78.8055 338.064L83.749 356.879L85.9493 364.835L87.8092 372.296L89.2192 377.517L90.443 381.41L91.2656 386.307L91.4521 387.636L91.2051 387.806L90.0303 387.158L88.0979 385.939L85.4081 384.149L83.8162 383.424L75.3293 377.976L71.1245 375.044L62.2042 368.438L53.7618 360.41L48.3495 354.667L47.063 353.2L49.9207 348.485Z" stroke="black"/>
<path d="M42.9445 378.607L42.1008 374.428L41.7415 372.541L41.163 368.502L40.8496 364.603L39.9906 361.094L39.1162 358.256L36.8217 352.969L35.4015 350.521L34.262 347.543L33.6527 344.845L33.6835 343.503L33.5585 343.098L33.6989 342.833L33.964 342.973L36.3507 344.235L38.2069 345.217L42.45 347.462L49.5946 351.92L53.0267 354.414L56.724 357.048L60.0157 359.808L62.9021 362.692L66.9741 366.543L69.7355 369.022L72.4969 371.501L75.3986 373.714L77.8948 376.053L83.8385 380.215L86.2098 382.148L89.9071 384.782L91.3425 386.56L91.4521 387.636L91.1715 388.166L91.0312 388.432L89.2692 389.196L86.306 389.665L83.6234 389.604L81.3463 389.418L75.1703 389.544L70.741 389.577L68.4639 389.391L63.2389 389.003L57.7489 388.475L49.7318 386.949L47.595 386.497L44.5215 385.591L42.9445 378.607Z" stroke="black"/>
<path d="M32 385.046L39.2529 385.216L49.4648 385.558L69.8887 386.243L82.4904 386.807L87.5687 387.277L89.3611 387.442L91.4521 387.636L91.4244 387.935L90.473 388.449L90.1743 388.422L87.674 389.395L86.7501 389.611L83.9786 390.258L75.7196 391.603L65.0431 393.025L59.5554 393.723L54.0955 394.121L44.7245 394.459L43.2308 394.321L38.396 394.476L36.9023 394.338L36.3049 394.283L35.464 393.602L34.9496 392.651L33.7047 389.824L32.9744 387.949L32.0283 385.15L32 385.046Z" stroke="black"/>
<path d="M39.9857 393.12L43.6538 392.795L61.5686 390.673L69.3275 389.674L75.3042 389.066L82.7635 388.082L86.6584 387.882L89.0553 387.759L90.2537 387.698L91.4521 387.636L91.4675 387.936L91.4829 388.235L90.4076 390.694L88.3873 392.299L85.7832 394.236L82.5953 396.502L78.8082 398.799L72.4016 402.733L63.8978 406.775L57.1146 409.226L54.7332 409.649L53.8344 409.695L52.3363 409.772L50.8075 409.25L49.5476 408.113L47.9572 406.392L46.3514 404.372L44.4152 401.768L42.1333 398.281L39.9857 393.12Z" stroke="black"/>
<path d="M46.01 411.801L61.0189 404.348L78.0963 395.39L82.5863 392.898L86.2437 390.748L89.3459 388.825L91.4521 387.636L91.566 387.913L91.4025 388.305L91.3529 388.974L90.8622 390.148L89.7668 392.22L87.5614 394.747L86.4017 395.871L83.5916 399.295L80.2264 402.947L76.47 406.436L69.2986 414.245L65.9335 417.897L63.287 420.929L62.1273 422.054L60.4769 424.353L59.3173 425.478L58.9901 426.261L58.4351 426.489L57.6521 426.162L57.1467 425.72L56.0219 424.561L55.5165 424.12L53.7723 422.241L51.6864 419.531L49.2089 416.656L46.781 413.113L46.01 411.801Z" stroke="black"/>
<path d="M73.8615 424.338L69.8673 425.918L63.9695 427.755L59.7482 428.704L58.6827 428.517L57.8245 428.113L57.6073 427.906L57.7842 426.416L58.7893 424.059L60.0114 421.908L61.6477 419.323L64.1222 416.293L67.0208 413.254L70.3335 409.78L73.8533 406.09L78.8224 400.879L81.928 397.623L85.0337 394.366L89.3816 389.807L90.6239 388.504L91.245 387.853L91.4521 387.636L91.6692 387.843L91.8964 388.474L91.9165 389.323L91.5225 390.605L90.7245 392.746L89.7395 395.952L86.7142 402.602L80.8507 414.836L76.6118 423.441L73.8615 424.338Z" stroke="black"/>
<path d="M75.3818 426.409L79.4229 417.889L84.1676 405.582L84.948 403.14L86.7443 398.443L88.4044 394.403L90.8079 389.421L90.7583 388.999L91.4521 387.636L91.6876 387.822L92.4933 389.222L92.7288 389.408L92.9274 391.093L92.8037 393.671L92.7794 397.092L92.1732 404.639L92.0127 408.716L91.6167 412.608L90.9851 416.313L90.9482 417.813L90.4529 420.861L89.4993 425.459L89.1772 426.352L88.2479 427.529L87.4052 427.628L86.1411 427.777L82.9065 427.518L81.1715 427.295L79.0151 427.121L76.6233 426.762L75.3818 426.409Z" stroke="black"/>
<path d="M88.5414 437.151L88.5577 435.636L88.3937 429.744L88.0355 420.726L88.5155 409.44L88.9357 403.684L90.0382 395.008L90.4967 391.726L90.7014 390.849L91.3839 387.928L91.4521 387.636L92.3285 387.841L92.8445 388.269L94.7722 390.568L95.9791 393.315L97.1859 396.061L98.412 400.044L98.9473 401.71L100.689 406.122L102.431 410.534L105.624 419.289L107.278 422.757L108.641 426.156L110.14 428.97L110.743 430.344L111.483 431.133L111.415 431.425L110.986 431.941L109.973 432.32L104.841 434.51L101.87 435.357L98.968 435.911L97.3026 436.446L93.8162 436.864L88.5414 437.151Z" stroke="black"/>
<path d="M113.033 434.539L110.031 428.622L104.219 417.633L100.444 410.293L95.0996 398.328L93.2758 394.042L92.2155 390.86L91.9187 388.781L91.4521 387.636L92.937 387.424L94.422 387.212L96.0342 387.891L98.3251 389.079L101.083 391.413L104.519 394.256L105.961 395.868L109.779 399.263L113.979 403.209L117.585 407.24L124.033 414.198L126.875 417.126L127.639 418.229L130.226 421.496L130.948 422.302L128.911 422.896L127.256 424.042L123.692 426.672L120.722 429.217L113.551 434.18L113.033 434.539Z" stroke="black"/>
<path d="M134.559 406.514L135.57 411.148L135.922 415.169L135.455 420.067L134.871 421.573L133.848 422.67L133.234 423.329L132.825 423.767L131.538 423.388L130.251 423.008L128.526 422.219L124.855 420.436L121.799 417.995L119.166 415.54L116.533 413.084L110.61 407.559L104.248 401.625L101.177 398.76L98.325 396.1L97.4474 395.282L95.0342 393.031L93.0598 391.189L91.5242 389.757L90.6466 388.938L90.1931 388.105L91.4503 387.637L91.8892 388.046L94.0239 388.396L97.4602 389.55L101.54 390.894L110.358 394.196L119.38 397.278L133.788 402.32L134.559 406.514Z" stroke="black"/>
<path d="M357.973 445.649L351.28 445.689L329.372 445.844L317.975 445.612L312.876 445.508L308.97 445.729L305.971 445.668L305.071 445.649L305.077 445.35L305.989 444.768L308.095 444.511L314.418 443.439L318.03 442.913L321.941 442.392L325.852 441.871L327.358 441.602L331.276 440.782L335.193 439.961L338.511 439.128L345.146 437.463L348.164 436.624L350.869 436.379L351.769 436.397L353.569 436.434L355.368 436.471L356.268 436.489L357.156 437.107L357.743 437.719L357.688 440.419L357.958 441.924L357.897 444.924L357.973 445.649Z" stroke="black"/>
<path d="M419.823 428.325L418.923 428.317L415.625 427.989L412.926 427.966L409.931 427.341L402.449 425.177L396.767 423.029L392.885 420.895L388.705 418.46L384.526 416.024L380.347 413.589L376.165 411.453L372.485 409.574L368.962 411.692L359.014 417.307L349.669 422.628L340.328 427.349L332.795 431.185L326.47 434.131L321.65 436.49L315.924 439.442L310.499 442.395L308.389 443.578L307.786 443.872L305.071 445.649L306.871 445.665L310.474 445.395L315.878 444.841L320.983 444.285L326.088 443.728L332.993 443.187L341.103 442.056L354.915 440.673L365.42 440.163L374.73 439.042L383.44 437.916L390.047 437.072L395.16 435.615L399.672 434.154L401.777 433.572L409.898 431.241L416.513 429.497L417.418 428.904L418.62 428.615L419.823 428.325ZM419.823 428.325L420.123 428.327" stroke="black"/>
<path d="M368.086 411.928L351.409 420.43L342.213 425.765L333.891 430.887L325.348 436.371L320.75 439.039L316.301 441.053L312.655 442.561L309.883 443.856L306.82 445.222L305.945 445.436L305.071 445.649L304.929 445.066L305.149 444.704L305.881 443.907L306.904 443.04L307.927 442.172L309.462 440.87L311.58 439.427L313.847 437.329L316.697 435.088L319.987 432.123L323.86 429.014L332.409 422.293L340.951 416.809L342.849 415.728L346.573 413.274L349.494 411.325L355.044 407.498L357.382 405.691L360.232 403.451L361.475 402.221L362.57 401.645L363.884 400.706L364.176 400.634L364.467 400.563L364.538 400.855L364.609 401.146L364.681 401.438L365.037 402.895L365.464 404.643L365.891 406.392L366.966 409.526L367.685 411.204L368.086 411.928Z" stroke="black"/>
<path d="M349.955 411.351L341.236 417.814L338.864 419.792L331.403 424.95L324.89 430.152L319.477 434.171L315.337 437.395L311.8 439.888L309.04 442.037L308.436 442.769L306.668 444.015L305.071 445.65L305.179 445.37L305.504 444.53L305.72 443.971L307.749 441.217L309.282 438.915L311.139 435.773L312.997 432.631L315.07 428.93L317.532 425.057L319.605 421.355L322.067 417.482L326.125 411.975L328.479 408.382L330.444 404.96L332.193 402.098L333.554 399.408L334.528 396.89L334.852 396.05L335.501 394.371L336.15 392.692L336.474 391.853L337.015 390.453L337.295 390.562L337.466 390.949L339.037 391.878L339.317 391.986L340.328 392.699L341.963 394.295L342.586 395.179L343.101 396.343L344.068 398.003L345.034 399.663L345.784 401.883L346.427 404.382L347.565 406.43L348.938 409.534L349.905 411.194L349.955 411.351Z" stroke="black"/>
<path d="M345.742 375.373L345.668 375.618L344.29 380.226L342.191 385.282L340.161 390.046L333.532 402.674L332.044 405.1L328.146 411.279L320.552 422.758L317.644 427.319L314.581 431.227L312.462 435.046L311.538 436.372L307.843 441.673L306.559 443.223L305.927 444.616L305.567 444.841L305.071 445.649L304.847 445.289L305.05 444.413L305.098 442.884L305.281 440.77L305.959 437.848L306.706 434.634L307.588 430.835L308.47 427.036L309.421 422.945L310.439 418.561L311.932 412.133L315.069 403.93L316.74 399.39L318.342 395.142L319.945 390.895L321.547 386.647L323.401 379.994L323.74 378.533L324.711 375.678L325.322 373.048L326.157 370.779L326.924 368.801L327.331 367.048L327.671 365.586L328.099 365.07L328.71 362.44L328.845 361.855L329.049 360.979L329.341 361.047L330.51 361.318L331.387 361.522L332.196 362.018L333.004 362.513L333.229 362.874L335.451 365.238L335.968 365.666L337.158 367.174L338.864 369.11L340.638 370.754L344.927 374.83L345.742 375.373Z" stroke="black"/>
<path d="M323.906 379.141L319.142 397.341L316.841 407.16L314.391 416.091L310.467 428.921L309.144 433.707L308.506 435.336L307.525 438.543L306.79 441.405L305.563 444.958L305.267 445.008L305.071 445.649L304.972 445.058L304.374 441.508L303.031 435.345L302.284 430.908L301.935 428.837L301.138 424.103L300.035 413.945L299.384 408.275L299.325 402.504L299.661 397.276L299.997 392.048L300.184 385.932L299.932 382.628L299.679 379.324L299.527 376.611L299.178 374.54L299.224 373.011L299.075 372.124L298.925 371.236L298.826 370.645L299.271 371.482L300.308 372.22L302.036 373.45L304.061 374.631L306.38 375.761L308.601 376.3L313.683 377.573L314.62 377.72L319.653 378.697L323.906 379.141Z" stroke="black"/>
<path d="M304.857 445.44L304.424 444.596L303.776 443.542L303.347 443.122L302.691 441.219L300.516 436.151L298.989 432.136L298.319 428.961L297.221 425.366L296.546 421.767L295.863 417.319L293.206 406.74L291.643 399.331L290.978 396.58L289.205 389.386L287.839 380.49L287.111 371.8L286.588 362.471L287.348 353.978L291.018 339.938L293.296 334.61L295.441 330L294.104 330.783L292.206 331.864L290.308 332.944L289.045 333.806L288.205 334.664L286.941 335.525L285.677 336.387L284.414 337.249L282.726 338.115L281.038 338.982L280.828 339.196L277.871 340.5L277.237 340.719L273.857 342.027L272.164 342.469L270.262 343.126L266.028 344.019L265.18 344.028L262.425 344.269L259.669 344.51L254.578 344.564L252.033 344.59L249.487 344.617L247.152 344.43L244.392 344.247L243.334 344.47L240.36 344.077L237.595 343.469L232.071 342.679L230.16 342.487L228.458 342.081L227.186 342.094L226.337 342.103L225.489 342.112M304.857 445.44L305.071 445.649M304.857 445.44L303.785 444.39L302.28 442.497L301.204 441.023L300.123 439.125L298.4 436.597L294.939 430.27L292.992 426.684L291.246 422.035L289.915 416.533L289.04 413.996L287.486 407.436L286.141 400.662L284.806 394.736L283.685 389.02L281.93 383.523L277.791 373.171L276.92 371.059L274.544 367.053L271.749 363.476L266.805 357.376L264.233 354.857L261.447 352.129L256.95 348.145L255.672 347.734L252.689 346.493L249.711 345.676L243.758 344.465L240.574 344.287L237.6 343.894L233.991 343.72L229.954 343.126L226.98 342.733L226.556 342.737L226.127 342.317L225.489 342.112M225.489 342.112L225.065 342.116" stroke="black"/>
<path d="M266.081 395.194L266.795 396.13L269.91 400.701L273.244 405.477L288.7 424.517L291.762 427.392L293.074 428.624L295.712 431.512L297.707 434.208L301.697 439.601L303.255 441.886L304.17 443.98L304.634 445.239L305.071 445.649L304.852 445.444L304.196 444.828L302.692 444.239L298.59 442.033L292.765 439.033L289.73 437.006L286.258 434.569L274.939 425.587L269.922 421.288L266.86 418.413L264.03 416.167L261.624 413.908L257.688 410.212L257.25 409.801L255.501 408.158L252.658 405.489L250.252 403.23L248.94 401.998L248.065 401.177L248.27 400.958L249.118 400.931L249.748 400.699L251.006 400.235L252.06 399.99L255.22 399.253L258.791 398.08L259.64 398.053L261.322 397.576L264.251 396.21L265.92 395.308L266.081 395.194Z" stroke="black"/>
<path d="M224.429 382.738L229.841 388.973L238.091 397.686L248.065 406.999L257.896 415.374L267.683 422.219L276.143 427.925L283.276 432.492L285.439 434.079L290.062 437.303L297.491 441.92L299.95 443.557L300.787 444.005L303.643 445.101L305.071 445.65L304.775 445.599L303.939 445.152L303.398 444.755L302.215 444.553L300.838 443.709L299.164 442.814L294.094 440.427L290.401 438.883L288.677 438.284L284.148 436.293L279.373 433.955L268.742 428.487L256.691 420.646L250.495 415.935L241.545 409.537L236.677 405.966L224.87 398.471L221.127 397.223L217.975 396.076L215.314 395.621L212.703 394.871L211.52 394.669L209.154 394.265L205.605 393.659L204.423 393.457L203.535 393.305L203.882 393.06L204.228 392.815L206.55 391.69L208.231 390.759L210.503 389.93L215.495 387.435L216.829 386.75L219.498 385.38L224.429 382.738Z" stroke="black"/>
<path d="M170.299 415.789L171.792 415.649L173.584 415.482L174.182 415.426L176.571 415.202L178.961 414.978L181.948 414.698L185.261 414.689L188.874 414.652L190.666 414.484L200.746 415.95L213.767 419.853L231.791 425.697L242.366 429.226L251.448 432.895L254.873 434.081L271.348 439.468L278.143 441.242L283.36 442.26L288.279 443.305L292.246 443.838L298.631 444.445L300.778 444.846L303.848 445.463L304.474 445.705L305.071 445.649L303.522 445.192L300.395 443.978L298.164 442.681L296.885 441.897L289.979 438.928L285.601 437.229L275.866 433.018L266.784 429.349L252.587 422.544L249.731 421.004L232.865 411.435L224.213 405.918L208.57 396.536L203.539 393.307L202.885 393.754L201.205 395.117L192.422 401.062L187.568 403.927L180.193 408.836L177.374 410.908L175.097 412.327L173.416 413.689L172.306 414.697L170.896 415.733L170.597 415.761L170.299 415.789ZM170.299 415.789L170 415.817" stroke="black"/>
<path d="M239.735 431.219L243.276 431.581L249.055 432.31L254.55 432.94L265.433 435.434L271.681 436.642L276.697 437.742L281.615 439.125L283.884 439.91L292.018 442.088L295.235 442.883L297.503 443.667L299.772 444.452L301.287 444.658L302.421 445.05L303.272 445.345L304.406 445.737L305.071 445.649L305.638 445.845L306.489 446.14L306.772 446.238L307.056 446.336L306.958 446.619L306.674 446.521L306.293 446.707L306.009 446.609L305.628 446.794L304.396 446.685L303.065 446.86L301.735 447.035L300.023 447.396L298.028 447.658L295.935 448.204L293.274 448.553L287.855 449.536L281.673 450.89L280.343 451.065L273.388 453.739L270.052 455.125L266.05 456.598L262.616 458.267L258.996 459.555L252.608 462.425L251.365 463.264L248.792 464.279L246.503 465.392L243.734 466.974L242.97 467.345L242.687 467.247L242.785 466.964L242.599 466.582L242.698 466.298L242.708 465.35L242.621 464.685L242.446 463.354L242.369 461.741L242.303 459.178L242.051 456.234L241.1 447.97L240.684 442.747L239.765 431.636L239.735 431.219Z" stroke="black"/>
<path d="M245.646 466.716L246.344 467.692L248.61 470.865L250.285 473.725L251.087 475.364L256.771 483.838L264.226 495.719L267.792 489.976L274.627 479.932L289.727 460.297L293.423 456.182L296.562 452.834L298.899 450.427L300.433 448.963L303.118 447.045L303.606 446.696L303.851 446.521L304.095 446.347L304.583 445.998L305.071 445.65L305.385 445.057L305.629 444.882L305.455 444.638L305.28 444.394L305.036 444.568L303.153 445.545L301.27 446.521L299.387 447.498L297.259 448.649L294.714 449.73L291.436 451.334L287.739 452.869L285.925 453.427L278.044 456.845L274.103 458.554L265.699 461.24L262.176 463.018L258.549 464.134L255.515 465.564L254.19 465.774L249.657 467.169L247.076 467.169L246.483 466.855L246.065 466.785L245.89 466.541L245.646 466.716ZM245.646 466.716L245.472 466.471" stroke="black"/>
<path d="M317.441 525.844L315.995 525.304L311.708 523.063L307.141 520.717L297.795 516.586L292.841 514.416L290.593 513.577L285.815 511.792L280.756 509.903L275.874 508.4L271.272 507.002L266.951 505.709L261.226 503.891L259.258 503.156L258.415 502.841L258.52 502.56L258.625 502.279L259.116 501.822L259.502 501.646L259.888 501.47L259.993 501.189L261.432 500.766L262.59 500.237L265.817 497.599L267.604 495.385L269.497 492.889L270.932 489.903L274.294 483.473L276.011 480.591L276.817 479.291L278.709 476.795L282.285 472.366L284.249 470.538L285.931 468.604L287.509 466.952L288.105 466.213L289.578 464.842L290.665 463.647L291.575 462.065L292.452 461.432L293.153 460.413L294.24 459.218L294.345 458.937L294.45 458.656L295.222 458.303L295.713 457.846L296.204 457.389L296.8 456.651L297.501 455.632L298.869 454.541L299.359 454.084L299.569 453.522L299.955 453.346L300.27 452.503L300.971 451.484L301.987 449.621L302.197 449.059L303.493 447.302L304.194 446.283L304.685 445.826L305.071 445.649L305.352 445.754L305.914 445.964L305.985 446.631L305.88 446.912L306.161 447.017L306.057 447.298L306.338 447.403L306.233 447.684L306.409 448.07L306.48 448.737L306.375 449.018L306.165 449.58L305.955 450.143L305.745 450.705L305.325 451.829L305.011 452.672L304.872 453.901L304.452 455.025L304.418 455.973L304.351 457.87L304.987 461.31L305.025 462.925L305.201 463.311L305.624 464.75L305.661 466.365L305.909 467.418L306.156 468.471L306.86 470.015L307.46 471.84L309.116 475.981L309.786 478.473L310.386 480.298L310.914 481.456L311.232 483.176L311.656 484.615L311.974 486.335L312.15 486.721L312.116 487.669L312.645 488.827L312.787 490.161L313.315 491.319L314.019 492.863L314.091 493.53L314.443 494.302L314.409 495.25L314.094 496.094L313.779 496.937L313.674 497.218L313.255 498.342L313.15 498.623L313.326 499.009L313.292 499.957L314.948 504.098L316.004 506.414L316.78 508.625L317.132 509.397L317.345 511.398L318.087 514.557L317.948 515.786L317.705 517.296L317.566 518.526L317.146 519.65L317.217 520.317L316.974 521.827L317.153 524.776L317.441 525.844Z" stroke="black"/>
<path d="M321.428 473.912L319.529 482.45L318.217 489.062L317.35 496.512L316.96 497.795L316.524 500.608L315.988 502.829L315.647 504.408L315.156 505.1L314.91 505.446L314.615 505.496L314.218 504.955L314.118 504.363L313.276 502.985L313.075 501.802L312.573 498.844L311.971 495.295L310.366 485.83L309.708 480.16L309.602 477.743L308.694 470.595L307.786 463.446L305.929 452.502L305.377 449.249L304.976 446.883L305.071 445.649L305.367 445.599L306.951 447.765L308.14 449.389L309.875 452.442L312.006 456.036L315.872 462.683L318.254 467.756L321.328 473.32L321.507 473.682L321.428 473.912Z" stroke="black"/>
<path d="M335.685 497.863L332.211 490.265L330.927 486.888L322.763 470.108L319.387 463.609L316.912 459.272L314.299 455.202L312.067 452.345L311.015 451.119L309.303 449.211L307.719 447.708L305.337 445.788L305.071 445.649L305.869 446.066L306.667 446.482L308.124 447.581L312.507 450.206L315.432 451.733L318.751 453.803L322.868 456.289L329.101 460.557L339.451 467.31L345.163 470.629L350.078 473.532L358.855 478.112L362.578 480.055L364.047 480.483L366.973 482.009L370.974 483.42L372.57 484.253L372.836 484.392L373.9 484.947L373.368 484.669L372.304 484.114L368.545 484.184L367.736 484.438L364.775 484.924L361.41 485.536L353.176 488.346L348.713 490.416L344.11 492.752L339.369 495.353L335.685 497.863Z" stroke="black"/>
<path d="M566.904 445.741L556.01 444.232L544.525 444.426L530.121 445.313L524.437 446.044L519.405 446.928L515.18 447.313L508.343 447.084L505.731 446.47L504.386 445.741L504.578 445.51L505.692 443.705L507.036 442.091L508.802 440.439L515.408 435.79L517.444 434.753L522.667 431.294L528.543 427.99L534.342 423.84L540.564 419.652L545.557 416.002L550.549 412.352L558.038 405.705L561.917 401.518L563.837 399.213L565.373 397.369L566.102 396.024L566.486 395.563L566.678 395.333L565.988 399.443L565.49 408.008L565.53 413.117L565.916 424.371L566.033 430.325L566.033 432.668L566.534 438.161L566.996 443.231L566.904 445.741Z" stroke="black"/>
<path d="M556.762 403.357L552.571 405.919L548.908 408.221L537.287 416.312L527.473 424.152L513.956 435.794L509.029 440.463L506.566 442.798L505.626 444.274L504.386 445.741L505.066 442.758L506.03 440.383L507.019 437.108L508.931 432.958L511.167 427.916L514.018 422.291L517.494 415.782L522.25 406.306L525.726 399.797L528.278 394.163L532.718 385.279L534.945 380.537L536.55 376.678L536.574 375.779L536.89 375.187L537.182 375.495L538.341 377.027L540.368 379.782L542.678 383.145L545.565 387.424L551.921 396.598L555.683 401.801L556.762 403.357Z" stroke="black"/>
<path d="M542.286 363.473L539.571 369.12L529.429 390.208L527.869 393.452L522.668 404.266L517.987 413.999L513.176 424.003L509.676 431.973L506.066 441.555L504.766 444.259L504.386 445.741L504.116 445.611L503.975 445.21L503.825 444.139L503.794 442.127L504.023 439.574L504.502 435.81L506.359 425.718L507.577 417.648L509.575 407.956L511.401 395.852L512.01 391.817L516.495 369.34L518.972 355.884L520.231 350.498L521.38 346.723L522.15 344.43L522.54 343.619L523.621 344.139L524.984 345.46L526.616 346.911L531.804 352.735L535.631 357.238L542.286 363.473Z" stroke="black"/>
<path d="M519.984 356.785L519.937 357.082L518.061 368.934L513.341 394.916L509.059 420.055L508.496 423.611L506.793 432.454L505.995 437.491L505.386 441.343L505.011 443.714L504.917 444.306L504.682 445.788L504.386 445.741L503.887 445.054L503.732 444.119L503.467 441.951L503.812 435.931L503.706 428.928L504.051 422.908L504.057 405.596L504.17 395.287L504.33 384.681L504.147 374.325L504.213 364.313L503.951 356.374L503.733 353.91L504.283 342.759L504.081 342.119L504.221 341.23L504.814 341.324L506.809 344.07L509.506 348.141L511.595 350.294L513.731 352.151L515.82 354.304L518.299 355.911L519.141 356.348L519.984 356.785Z" stroke="black"/>
<path d="M492.45 378.097L494.562 369.302L496.768 362.034L498.934 355.063L500.611 351.659L503.18 348.377L504.788 347.689L505.773 349.338L506.677 351.581L506.731 353.406L507.053 357.689L507.346 364.391L507.571 373.808L507.336 384.374L507.142 394.642L506.528 405.762L506.333 416.03L505.854 428.379L505.835 439.58L505.644 443.188L505.4 444.971L504.94 446.119L504.386 445.741L503.954 444.47L503.01 442.524L501.405 436.551L499.759 430.876L497.588 422.403L494.554 411.39L489.165 392.442L492.45 378.097Z" stroke="black"/>
<path d="M471.76 331.496L472.434 333.178L473.874 336.208L474.812 339.683L477.894 348.795L480.061 355.667L482.72 365.515L485.614 376.231L490.073 392.739L493.514 405.483L496.721 417.357L501.727 435.893L503.056 440.817L503.839 443.713L504.23 445.161L504.308 445.451L504.386 445.741L503.94 445.24L503.048 444.238L500.114 439.126L498.15 435.306L495.638 429.458L494.355 427.008L491.375 419.423L487.056 410.334L483.316 401.09L479.052 391.054L470.18 372.009L465.571 362.999L462.246 356.439L460.963 353.989L457.38 345.323L456.285 341.268L457.052 339.507L457.264 339.139L459.925 337.488L463.667 335.235L467.276 333.639L471.096 331.675L471.76 331.496Z" stroke="black"/>
<path d="M487.849 408.653L487.799 409.5L488.722 411.892L490.044 414.731L491.74 418.442L493.661 421.954L494.434 423.274L498.473 430.522L500.394 434.034L503.885 439.762L505.108 444.295L505.058 445.142L504.386 445.741L503.14 445.243L502.118 444.546L498.878 441.807L495.463 438.421L490.078 432.37L479.235 421.538L477.241 419.297L469.19 411.603L463.532 406.598L459.444 403.81L456.952 402.815L456.753 402.591L456.554 402.367L458.098 401.394L459.393 401.045L460.888 400.92L463.23 400.844L466.194 401.016L469.533 402.061L471.427 402.384L475.389 403.677L484.758 406.986L487.741 408.087L487.849 408.653Z" stroke="black"/>
<path d="M459.252 404.814L460.736 406.077L471.708 415.253L487.155 429.681L489.752 431.804L499.649 441.106L502.44 443.457L503.608 444.827L504.192 445.512L504.386 445.741L503.963 445.707L498.499 444.845L489.423 443.907L487.503 443.967L482.851 443.595L477.582 442.962L466.653 441.237L461.84 440.215L457.222 439.42L451.597 437.907L448.899 437.053L447.241 436.495L446.201 436.199L445.617 435.514L445.422 435.286L445.853 432.554L446.64 430.701L448.576 425.11L451.13 419.781L452.964 415.458L455.451 410.975L457.675 407.11L459.252 404.814Z" stroke="black"/>
<path d="M467.585 439.706L475.163 440.229L483.933 441.202L490.56 441.876L495.717 442.849L499.603 443.896L500.898 444.245L503.066 444.968L504.386 445.741L504.834 446.139L504.884 446.987L504.311 448.083L503.314 449.204L501.919 450.773L500.324 452.566L497.658 454.21L496.213 454.932L492.924 456.825L488.563 458.568L479.594 461.432L475.184 462.328L471.397 462.975L468.034 463.597L466.987 463.871L463.624 464.493L462.776 464.542L463.15 463.671L463.674 461.727L464.322 458.289L464.921 454.004L466.093 448.623L467.041 443.043L467.585 439.706Z" stroke="black"/>
<path d="M464.321 464.209L471.026 461.309L478.174 458.003L484.234 455.288L493.776 450.598L497.036 448.825L498.564 447.829L503.096 446.111L504.165 445.944L504.386 445.741L504.589 445.962L503.191 448.875L500.522 451.734L497.816 455.441L494.484 458.909L489.808 464.018L483.843 469.497L476.957 476.636L469.648 483.756L462.559 490.674L454.145 498.809L449.947 502.665L444.68 506.688L442.525 507.445L442.579 506.174L442.412 505.105L443.918 499.649L444.414 497.971L448.864 488.181L452.138 481.101L456.755 472.38L460.228 465.694L464.321 464.209Z" stroke="black"/>
<path d="M474.742 496.245L467.192 499.579L462.246 501.31L457.521 502.836L453.644 504.394L450.221 505.118L447.426 506.078L444.443 506.394L443.815 506.159L444.709 504.918L446.027 503.692L447.8 501.634L449.118 500.408L452.634 497.14L457.702 492.017L472.013 477.891L480.362 470.128L487.643 462.538L489.84 460.496L495.348 454.964L499.098 451.068L501.75 448.192L503.507 446.558L504.166 445.945L504.386 445.741L503.415 449.102L502.96 449.934L501.125 453.689L495.213 464.512L490.665 472.837L478.288 492.129L475.743 495.926L474.742 496.245Z" stroke="black"/>
<path d="M484.027 505.137L479.45 508.426L475.28 511.599L471.811 514.131L467.787 517.042L465.863 518.031L463.415 518.728L462.745 518.698L462.483 518.552L462.221 518.407L462.572 516.542L463.361 513.891L464.15 511.24L468.381 503.638L470.862 499.182L474.363 492.891L478.157 486.076L479.878 483.601L489.39 468.981L493.445 462.312L497.18 456.837L501.965 448.857L504.24 446.003L504.386 445.741L504.589 447.227L504.297 447.751L504.062 450.024L502.19 458.939L499.585 472.253L492.164 499.58L484.027 505.137Z" stroke="black"/>
<path d="M502.499 514.046L495.765 522.87L491.686 527.519L488.272 532.073L485.426 534.92L484.667 535.299L484.382 535.205L484.098 535.11L483.718 533.402L483.338 530.746L484.001 523.062L486.466 510.918L488.457 502.095L492.25 488.813L495.568 477.902L498.413 467.466L502.3 452.002L503.628 448.018L504.197 446.31L504.386 445.741L504.671 445.836L505.145 447.258L505.24 448.871L505.525 449.915L505.621 453.425L506.096 463.386L506.572 471.45L506.954 485.49L506.767 506.93L506.723 509.293L502.499 514.046Z" stroke="black"/>
<path d="M517.097 494.012L515.903 496.714L513.814 501.819L511.725 506.624L508.739 512.631L508.143 514.432L507.545 515.334L507.245 515.334L506.945 515.335L506.943 514.135L506.639 512.636L506.334 510.236L506.326 506.936L506.31 500.036L505.996 493.737L505.981 487.137L505.944 471.237L505.915 458.337L505.61 456.238L504.992 448.439L504.387 446.341L504.386 445.741L504.686 445.74L504.687 446.04L507.394 449.034L508.599 451.431L509.202 452.63L513.122 461.621L516.14 469.414L521.457 484.786L517.097 494.012Z" stroke="black"/>
<path d="M541.259 529.267L541.365 527.93L541.984 526.902L542.502 525.463L543.484 523.252L544.568 521.454L546.532 517.033L547.778 511.479L547.683 507.569L547.177 503.76L547.18 502.011L544.78 493.208L542.225 484.662L541.102 480.133L540.184 476.426L539.265 472.72L538.294 469.683L537.988 468.447L536.789 463.608L539.85 463.615L543.039 464.136L549.466 466.258L552.859 467.603L557.948 469.62L561.341 470.964L566.944 473.291L569.052 473.861L570.647 474.122L571.161 474.432L570.904 474.277L570.492 474.379L569.566 474.171L569.309 474.016L567.511 472.932L564.685 471.228L560.574 468.751L550.553 462.71L546.031 460.335L542.022 458.268L536.728 455.428L532.205 453.052L530.921 452.278L529.636 451.503L527.838 450.419L525.782 449.18L520.901 446.237L519.461 445.72L516.994 444.583L514.681 443.189L510.877 441.947L509.127 441.943L505.988 442.503L504.386 445.741L504.273 450.577L508.982 462.523L512.875 471.174L518.154 481.012L527.122 498.677L535.016 512.894L537.321 517.786L540.549 524.635L541.467 528.342L541.259 529.267ZM541.259 529.267L541.361 529.679L541.207 529.936L541.259 529.267Z" stroke="black"/>
</svg>
