<svg width="378" height="378" viewBox="0 0 378 378" fill="none" xmlns="http://www.w3.org/2000/svg">
<rect width="378" height="378" fill="white"/>
<path d="M284.549 179.242L277.336 180.09L274.25 180.27L266.273 180.842L256.769 180.862L247.265 180.883L237.274 179.864L227.802 178.601L214.204 178.005L205.22 177.782L201.094 178.45L196.723 178.598L192.597 179.266L191.558 179.754L191.314 179.234L195.748 176.519L197.827 175.543L202.537 172.065L208.042 167.578L223.455 157.174L231.039 151.712L239.663 145.763L246.972 141.064L250.122 138.317L256.391 134.107L260.338 130.352L263.764 126.842L263.52 126.322L263.424 130.172L263.912 131.212L265.068 136.378L266.531 139.496L267.995 142.615L269.702 146.253L270.678 148.332L273.117 153.53L275.556 158.727L277.995 163.925L280.434 169.123L283.117 174.84L284.941 179.234L284.549 179.242Z" stroke="black" stroke-width="1.91383"/>
<path d="M253.726 133.171L250.598 134.365L244.707 137.984L238.251 141.502L225.904 148.639L214.687 155.978L205.267 163.052L201.738 166.507L200.206 168.567L196.576 172.588L195.81 173.618L194.378 175.113L193.512 176.709L192.18 177.638L191.314 179.234L191.515 178.103L193.047 176.043L193.713 175.578L199.979 163.279L204.412 154.736L206.911 150.515L220.711 122.059L235.478 91.4434L244.017 69.6345L247.683 62.1218L250.484 56.2046L255.645 50.1238L257.077 48.6286L260.104 48L260.67 48.1004L261.8 48.3012L261.7 48.8665L261.763 51.7934L261.827 54.7203L261.488 59.9084L261.615 65.7623L261.214 68.0235L261.504 76.2389L261.329 83.7886L261.155 91.3384L260.705 107.003L260.732 113.422L260.758 119.841L260.42 125.03L260.583 127.391L260.699 129.058L253.726 133.171Z" stroke="black" stroke-width="1.91383"/>
<path d="M191.228 177.514L191.744 176.338L192.203 174.016L192.662 171.693L193.522 165.902L194.899 158.935L195.845 154.863L198.398 148.412L199.889 143.739L201.982 139.61L210.641 128.83L213.939 125.791L217.265 123.326L218.928 122.093L224.949 116.044L226.458 113.953L223.344 106.926L218.958 99.6717L211.877 84.504L209.985 81.1494L204.796 69.3363L202.273 64.8634L200.926 60.9067L199.664 58.6702L199.062 58.1254L198.374 55.8603L198.346 55.2869L197.801 55.8889L197.371 58.7847L197.055 63.9743L196.28 82.9835L195.82 96.8032L195.533 102.566L194.07 119.31L193.753 135.997L192.72 149.846L192.089 160.225L191.917 168.281L191.486 171.177L191.113 175.22L191.228 177.514ZM191.228 177.514L191.314 179.234" stroke="black" stroke-width="1.91383"/>
<path d="M191.682 176.967L192.051 174.7L191.945 171.775L191.931 168.282L191.429 160.639L191.599 156.013L191.572 149.028L192.493 143.361L192.848 137.602L193.94 127.309L194.192 124.512L182.421 126.599L180.062 126.798L167.516 128.829L161.665 129.041L152.704 130.493L149.686 131.165L148.552 130.981L146.76 131.271L145.06 130.995L144.968 131.562L145.35 132.787L145.733 134.013L146.115 135.238L146.59 135.897L148.58 137.966L153.312 141.062L158.044 144.158L162.209 147.162L171.106 153.262L175.653 157.492L180.293 161.155L181.716 163.131L185.223 166.61L187.688 169.337L190.917 174.516L191.682 176.967ZM191.682 176.967L191.314 179.234L191.406 178.667L191.498 178.1L191.682 176.967Z" stroke="black" stroke-width="1.91383"/>
<path d="M128.055 112.651L128.066 113.225L128.098 114.947L128.13 116.669L127.599 118.976L127.652 121.846L126.568 125.312L124.942 130.51L122.359 138.191L116.492 139.281L105.638 142.355L90.2352 147.81L83.3894 150.234L77.1176 152.648L71.9939 155.04L66.8489 156.285L64 157.486L64.5847 158.05L66.8809 158.007L70.3359 158.517L76.6612 158.973L96.785 160.321L127.284 163.773L158.975 169.5L179.726 173.707L182.044 174.813L187.242 176.438L189.549 176.97L191.314 179.234L190.74 179.245L189.57 178.118L187.805 175.854L186.03 173.016L183.053 167.328L180.66 162.205L177.694 157.092L175.301 151.968L172.346 147.429L169.975 143.454L168.178 139.467L165.817 136.066L165.211 134.354L160.501 128.125L157.003 125.319L151.762 121.397L146.532 118.049L144.214 116.944L143.629 116.38L139.579 114.733L138.42 114.18L136.687 113.638L134.954 113.096L133.222 112.554L131.499 112.586L130.925 112.597L129.777 112.619L128.629 112.64L128.055 112.651ZM128.055 112.651L127.481 112.661" stroke="black" stroke-width="1.91383"/>
<path d="M123.246 167.607L126.244 167.973L145.534 170.967L150.64 171.76L160.285 173.256L169.363 174.665L176.739 175.81L182.891 177.346L189.044 178.882L190.746 179.146L191.314 179.234L191.226 179.801L188.213 180.496L185.288 180.623L182.93 180.838L179.262 182.012L178.607 182.491L170.615 185.318L166.115 188.106L161.615 190.893L151.217 197.995L146.629 201.35L142.608 204.793L141.298 205.752L138.588 208.237L137.101 210.33L135.614 212.423L134.871 213.47L135.047 212.335L134.832 209.978L134.44 208.755L133.178 205.654L132.093 201.418L130.704 195.393L128.748 189.279L126.967 182.03L123.71 169.323L123.246 167.607Z" stroke="black" stroke-width="1.91383"/>
<path d="M136.725 212.345L152.532 202.757L161.369 197.397L169.714 192.335L179.532 186.38L184.441 183.403L188.368 181.02L190.332 179.829L191.314 179.234L191.121 180.023L190.63 180.32L189.946 181.407L188.578 183.58L186.421 185.559L185.157 189.012L180.86 196.319L179.194 198.001L177.247 202.54L175.79 206.781L172.684 216.052L171.718 219.995L170.945 223.15L170.664 226.006L170.189 229.652L170.889 231.913L171.782 233.386L171.589 234.175L169.416 232.807L167.243 231.439L160.234 227.632L156.186 225.387L152.629 222.844L148.283 220.108L146.11 218.739L140.678 215.319L136.725 212.345Z" stroke="black" stroke-width="1.91383"/>
<path d="M155.255 279.673L161.692 263.152L167.617 246.369L172.968 231.209L177.172 219.298L180.07 209.362L185.262 192.928L186.027 190.763L189.084 182.1L189.849 179.934L190.422 178.31L191.314 179.234L192.014 180.699L194.116 185.094L195.326 188.565L197.428 192.961L203.766 204.331L207.651 210.573L211.886 217.548L216.313 223.981L220.007 230.765L225.485 239.396L230.421 247.836L233.255 251.881L238.032 259.047L239.624 261.435L240.675 263.633L239.401 263.792L237.777 263.219L236.153 262.645L232.873 263.314L225.038 264.811L219.56 266.53L213.35 268.6L198.731 273.791L189.973 276.179L181.406 278.026L168.316 278.886L159.399 280L155.255 279.673Z" stroke="black" stroke-width="1.91383"/>
<path d="M241.834 265.613L235.19 255.065L225.082 238.543L215.358 223.104L207.099 208.364L196.767 189.485L195.81 186.779L191.314 179.234L190.356 176.527L192.013 177.768L193.67 179.009L195.136 179.709L197.875 180.567L200.615 181.425L206.635 182.949L208.451 182.916L214.28 183.899L226.479 185.674L233.232 187.549L240.335 188.69L246.546 190.756L249.286 191.614L254.765 193.33L259.703 195.237L263.175 196.445L266.839 198.194L267.572 198.544L270.503 199.943L271.235 200.293L271.427 200.834L271.618 201.376L271.651 203.191L271.143 205.198L270.827 207.746L268.602 215.232L266.695 220.169L264.088 226.573L260.59 233.9L258.841 237.564L253.369 246.199L248.089 255.375L241.917 265.475L241.834 265.613Z" stroke="black" stroke-width="1.91383"/>
</svg>
